<svg width="1920" height="1080" viewBox="0 0 1920 1080" fill="none" xmlns="http://www.w3.org/2000/svg">
<mask id="mask0_49_4829" style="mask-type:alpha" maskUnits="userSpaceOnUse" x="0" y="0" width="1920" height="1080">
<rect width="1920" height="1080" fill="#D9D9D9"/>
</mask>
<g mask="url(#mask0_49_4829)">
<g opacity="0.2">
<path d="M487.629 179.902C472.738 188.562 462.685 204.707 462.685 223.205C462.685 250.835 485.045 273.193 512.573 273.193C540.101 273.193 562.461 250.788 562.461 223.205C562.461 195.623 540.101 173.218 512.573 173.218L512.573 223.205L487.629 179.902Z" fill="#F7F7F7"/>
<path d="M1845.17 4.33338C1850.15 1.46216 1853.48 -3.95078 1853.48 -10.1168C1853.48 -19.3424 1846.06 -26.7793 1836.85 -26.7793C1827.65 -26.7793 1820.22 -19.3424 1820.22 -10.1168C1820.22 -0.891293 1827.65 6.54563 1836.85 6.54563L1836.85 -10.1168L1845.17 4.33338Z" fill="#F7F7F7"/>
<path d="M1778.65 70.9838C1783.63 68.1125 1786.97 62.6996 1786.97 56.5336C1786.97 47.308 1779.55 39.8711 1770.34 39.8711C1761.13 39.8711 1753.71 47.308 1753.71 56.5335C1753.71 65.7591 1761.13 73.196 1770.34 73.196L1770.34 56.5336L1778.65 70.9838Z" fill="#F7F7F7"/>
<path d="M1712.14 137.634C1717.11 134.763 1720.45 129.35 1720.45 123.184C1720.45 113.958 1713.03 106.521 1703.82 106.521C1694.61 106.521 1687.19 113.958 1687.19 123.184C1687.19 132.409 1694.61 139.846 1703.82 139.846L1703.82 123.184L1712.14 137.634Z" fill="#F7F7F7"/>
<path d="M1645.62 204.285C1650.6 201.413 1653.93 196 1653.93 189.834C1653.93 180.609 1646.51 173.172 1637.3 173.172C1628.1 173.172 1620.67 180.609 1620.67 189.834C1620.67 199.06 1628.1 206.497 1637.3 206.497L1637.3 189.834L1645.62 204.285Z" fill="#F7F7F7"/>
<path d="M1579.1 270.93C1584.08 268.059 1587.42 262.646 1587.42 256.48C1587.42 247.254 1579.99 239.817 1570.79 239.817C1561.58 239.817 1554.16 247.254 1554.16 256.48C1554.16 265.705 1561.58 273.142 1570.79 273.142L1570.79 256.48L1579.1 270.93Z" fill="#F7F7F7"/>
<path d="M1512.58 337.58C1517.56 334.709 1520.9 329.296 1520.9 323.13C1520.9 313.905 1513.47 306.468 1504.27 306.468C1495.06 306.468 1487.64 313.905 1487.64 323.13C1487.64 332.356 1495.06 339.793 1504.27 339.793L1504.27 323.13L1512.58 337.58Z" fill="#F7F7F7"/>
<path d="M1446.06 404.233C1451.04 401.362 1454.38 395.949 1454.38 389.783C1454.38 380.557 1446.96 373.12 1437.75 373.12C1428.54 373.12 1421.12 380.557 1421.12 389.783C1421.12 399.008 1428.54 406.445 1437.75 406.445L1437.75 389.783L1446.06 404.233Z" fill="#F7F7F7"/>
<path d="M1379.55 470.883C1384.53 468.012 1387.87 462.599 1387.87 456.433C1387.87 447.207 1380.44 439.771 1371.24 439.771C1362.03 439.771 1354.61 447.207 1354.61 456.433C1354.61 465.659 1362.03 473.095 1371.24 473.095L1371.24 456.433L1379.55 470.883Z" fill="#F7F7F7"/>
<path d="M1313.03 537.534C1318.01 534.662 1321.35 529.249 1321.35 523.083C1321.35 513.858 1313.93 506.421 1304.72 506.421C1295.51 506.421 1288.09 513.858 1288.09 523.083C1288.09 532.309 1295.51 539.746 1304.72 539.746L1304.72 523.083L1313.03 537.534Z" fill="#F7F7F7"/>
<path d="M1246.51 604.184C1251.49 601.313 1254.83 595.9 1254.83 589.734C1254.83 580.508 1247.41 573.071 1238.2 573.071C1228.99 573.071 1221.57 580.508 1221.57 589.734C1221.57 598.959 1228.99 606.396 1238.2 606.396L1238.2 589.734L1246.51 604.184Z" fill="#F7F7F7"/>
<path d="M1180 670.829C1184.98 667.958 1188.31 662.545 1188.31 656.379C1188.31 647.154 1180.89 639.717 1171.68 639.717C1162.48 639.717 1155.05 647.154 1155.05 656.379C1155.05 665.605 1162.48 673.042 1171.68 673.042L1171.68 656.379L1180 670.829Z" fill="#F7F7F7"/>
<path d="M1046.96 804.13C1051.94 801.259 1055.28 795.846 1055.28 789.68C1055.28 780.455 1047.85 773.018 1038.65 773.018C1029.44 773.018 1022.02 780.455 1022.02 789.68C1022.02 798.906 1029.44 806.343 1038.65 806.343L1038.65 789.68L1046.96 804.13Z" fill="#F7F7F7"/>
<path d="M880.672 970.757C885.651 967.886 888.986 962.473 888.986 956.307C888.986 947.081 881.564 939.645 872.357 939.645C863.15 939.645 855.728 947.081 855.728 956.307C855.728 965.533 863.15 972.969 872.357 972.969L872.357 956.307L880.672 970.757Z" fill="#F7F7F7"/>
<path d="M1903.37 -26.7793L1903.37 6.54563C1909.43 6.54563 1915.11 4.89821 1920 2.07406L1903.37 -26.7793Z" fill="#F7F7F7"/>
<path d="M1903.37 73.1963L1903.37 106.521C1909.43 106.521 1915.11 104.874 1920 102.05L1903.37 73.1963Z" fill="#F7F7F7"/>
<path d="M1903.37 39.8711L1903.37 73.196C1909.43 73.196 1915.11 71.5486 1920 68.7244L1903.37 39.8711Z" fill="#F7F7F7"/>
<path d="M1903.37 173.172L1903.37 206.497C1909.43 206.497 1915.11 204.849 1920 202.025L1903.37 173.172Z" fill="#F7F7F7"/>
<path d="M1903.37 239.817L1903.37 273.142C1909.43 273.142 1915.11 271.495 1920 268.671L1903.37 239.817Z" fill="#F7F7F7"/>
<path d="M1903.37 273.144L1903.37 306.468C1909.43 306.468 1915.11 304.821 1920 301.997L1903.37 273.144Z" fill="#F7F7F7"/>
<path d="M1903.37 373.12L1903.37 406.445C1909.43 406.445 1915.11 404.798 1920 401.973L1903.37 373.12Z" fill="#F7F7F7"/>
<path d="M1870.11 306.468L1870.11 339.793C1876.17 339.793 1881.86 338.145 1886.74 335.321L1870.11 306.468Z" fill="#F7F7F7"/>
<path d="M1870.11 339.794L1870.11 373.119C1876.17 373.119 1881.86 371.471 1886.74 368.647L1870.11 339.794Z" fill="#F7F7F7"/>
<path d="M1870.11 373.119L1870.11 406.444C1876.17 406.444 1881.86 404.797 1886.74 401.972L1870.11 373.119Z" fill="#F7F7F7"/>
<path d="M1870.11 439.771L1870.11 473.095C1876.17 473.095 1881.86 471.448 1886.74 468.624L1870.11 439.771Z" fill="#F7F7F7"/>
<path d="M1870.11 473.095L1870.11 506.42C1876.17 506.42 1881.86 504.772 1886.74 501.948L1870.11 473.095Z" fill="#F7F7F7"/>
<path d="M1870.11 506.421L1870.11 539.746C1876.17 539.746 1881.86 538.098 1886.74 535.274L1870.11 506.421Z" fill="#F7F7F7"/>
<path d="M1870.11 573.071L1870.11 606.396C1876.17 606.396 1881.86 604.749 1886.74 601.925L1870.11 573.071Z" fill="#F7F7F7"/>
<path d="M1870.11 606.392L1870.11 639.717C1876.17 639.717 1881.86 638.069 1886.74 635.245L1870.11 606.392Z" fill="#F7F7F7"/>
<path d="M1870.11 639.717L1870.11 673.042C1876.17 673.042 1881.86 671.394 1886.74 668.57L1870.11 639.717Z" fill="#F7F7F7"/>
<path d="M1870.11 706.367L1870.11 739.692C1876.17 739.692 1881.86 738.045 1886.74 735.22L1870.11 706.367Z" fill="#F7F7F7"/>
<path d="M1870.11 739.692L1870.11 773.017C1876.17 773.017 1881.86 771.37 1886.74 768.546L1870.11 739.692Z" fill="#F7F7F7"/>
<path d="M1870.11 773.018L1870.11 806.343C1876.17 806.343 1881.86 804.695 1886.74 801.871L1870.11 773.018Z" fill="#F7F7F7"/>
<path d="M1870.11 839.668L1870.11 872.993C1876.17 872.993 1881.86 871.345 1886.74 868.521L1870.11 839.668Z" fill="#F7F7F7"/>
<path d="M1870.11 872.993L1870.11 906.318C1876.17 906.318 1881.86 904.671 1886.74 901.847L1870.11 872.993Z" fill="#F7F7F7"/>
<path d="M1870.11 906.318L1870.11 939.643C1876.17 939.643 1881.86 937.996 1886.74 935.172L1870.11 906.318Z" fill="#F7F7F7"/>
<path d="M1870.11 972.969L1870.11 1006.29C1876.17 1006.29 1881.86 1004.65 1886.74 1001.82L1870.11 972.969Z" fill="#F7F7F7"/>
<path d="M1870.11 1006.29L1870.11 1039.62C1876.17 1039.62 1881.86 1037.97 1886.74 1035.15L1870.11 1006.29Z" fill="#F7F7F7"/>
<path d="M1870.11 1039.62L1870.11 1072.94C1876.17 1072.94 1881.86 1071.29 1886.74 1068.47L1870.11 1039.62Z" fill="#F7F7F7"/>
<path d="M1903.37 473.095L1903.37 506.42C1909.43 506.42 1915.11 504.772 1920 501.948L1903.37 473.095Z" fill="#F7F7F7"/>
<path d="M1903.37 573.071L1903.37 606.396C1909.43 606.396 1915.11 604.749 1920 601.925L1903.37 573.071Z" fill="#F7F7F7"/>
<path d="M1903.37 673.042L1903.37 706.367C1909.43 706.367 1915.11 704.719 1920 701.895L1903.37 673.042Z" fill="#F7F7F7"/>
<path d="M1903.37 773.018L1903.37 806.343C1909.43 806.343 1915.11 804.695 1920 801.871L1903.37 773.018Z" fill="#F7F7F7"/>
<path d="M1903.37 839.668L1903.37 872.993C1909.43 872.993 1915.11 871.345 1920 868.521L1903.37 839.668Z" fill="#F7F7F7"/>
<path d="M1903.37 906.319L1903.37 939.644C1909.43 939.644 1915.11 937.997 1920 935.173L1903.37 906.319Z" fill="#F7F7F7"/>
<path d="M1903.37 972.97L1903.37 1006.29C1909.43 1006.29 1915.11 1004.65 1920 1001.82L1903.37 972.97Z" fill="#F7F7F7"/>
<path d="M1903.37 1039.62L1903.37 1072.94C1909.43 1072.94 1915.11 1071.29 1920 1068.47L1903.37 1039.62Z" fill="#F7F7F7"/>
<path d="M1870.11 -26.7793L1870.11 6.54563C1876.17 6.54563 1881.86 4.89821 1886.74 2.07406L1870.11 -26.7793Z" fill="#F7F7F7"/>
<path d="M1870.11 6.5459L1870.11 39.8708C1876.17 39.8708 1881.86 38.2234 1886.74 35.3993L1870.11 6.5459Z" fill="#F7F7F7"/>
<path d="M1870.11 39.8711L1870.11 73.196C1876.17 73.196 1881.86 71.5486 1886.74 68.7244L1870.11 39.8711Z" fill="#F7F7F7"/>
<path d="M1870.11 106.521L1870.11 139.846C1876.17 139.846 1881.86 138.199 1886.74 135.375L1870.11 106.521Z" fill="#F7F7F7"/>
<path d="M1870.11 139.847L1870.11 173.172C1876.17 173.172 1881.86 171.524 1886.74 168.7L1870.11 139.847Z" fill="#F7F7F7"/>
<path d="M1870.11 206.493L1870.11 239.818C1876.17 239.818 1881.86 238.171 1886.74 235.347L1870.11 206.493Z" fill="#F7F7F7"/>
<path d="M1870.11 239.817L1870.11 273.142C1876.17 273.142 1881.86 271.495 1886.74 268.671L1870.11 239.817Z" fill="#F7F7F7"/>
<path d="M1836.85 6.5459L1836.85 39.8708C1842.91 39.8708 1848.6 38.2234 1853.48 35.3993L1836.85 6.5459Z" fill="#F7F7F7"/>
<path d="M1836.85 39.8711L1836.85 73.196C1842.91 73.196 1848.6 71.5486 1853.48 68.7244L1836.85 39.8711Z" fill="#F7F7F7"/>
<path d="M1836.85 139.847L1836.85 173.172C1842.91 173.172 1848.6 171.524 1853.48 168.7L1836.85 139.847Z" fill="#F7F7F7"/>
<path d="M1836.85 206.493L1836.85 239.818C1842.91 239.818 1848.6 238.171 1853.48 235.347L1836.85 206.493Z" fill="#F7F7F7"/>
<path d="M1836.85 239.817L1836.85 273.142C1842.91 273.142 1848.6 271.495 1853.48 268.671L1836.85 239.817Z" fill="#F7F7F7"/>
<path d="M1836.85 339.794L1836.85 373.119C1842.91 373.119 1848.6 371.471 1853.48 368.647L1836.85 339.794Z" fill="#F7F7F7"/>
<path d="M1836.85 373.119L1836.85 406.444C1842.91 406.444 1848.6 404.797 1853.48 401.972L1836.85 373.119Z" fill="#F7F7F7"/>
<path d="M1836.85 506.421L1836.85 539.746C1842.91 539.746 1848.6 538.098 1853.48 535.274L1836.85 506.421Z" fill="#F7F7F7"/>
<path d="M1836.85 539.745L1836.85 573.07C1842.91 573.07 1848.6 571.423 1853.48 568.598L1836.85 539.745Z" fill="#F7F7F7"/>
<path d="M1836.85 706.367L1836.85 739.692C1842.91 739.692 1848.6 738.045 1853.48 735.22L1836.85 706.367Z" fill="#F7F7F7"/>
<path d="M1836.85 739.692L1836.85 773.017C1842.91 773.017 1848.6 771.37 1853.48 768.546L1836.85 739.692Z" fill="#F7F7F7"/>
<path d="M1836.85 939.645L1836.85 972.969C1842.91 972.969 1848.6 971.322 1853.48 968.498L1836.85 939.645Z" fill="#F7F7F7"/>
<path d="M1836.85 972.969L1836.85 1006.29C1842.91 1006.29 1848.6 1004.65 1853.48 1001.82L1836.85 972.969Z" fill="#F7F7F7"/>
<path d="M1803.6 39.8711L1803.6 73.196C1809.66 73.196 1815.34 71.5486 1820.23 68.7244L1803.6 39.8711Z" fill="#F7F7F7"/>
<path d="M1803.6 239.817L1803.6 273.142C1809.66 273.142 1815.34 271.495 1820.23 268.671L1803.6 239.817Z" fill="#F7F7F7"/>
<path d="M1803.6 439.771L1803.6 473.095C1809.66 473.095 1815.34 471.448 1820.23 468.624L1803.6 439.771Z" fill="#F7F7F7"/>
<path d="M1803.6 639.717L1803.6 673.042C1809.66 673.042 1815.34 671.394 1820.23 668.57L1803.6 639.717Z" fill="#F7F7F7"/>
<path d="M1803.6 839.668L1803.6 872.993C1809.66 872.993 1815.34 871.345 1820.23 868.521L1803.6 839.668Z" fill="#F7F7F7"/>
<path d="M1803.6 1039.62L1803.6 1072.94C1809.66 1072.94 1815.34 1071.29 1820.23 1068.47L1803.6 1039.62Z" fill="#F7F7F7"/>
<path d="M1770.34 73.1963L1770.34 106.521C1776.4 106.521 1782.08 104.874 1786.97 102.05L1770.34 73.1963Z" fill="#F7F7F7"/>
<path d="M1770.34 106.521L1770.34 139.846C1776.4 139.846 1782.08 138.199 1786.97 135.375L1770.34 106.521Z" fill="#F7F7F7"/>
<path d="M1770.34 206.493L1770.34 239.818C1776.4 239.818 1782.08 238.171 1786.97 235.347L1770.34 206.493Z" fill="#F7F7F7"/>
<path d="M1770.34 273.144L1770.34 306.468C1776.4 306.468 1782.08 304.821 1786.97 301.997L1770.34 273.144Z" fill="#F7F7F7"/>
<path d="M1770.34 473.095L1770.34 506.42C1776.4 506.42 1782.08 504.772 1786.97 501.948L1770.34 473.095Z" fill="#F7F7F7"/>
<path d="M1770.34 673.042L1770.34 706.367C1776.4 706.367 1782.08 704.719 1786.97 701.895L1770.34 673.042Z" fill="#F7F7F7"/>
<path d="M1770.34 872.993L1770.34 906.318C1776.4 906.318 1782.08 904.671 1786.97 901.847L1770.34 872.993Z" fill="#F7F7F7"/>
<path d="M1770.34 1072.94L1770.34 1106.27C1776.4 1106.27 1782.08 1104.62 1786.97 1101.79L1770.34 1072.94Z" fill="#F7F7F7"/>
<path d="M1737.08 106.521L1737.08 139.846C1743.14 139.846 1748.82 138.199 1753.71 135.375L1737.08 106.521Z" fill="#F7F7F7"/>
<path d="M1737.08 139.847L1737.08 173.172C1743.14 173.172 1748.82 171.524 1753.71 168.7L1737.08 139.847Z" fill="#F7F7F7"/>
<path d="M1737.08 173.172L1737.08 206.497C1743.14 206.497 1748.82 204.849 1753.71 202.025L1737.08 173.172Z" fill="#F7F7F7"/>
<path d="M1737.08 239.817L1737.08 273.142C1743.14 273.142 1748.82 271.495 1753.71 268.671L1737.08 239.817Z" fill="#F7F7F7"/>
<path d="M1737.08 306.468L1737.08 339.793C1743.14 339.793 1748.82 338.145 1753.71 335.321L1737.08 306.468Z" fill="#F7F7F7"/>
<path d="M1737.08 439.771L1737.08 473.095C1743.14 473.095 1748.82 471.448 1753.71 468.624L1737.08 439.771Z" fill="#F7F7F7"/>
<path d="M1737.08 573.071L1737.08 606.396C1743.14 606.396 1748.82 604.749 1753.71 601.925L1737.08 573.071Z" fill="#F7F7F7"/>
<path d="M1737.08 706.367L1737.08 739.692C1743.14 739.692 1748.82 738.045 1753.71 735.22L1737.08 706.367Z" fill="#F7F7F7"/>
<path d="M1737.08 839.668L1737.08 872.993C1743.14 872.993 1748.82 871.345 1753.71 868.521L1737.08 839.668Z" fill="#F7F7F7"/>
<path d="M1737.08 972.969L1737.08 1006.29C1743.14 1006.29 1748.82 1004.65 1753.71 1001.82L1737.08 972.969Z" fill="#F7F7F7"/>
<path d="M1703.82 139.847L1703.82 173.172C1709.88 173.172 1715.56 171.524 1720.45 168.7L1703.82 139.847Z" fill="#F7F7F7"/>
<path d="M1703.82 173.172L1703.82 206.497C1709.88 206.497 1715.56 204.849 1720.45 202.025L1703.82 173.172Z" fill="#F7F7F7"/>
<path d="M1703.82 206.493L1703.82 239.818C1709.88 239.818 1715.56 238.171 1720.45 235.347L1703.82 206.493Z" fill="#F7F7F7"/>
<path d="M1703.82 273.144L1703.82 306.468C1709.88 306.468 1715.56 304.821 1720.45 301.997L1703.82 273.144Z" fill="#F7F7F7"/>
<path d="M1703.82 339.794L1703.82 373.119C1709.88 373.119 1715.56 371.471 1720.45 368.647L1703.82 339.794Z" fill="#F7F7F7"/>
<path d="M1703.82 639.717L1703.82 673.042C1709.88 673.042 1715.56 671.394 1720.45 668.57L1703.82 639.717Z" fill="#F7F7F7"/>
<path d="M1703.82 939.645L1703.82 972.969C1709.88 972.969 1715.57 971.322 1720.45 968.498L1703.82 939.645Z" fill="#F7F7F7"/>
<path d="M1670.56 173.172L1670.56 206.497C1676.62 206.497 1682.31 204.849 1687.19 202.025L1670.56 173.172Z" fill="#F7F7F7"/>
<path d="M1670.56 206.493L1670.56 239.818C1676.62 239.818 1682.31 238.171 1687.19 235.347L1670.56 206.493Z" fill="#F7F7F7"/>
<path d="M1670.56 239.817L1670.56 273.142C1676.62 273.142 1682.31 271.495 1687.19 268.671L1670.56 239.817Z" fill="#F7F7F7"/>
<path d="M1670.56 306.468L1670.56 339.793C1676.62 339.793 1682.31 338.145 1687.19 335.321L1670.56 306.468Z" fill="#F7F7F7"/>
<path d="M1670.56 373.12L1670.56 406.445C1676.62 406.445 1682.31 404.798 1687.19 401.973L1670.56 373.12Z" fill="#F7F7F7"/>
<path d="M1670.56 539.746L1670.56 573.071C1676.62 573.071 1682.31 571.424 1687.19 568.599L1670.56 539.746Z" fill="#F7F7F7"/>
<path d="M1670.56 706.367L1670.56 739.692C1676.62 739.692 1682.31 738.045 1687.19 735.22L1670.56 706.367Z" fill="#F7F7F7"/>
<path d="M1670.56 872.993L1670.56 906.318C1676.62 906.318 1682.31 904.671 1687.19 901.847L1670.56 872.993Z" fill="#F7F7F7"/>
<path d="M1670.56 1039.62L1670.56 1072.94C1676.62 1072.94 1682.31 1071.29 1687.19 1068.47L1670.56 1039.62Z" fill="#F7F7F7"/>
<path d="M1620.67 239.817L1620.67 273.142C1626.73 273.142 1632.42 271.495 1637.3 268.671L1620.67 239.817Z" fill="#F7F7F7"/>
<path d="M1620.67 273.144L1620.67 306.468C1626.73 306.468 1632.42 304.821 1637.3 301.997L1620.67 273.144Z" fill="#F7F7F7"/>
<path d="M1620.67 306.468L1620.67 339.793C1626.73 339.793 1632.42 338.145 1637.3 335.321L1620.67 306.468Z" fill="#F7F7F7"/>
<path d="M1620.67 373.12L1620.67 406.445C1626.73 406.445 1632.42 404.798 1637.3 401.973L1620.67 373.12Z" fill="#F7F7F7"/>
<path d="M1620.67 439.771L1620.67 473.095C1626.73 473.095 1632.42 471.448 1637.3 468.624L1620.67 439.771Z" fill="#F7F7F7"/>
<path d="M1620.67 573.071L1620.67 606.396C1626.73 606.396 1632.42 604.749 1637.3 601.925L1620.67 573.071Z" fill="#F7F7F7"/>
<path d="M1620.67 706.367L1620.67 739.692C1626.73 739.692 1632.42 738.045 1637.3 735.22L1620.67 706.367Z" fill="#F7F7F7"/>
<path d="M1620.67 839.668L1620.67 872.993C1626.73 872.993 1632.42 871.345 1637.3 868.521L1620.67 839.668Z" fill="#F7F7F7"/>
<path d="M1620.67 972.97L1620.67 1006.29C1626.73 1006.29 1632.42 1004.65 1637.3 1001.82L1620.67 972.97Z" fill="#F7F7F7"/>
<path d="M1570.79 273.144L1570.79 306.468C1576.85 306.468 1582.53 304.821 1587.42 301.997L1570.79 273.144Z" fill="#F7F7F7"/>
<path d="M1570.79 339.794L1570.79 373.119C1576.85 373.119 1582.53 371.471 1587.42 368.647L1570.79 339.794Z" fill="#F7F7F7"/>
<path d="M1570.79 373.12L1570.79 406.445C1576.85 406.445 1582.53 404.798 1587.42 401.973L1570.79 373.12Z" fill="#F7F7F7"/>
<path d="M1570.79 439.771L1570.79 473.095C1576.85 473.095 1582.53 471.448 1587.42 468.624L1570.79 439.771Z" fill="#F7F7F7"/>
<path d="M1570.79 506.421L1570.79 539.746C1576.85 539.746 1582.53 538.098 1587.42 535.274L1570.79 506.421Z" fill="#F7F7F7"/>
<path d="M1520.9 373.12L1520.9 406.445C1526.96 406.445 1532.64 404.798 1537.53 401.973L1520.9 373.12Z" fill="#F7F7F7"/>
<path d="M1520.9 406.444L1520.9 439.769C1526.96 439.769 1532.64 438.122 1537.53 435.298L1520.9 406.444Z" fill="#F7F7F7"/>
<path d="M1520.9 439.771L1520.9 473.095C1526.96 473.095 1532.64 471.448 1537.53 468.624L1520.9 439.771Z" fill="#F7F7F7"/>
<path d="M1520.9 506.421L1520.9 539.746C1526.96 539.746 1532.64 538.098 1537.53 535.274L1520.9 506.421Z" fill="#F7F7F7"/>
<path d="M1520.9 573.071L1520.9 606.396C1526.96 606.396 1532.64 604.749 1537.53 601.925L1520.9 573.071Z" fill="#F7F7F7"/>
<path d="M1437.75 439.771L1437.75 473.095C1443.81 473.095 1449.49 471.448 1454.38 468.624L1437.75 439.771Z" fill="#F7F7F7"/>
<path d="M1437.75 473.095L1437.75 506.42C1443.81 506.42 1449.49 504.772 1454.38 501.948L1437.75 473.095Z" fill="#F7F7F7"/>
<path d="M1437.75 506.421L1437.75 539.746C1443.81 539.746 1449.49 538.098 1454.38 535.274L1437.75 506.421Z" fill="#F7F7F7"/>
<path d="M1437.75 573.071L1437.75 606.396C1443.81 606.396 1449.49 604.749 1454.38 601.925L1437.75 573.071Z" fill="#F7F7F7"/>
<path d="M1437.75 639.717L1437.75 673.042C1443.81 673.042 1449.49 671.394 1454.38 668.57L1437.75 639.717Z" fill="#F7F7F7"/>
<path d="M1570.79 606.392L1570.79 639.717C1576.85 639.717 1582.53 638.069 1587.42 635.245L1570.79 606.392Z" fill="#F7F7F7"/>
<path d="M1570.79 673.042L1570.79 706.367C1576.85 706.367 1582.53 704.719 1587.42 701.895L1570.79 673.042Z" fill="#F7F7F7"/>
<path d="M1570.79 739.692L1570.79 773.017C1576.85 773.017 1582.53 771.37 1587.42 768.546L1570.79 739.692Z" fill="#F7F7F7"/>
<path d="M1570.79 806.343L1570.79 839.668C1576.85 839.668 1582.53 838.02 1587.42 835.196L1570.79 806.343Z" fill="#F7F7F7"/>
<path d="M1520.9 673.042L1520.9 706.367C1526.96 706.367 1532.64 704.719 1537.53 701.895L1520.9 673.042Z" fill="#F7F7F7"/>
<path d="M1520.9 706.367L1520.9 739.692C1526.96 739.692 1532.64 738.045 1537.53 735.22L1520.9 706.367Z" fill="#F7F7F7"/>
<path d="M1520.9 739.692L1520.9 773.017C1526.96 773.017 1532.64 771.37 1537.53 768.546L1520.9 739.692Z" fill="#F7F7F7"/>
<path d="M1520.9 773.018L1520.9 806.343C1526.96 806.343 1532.64 804.695 1537.53 801.871L1520.9 773.018Z" fill="#F7F7F7"/>
<path d="M1520.9 839.668L1520.9 872.993C1526.96 872.993 1532.64 871.345 1537.53 868.521L1520.9 839.668Z" fill="#F7F7F7"/>
<path d="M1520.9 872.993L1520.9 906.318C1526.96 906.318 1532.64 904.671 1537.53 901.847L1520.9 872.993Z" fill="#F7F7F7"/>
<path d="M1437.75 739.692L1437.75 773.017C1443.81 773.017 1449.49 771.37 1454.38 768.546L1437.75 739.692Z" fill="#F7F7F7"/>
<path d="M1437.75 773.018L1437.75 806.343C1443.81 806.343 1449.49 804.695 1454.38 801.871L1437.75 773.018Z" fill="#F7F7F7"/>
<path d="M1437.75 806.343L1437.75 839.668C1443.81 839.668 1449.49 838.02 1454.38 835.196L1437.75 806.343Z" fill="#F7F7F7"/>
<path d="M1437.75 839.668L1437.75 872.993C1443.81 872.993 1449.49 871.345 1454.38 868.521L1437.75 839.668Z" fill="#F7F7F7"/>
<path d="M1437.75 872.993L1437.75 906.318C1443.81 906.318 1449.49 904.671 1454.38 901.847L1437.75 872.993Z" fill="#F7F7F7"/>
<path d="M1437.75 906.318L1437.75 939.643C1443.81 939.643 1449.49 937.996 1454.38 935.172L1437.75 906.318Z" fill="#F7F7F7"/>
<path d="M1437.75 939.645L1437.75 972.969C1443.81 972.969 1449.49 971.322 1454.38 968.498L1437.75 939.645Z" fill="#F7F7F7"/>
<path d="M1570.79 906.318L1570.79 939.643C1576.85 939.643 1582.53 937.996 1587.42 935.172L1570.79 906.318Z" fill="#F7F7F7"/>
<path d="M1570.79 972.97L1570.79 1006.29C1576.85 1006.29 1582.53 1004.65 1587.42 1001.82L1570.79 972.97Z" fill="#F7F7F7"/>
<path d="M1570.79 1039.62L1570.79 1072.94C1576.85 1072.94 1582.53 1071.29 1587.42 1068.47L1570.79 1039.62Z" fill="#F7F7F7"/>
<path d="M1520.9 1006.29L1520.9 1039.62C1526.96 1039.62 1532.64 1037.97 1537.53 1035.15L1520.9 1006.29Z" fill="#F7F7F7"/>
<path d="M1520.9 1039.62L1520.9 1072.94C1526.96 1072.94 1532.64 1071.29 1537.53 1068.47L1520.9 1039.62Z" fill="#F7F7F7"/>
<path d="M1520.9 1072.94L1520.9 1106.27C1526.96 1106.27 1532.64 1104.62 1537.53 1101.79L1520.9 1072.94Z" fill="#F7F7F7"/>
<path d="M1437.75 1039.62L1437.75 1072.94C1443.81 1072.94 1449.49 1071.29 1454.38 1068.47L1437.75 1039.62Z" fill="#F7F7F7"/>
<path d="M1437.75 1072.94L1437.75 1106.27C1443.81 1106.27 1449.49 1104.62 1454.38 1101.79L1437.75 1072.94Z" fill="#F7F7F7"/>
<path d="M1371.24 539.746L1371.24 573.071C1377.3 573.071 1382.98 571.424 1387.87 568.599L1371.24 539.746Z" fill="#F7F7F7"/>
<path d="M1371.24 573.071L1371.24 606.396C1377.3 606.396 1382.98 604.749 1387.87 601.925L1371.24 573.071Z" fill="#F7F7F7"/>
<path d="M1371.24 606.392L1371.24 639.717C1377.3 639.717 1382.98 638.069 1387.87 635.245L1371.24 606.392Z" fill="#F7F7F7"/>
<path d="M1371.24 673.042L1371.24 706.367C1377.3 706.367 1382.98 704.719 1387.87 701.895L1371.24 673.042Z" fill="#F7F7F7"/>
<path d="M1371.24 739.692L1371.24 773.017C1377.3 773.017 1382.98 771.37 1387.87 768.546L1371.24 739.692Z" fill="#F7F7F7"/>
<path d="M1304.72 639.717L1304.72 673.042C1310.78 673.042 1316.46 671.394 1321.35 668.57L1304.72 639.717Z" fill="#F7F7F7"/>
<path d="M1304.72 673.042L1304.72 706.367C1310.78 706.367 1316.46 704.719 1321.35 701.895L1304.72 673.042Z" fill="#F7F7F7"/>
<path d="M1304.72 706.367L1304.72 739.692C1310.78 739.692 1316.46 738.045 1321.35 735.22L1304.72 706.367Z" fill="#F7F7F7"/>
<path d="M1304.72 739.692L1304.72 773.017C1310.78 773.017 1316.46 771.37 1321.35 768.546L1304.72 739.692Z" fill="#F7F7F7"/>
<path d="M1304.72 773.018L1304.72 806.343C1310.78 806.343 1316.46 804.695 1321.35 801.871L1304.72 773.018Z" fill="#F7F7F7"/>
<path d="M1304.72 806.343L1304.72 839.668C1310.78 839.668 1316.46 838.02 1321.35 835.196L1304.72 806.343Z" fill="#F7F7F7"/>
<path d="M1304.72 839.668L1304.72 872.993C1310.78 872.993 1316.46 871.345 1321.35 868.521L1304.72 839.668Z" fill="#F7F7F7"/>
<path d="M1155.05 739.692L1155.05 773.017C1161.11 773.017 1166.8 771.37 1171.68 768.546L1155.05 739.692Z" fill="#F7F7F7"/>
<path d="M1155.05 773.018L1155.05 806.343C1161.11 806.343 1166.8 804.695 1171.68 801.871L1155.05 773.018Z" fill="#F7F7F7"/>
<path d="M1155.05 806.343L1155.05 839.668C1161.11 839.668 1166.8 838.02 1171.68 835.196L1155.05 806.343Z" fill="#F7F7F7"/>
<path d="M1155.05 839.668L1155.05 872.993C1161.11 872.993 1166.8 871.345 1171.68 868.521L1155.05 839.668Z" fill="#F7F7F7"/>
<path d="M1155.05 872.993L1155.05 906.318C1161.11 906.318 1166.8 904.671 1171.68 901.847L1155.05 872.993Z" fill="#F7F7F7"/>
<path d="M1155.05 906.318L1155.05 939.643C1161.11 939.643 1166.8 937.996 1171.68 935.172L1155.05 906.318Z" fill="#F7F7F7"/>
<path d="M1155.05 939.645L1155.05 972.969C1161.11 972.969 1166.8 971.322 1171.68 968.498L1155.05 939.645Z" fill="#F7F7F7"/>
<path d="M1155.05 972.97L1155.05 1039.62C1167.17 1039.62 1178.54 1036.37 1188.31 1030.68L1155.05 972.97Z" fill="#F7F7F7"/>
<path d="M1038.65 839.668L1038.65 872.993C1044.71 872.993 1050.39 871.345 1055.28 868.521L1038.65 839.668Z" fill="#F7F7F7"/>
<path d="M1038.65 872.993L1038.65 906.318C1044.71 906.318 1050.39 904.671 1055.28 901.847L1038.65 872.993Z" fill="#F7F7F7"/>
<path d="M1038.65 906.318L1038.65 939.643C1044.71 939.643 1050.39 937.996 1055.28 935.172L1038.65 906.318Z" fill="#F7F7F7"/>
<path d="M1038.65 939.645L1038.65 972.969C1044.71 972.969 1050.39 971.322 1055.28 968.498L1038.65 939.645Z" fill="#F7F7F7"/>
<path d="M1038.65 972.97L1038.65 1006.29C1044.71 1006.29 1050.39 1004.65 1055.28 1001.82L1038.65 972.97Z" fill="#F7F7F7"/>
<path d="M1038.65 1006.29L1038.65 1039.62C1044.71 1039.62 1050.39 1037.97 1055.28 1035.15L1038.65 1006.29Z" fill="#F7F7F7"/>
<path d="M1038.65 1039.62L1038.65 1072.94C1044.71 1072.94 1050.39 1071.29 1055.28 1068.47L1038.65 1039.62Z" fill="#F7F7F7"/>
<path d="M955.504 939.645L955.504 972.969C961.564 972.969 967.248 971.322 972.133 968.498L955.504 939.645Z" fill="#F7F7F7"/>
<path d="M955.504 972.97L955.504 1006.29C961.564 1006.29 967.248 1004.65 972.133 1001.82L955.504 972.97Z" fill="#F7F7F7"/>
<path d="M955.504 1006.29L955.504 1039.62C961.564 1039.62 967.248 1037.97 972.133 1035.15L955.504 1006.29Z" fill="#F7F7F7"/>
<path d="M955.504 1039.62L955.504 1072.94C961.564 1072.94 967.248 1071.29 972.133 1068.47L955.504 1039.62Z" fill="#F7F7F7"/>
<path d="M955.504 1072.94L955.504 1106.27C961.564 1106.27 967.248 1104.62 972.133 1101.79L955.504 1072.94Z" fill="#F7F7F7"/>
<path d="M1038.65 1072.94L1038.65 1106.27C1044.71 1106.27 1050.39 1104.62 1055.28 1101.79L1038.65 1072.94Z" fill="#F7F7F7"/>
<path d="M872.357 972.97L872.357 1006.29C878.417 1006.29 884.101 1004.65 888.986 1001.82L872.357 972.97Z" fill="#F7F7F7"/>
<path d="M872.357 1006.29L872.357 1039.62C878.417 1039.62 884.101 1037.97 888.986 1035.15L872.357 1006.29Z" fill="#F7F7F7"/>
<path d="M872.357 1039.62L872.357 1072.94C878.417 1072.94 884.101 1071.29 888.986 1068.47L872.357 1039.62Z" fill="#F7F7F7"/>
<path d="M872.357 1072.94L872.357 1106.27C878.417 1106.27 884.101 1104.62 888.986 1101.79L872.357 1072.94Z" fill="#F7F7F7"/>
<path d="M1678.92 443.957C1678.92 446.245 1680.77 448.1 1683.06 448.1C1685.34 448.1 1687.19 446.245 1687.19 443.957C1687.19 441.67 1685.34 439.815 1683.06 439.815C1680.77 439.815 1678.92 441.67 1678.92 443.957Z" fill="#F7F7F7"/>
<path d="M1678.92 610.584C1678.92 612.872 1680.77 614.727 1683.06 614.727C1685.34 614.727 1687.19 612.872 1687.19 610.584C1687.19 608.297 1685.34 606.442 1683.06 606.442C1680.77 606.442 1678.92 608.297 1678.92 610.584Z" fill="#F7F7F7"/>
<path d="M1678.92 777.206C1678.92 779.493 1680.77 781.348 1683.06 781.348C1685.34 781.348 1687.19 779.493 1687.19 777.206C1687.19 774.918 1685.34 773.063 1683.06 773.063C1680.77 773.063 1678.92 774.918 1678.92 777.206Z" fill="#F7F7F7"/>
<path d="M1678.92 943.833C1678.92 946.12 1680.78 947.975 1683.06 947.975C1685.34 947.975 1687.19 946.12 1687.19 943.833C1687.19 941.545 1685.34 939.69 1683.06 939.69C1680.78 939.69 1678.92 941.545 1678.92 943.833Z" fill="#F7F7F7"/>
<path d="M1512.63 343.982C1512.63 346.27 1514.48 348.124 1516.76 348.124C1519.05 348.124 1520.9 346.27 1520.9 343.982C1520.9 341.694 1519.05 339.84 1516.76 339.84C1514.48 339.84 1512.63 341.694 1512.63 343.982Z" fill="#F7F7F7"/>
<path d="M1545.89 144.035C1545.89 146.322 1547.74 148.177 1550.02 148.177C1552.31 148.177 1554.16 146.322 1554.16 144.035C1554.16 141.747 1552.31 139.893 1550.02 139.893C1547.74 139.893 1545.89 141.747 1545.89 144.035Z" fill="#F7F7F7"/>
<path d="M1512.63 110.709C1512.63 112.997 1514.48 114.852 1516.76 114.852C1519.05 114.852 1520.9 112.997 1520.9 110.709C1520.9 108.422 1519.05 106.567 1516.76 106.567C1514.48 106.567 1512.63 108.422 1512.63 110.709Z" fill="#F7F7F7"/>
<path d="M1512.63 210.685C1512.63 212.973 1514.48 214.827 1516.76 214.827C1519.05 214.827 1520.9 212.973 1520.9 210.685C1520.9 208.397 1519.05 206.543 1516.76 206.543C1514.48 206.543 1512.63 208.397 1512.63 210.685Z" fill="#F7F7F7"/>
<path d="M1379.55 210.685C1379.55 212.973 1381.4 214.827 1383.68 214.827C1385.96 214.827 1387.82 212.973 1387.82 210.685C1387.82 208.397 1385.96 206.543 1383.68 206.543C1381.4 206.543 1379.55 208.397 1379.55 210.685Z" fill="#F7F7F7"/>
<path d="M1246.52 210.685C1246.52 212.973 1248.37 214.827 1250.65 214.827C1252.93 214.827 1254.78 212.973 1254.78 210.685C1254.78 208.397 1252.93 206.543 1250.65 206.543C1248.37 206.543 1246.52 208.397 1246.52 210.685Z" fill="#F7F7F7"/>
<path d="M1113.48 210.685C1113.48 212.973 1115.33 214.827 1117.61 214.827C1119.9 214.827 1121.75 212.973 1121.75 210.685C1121.75 208.397 1119.9 206.543 1117.61 206.543C1115.33 206.543 1113.48 208.397 1113.48 210.685Z" fill="#F7F7F7"/>
<path d="M1113.48 610.584C1113.48 612.872 1115.33 614.727 1117.61 614.727C1119.9 614.727 1121.75 612.872 1121.75 610.584C1121.75 608.297 1119.9 606.442 1117.61 606.442C1115.33 606.442 1113.48 608.297 1113.48 610.584Z" fill="#F7F7F7"/>
<path d="M714.332 610.584C714.332 612.872 716.183 614.727 718.466 614.727C720.749 614.727 722.6 612.872 722.6 610.584C722.6 608.297 720.749 606.442 718.466 606.442C716.183 606.442 714.332 608.297 714.332 610.584Z" fill="#F7F7F7"/>
<path d="M714.332 1077.13C714.332 1079.42 716.183 1081.28 718.466 1081.28C720.749 1081.28 722.6 1079.42 722.6 1077.13C722.6 1074.85 720.749 1072.99 718.466 1072.99C716.183 1072.99 714.332 1074.85 714.332 1077.13Z" fill="#F7F7F7"/>
<path d="M315.179 610.584C315.179 612.872 317.029 614.727 319.312 614.727C321.595 614.727 323.446 612.872 323.446 610.584C323.446 608.297 321.595 606.442 319.312 606.442C317.029 606.442 315.179 608.297 315.179 610.584Z" fill="#F7F7F7"/>
<path d="M980.399 210.685C980.399 212.973 982.25 214.827 984.533 214.827C986.816 214.827 988.667 212.973 988.667 210.685C988.667 208.397 986.816 206.543 984.533 206.543C982.25 206.543 980.399 208.397 980.399 210.685Z" fill="#F7F7F7"/>
<path d="M847.363 210.685C847.363 212.973 849.213 214.827 851.497 214.827C853.78 214.827 855.63 212.973 855.63 210.685C855.63 208.397 853.78 206.543 851.497 206.543C849.213 206.543 847.363 208.397 847.363 210.685Z" fill="#F7F7F7"/>
<path d="M714.331 210.685C714.331 212.973 716.182 214.827 718.465 214.827C720.748 214.827 722.599 212.973 722.599 210.685C722.599 208.397 720.748 206.543 718.465 206.543C716.182 206.543 714.331 208.397 714.331 210.685Z" fill="#F7F7F7"/>
<path d="M581.296 210.685C581.296 212.973 583.147 214.827 585.43 214.827C587.713 214.827 589.563 212.973 589.563 210.685C589.563 208.397 587.713 206.543 585.43 206.543C583.147 206.543 581.296 208.397 581.296 210.685Z" fill="#F7F7F7"/>
<path d="M448.214 210.685C448.214 212.973 450.065 214.827 452.348 214.827C454.631 214.827 456.481 212.973 456.481 210.685C456.481 208.397 454.631 206.543 452.348 206.543C450.065 206.543 448.214 208.397 448.214 210.685Z" fill="#F7F7F7"/>
<path d="M315.179 210.685C315.179 212.973 317.029 214.827 319.312 214.827C321.595 214.827 323.446 212.973 323.446 210.685C323.446 208.397 321.595 206.543 319.312 206.543C317.029 206.543 315.179 208.397 315.179 210.685Z" fill="#F7F7F7"/>
<path d="M1612.41 144.035C1612.41 146.322 1614.26 148.177 1616.54 148.177C1618.82 148.177 1620.67 146.322 1620.67 144.035C1620.67 141.747 1618.82 139.893 1616.54 139.893C1614.26 139.893 1612.41 141.747 1612.41 144.035Z" fill="#F7F7F7"/>
<path d="M1645.66 110.709C1645.66 112.997 1647.52 114.852 1649.8 114.852C1652.08 114.852 1653.93 112.997 1653.93 110.709C1653.93 108.422 1652.08 106.567 1649.8 106.567C1647.52 106.567 1645.66 108.422 1645.66 110.709Z" fill="#F7F7F7"/>
<path d="M1579.15 110.709C1579.15 112.997 1581 114.852 1583.28 114.852C1585.56 114.852 1587.42 112.997 1587.42 110.709C1587.42 108.422 1585.56 106.567 1583.28 106.567C1581 106.567 1579.15 108.422 1579.15 110.709Z" fill="#F7F7F7"/>
<path d="M1479.32 144.035C1479.32 146.322 1481.18 148.177 1483.46 148.177C1485.74 148.177 1487.59 146.322 1487.59 144.035C1487.59 141.747 1485.74 139.893 1483.46 139.893C1481.18 139.893 1479.32 141.747 1479.32 144.035Z" fill="#F7F7F7"/>
<path d="M1446.07 110.709C1446.07 112.997 1447.92 114.852 1450.2 114.852C1452.48 114.852 1454.33 112.997 1454.33 110.709C1454.33 108.422 1452.48 106.567 1450.2 106.567C1447.92 106.567 1446.07 108.422 1446.07 110.709Z" fill="#F7F7F7"/>
<path d="M1446.07 343.982C1446.07 346.27 1447.92 348.124 1450.2 348.124C1452.48 348.124 1454.33 346.27 1454.33 343.982C1454.33 341.694 1452.48 339.84 1450.2 339.84C1447.92 339.84 1446.07 341.694 1446.07 343.982Z" fill="#F7F7F7"/>
<path d="M1313.03 343.982C1313.03 346.27 1314.88 348.124 1317.16 348.124C1319.45 348.124 1321.3 346.27 1321.3 343.982C1321.3 341.694 1319.45 339.84 1317.16 339.84C1314.88 339.84 1313.03 341.694 1313.03 343.982Z" fill="#F7F7F7"/>
<path d="M1313.03 1077.13C1313.03 1079.42 1314.88 1081.28 1317.16 1081.28C1319.45 1081.28 1321.3 1079.42 1321.3 1077.13C1321.3 1074.85 1319.45 1072.99 1317.16 1072.99C1314.88 1072.99 1313.03 1074.85 1313.03 1077.13Z" fill="#F7F7F7"/>
<path d="M1180 343.982C1180 346.27 1181.85 348.124 1184.13 348.124C1186.41 348.124 1188.27 346.27 1188.27 343.982C1188.27 341.694 1186.41 339.84 1184.13 339.84C1181.85 339.84 1180 341.694 1180 343.982Z" fill="#F7F7F7"/>
<path d="M1046.96 343.982C1046.96 346.27 1048.81 348.124 1051.1 348.124C1053.38 348.124 1055.23 346.27 1055.23 343.982C1055.23 341.694 1053.38 339.84 1051.1 339.84C1048.81 339.84 1046.96 341.694 1046.96 343.982Z" fill="#F7F7F7"/>
<path d="M913.881 343.982C913.881 346.27 915.732 348.124 918.015 348.124C920.298 348.124 922.148 346.27 922.148 343.982C922.148 341.694 920.298 339.84 918.015 339.84C915.732 339.84 913.881 341.694 913.881 343.982Z" fill="#F7F7F7"/>
<path d="M780.85 343.982C780.85 346.27 782.7 348.124 784.983 348.124C787.266 348.124 789.117 346.27 789.117 343.982C789.117 341.694 787.266 339.84 784.983 339.84C782.7 339.84 780.85 341.694 780.85 343.982Z" fill="#F7F7F7"/>
<path d="M647.814 343.982C647.814 346.27 649.665 348.124 651.948 348.124C654.231 348.124 656.082 346.27 656.082 343.982C656.082 341.694 654.231 339.84 651.948 339.84C649.665 339.84 647.814 341.694 647.814 343.982Z" fill="#F7F7F7"/>
<path d="M514.778 343.982C514.778 346.27 516.629 348.124 518.912 348.124C521.195 348.124 523.046 346.27 523.046 343.982C523.046 341.694 521.195 339.84 518.912 339.84C516.629 339.84 514.778 341.694 514.778 343.982Z" fill="#F7F7F7"/>
<path d="M381.696 343.982C381.696 346.27 383.547 348.124 385.83 348.124C388.113 348.124 389.964 346.27 389.964 343.982C389.964 341.694 388.113 339.84 385.83 339.84C383.547 339.84 381.696 341.694 381.696 343.982Z" fill="#F7F7F7"/>
<path d="M1412.81 144.035C1412.81 146.322 1414.66 148.177 1416.94 148.177C1419.22 148.177 1421.07 146.322 1421.07 144.035C1421.07 141.747 1419.22 139.893 1416.94 139.893C1414.66 139.893 1412.81 141.747 1412.81 144.035Z" fill="#F7F7F7"/>
<path d="M1379.55 110.709C1379.55 112.997 1381.4 114.852 1383.68 114.852C1385.96 114.852 1387.82 112.997 1387.82 110.709C1387.82 108.422 1385.96 106.567 1383.68 106.567C1381.4 106.567 1379.55 108.422 1379.55 110.709Z" fill="#F7F7F7"/>
<path d="M1346.29 144.035C1346.29 146.322 1348.14 148.177 1350.42 148.177C1352.71 148.177 1354.56 146.322 1354.56 144.035C1354.56 141.747 1352.71 139.893 1350.42 139.893C1348.14 139.893 1346.29 141.747 1346.29 144.035Z" fill="#F7F7F7"/>
<path d="M1313.03 110.709C1313.03 112.997 1314.88 114.852 1317.16 114.852C1319.45 114.852 1321.3 112.997 1321.3 110.709C1321.3 108.422 1319.45 106.567 1317.16 106.567C1314.88 106.567 1313.03 108.422 1313.03 110.709Z" fill="#F7F7F7"/>
<path d="M1279.78 144.035C1279.78 146.322 1281.63 148.177 1283.91 148.177C1286.19 148.177 1288.04 146.322 1288.04 144.035C1288.04 141.747 1286.19 139.893 1283.91 139.893C1281.63 139.893 1279.78 141.747 1279.78 144.035Z" fill="#F7F7F7"/>
<path d="M1246.52 110.709C1246.52 112.997 1248.37 114.852 1250.65 114.852C1252.93 114.852 1254.78 112.997 1254.78 110.709C1254.78 108.422 1252.93 106.567 1250.65 106.567C1248.37 106.567 1246.52 108.422 1246.52 110.709Z" fill="#F7F7F7"/>
<path d="M1213.26 144.035C1213.26 146.322 1215.11 148.177 1217.39 148.177C1219.67 148.177 1221.52 146.322 1221.52 144.035C1221.52 141.747 1219.67 139.893 1217.39 139.893C1215.11 139.893 1213.26 141.747 1213.26 144.035Z" fill="#F7F7F7"/>
<path d="M1180 110.709C1180 112.997 1181.85 114.852 1184.13 114.852C1186.41 114.852 1188.27 112.997 1188.27 110.709C1188.27 108.422 1186.41 106.567 1184.13 106.567C1181.85 106.567 1180 108.422 1180 110.709Z" fill="#F7F7F7"/>
<path d="M1146.74 144.035C1146.74 146.322 1148.59 148.177 1150.87 148.177C1153.16 148.177 1155.01 146.322 1155.01 144.035C1155.01 141.747 1153.16 139.893 1150.87 139.893C1148.59 139.893 1146.74 141.747 1146.74 144.035Z" fill="#F7F7F7"/>
<path d="M1113.48 110.709C1113.48 112.997 1115.33 114.852 1117.61 114.852C1119.9 114.852 1121.75 112.997 1121.75 110.709C1121.75 108.422 1119.9 106.567 1117.61 106.567C1115.33 106.567 1113.48 108.422 1113.48 110.709Z" fill="#F7F7F7"/>
<path d="M1080.22 144.035C1080.22 146.322 1082.07 148.177 1084.36 148.177C1086.64 148.177 1088.49 146.322 1088.49 144.035C1088.49 141.747 1086.64 139.893 1084.36 139.893C1082.07 139.893 1080.22 141.747 1080.22 144.035Z" fill="#F7F7F7"/>
<path d="M1046.96 110.709C1046.96 112.997 1048.81 114.852 1051.1 114.852C1053.38 114.852 1055.23 112.997 1055.23 110.709C1055.23 108.422 1053.38 106.567 1051.1 106.567C1048.81 106.567 1046.96 108.422 1046.96 110.709Z" fill="#F7F7F7"/>
<path d="M1013.7 144.035C1013.7 146.322 1015.55 148.177 1017.84 148.177C1020.12 148.177 1021.97 146.322 1021.97 144.035C1021.97 141.747 1020.12 139.893 1017.84 139.893C1015.55 139.893 1013.7 141.747 1013.7 144.035Z" fill="#F7F7F7"/>
<path d="M980.399 110.709C980.399 112.997 982.25 114.852 984.533 114.852C986.816 114.852 988.667 112.997 988.667 110.709C988.667 108.422 986.816 106.567 984.533 106.567C982.25 106.567 980.399 108.422 980.399 110.709Z" fill="#F7F7F7"/>
<path d="M947.14 144.035C947.14 146.322 948.991 148.177 951.274 148.177C953.557 148.177 955.408 146.322 955.408 144.035C955.408 141.747 953.557 139.893 951.274 139.893C948.991 139.893 947.14 141.747 947.14 144.035Z" fill="#F7F7F7"/>
<path d="M913.881 110.709C913.881 112.997 915.732 114.852 918.015 114.852C920.298 114.852 922.148 112.997 922.148 110.709C922.148 108.422 920.298 106.567 918.015 106.567C915.732 106.567 913.881 108.422 913.881 110.709Z" fill="#F7F7F7"/>
<path d="M880.622 144.035C880.622 146.322 882.473 148.177 884.756 148.177C887.039 148.177 888.89 146.322 888.89 144.035C888.89 141.747 887.039 139.893 884.756 139.893C882.473 139.893 880.622 141.747 880.622 144.035Z" fill="#F7F7F7"/>
<path d="M847.363 110.709C847.363 112.997 849.213 114.852 851.497 114.852C853.78 114.852 855.63 112.997 855.63 110.709C855.63 108.422 853.78 106.567 851.497 106.567C849.213 106.567 847.363 108.422 847.363 110.709Z" fill="#F7F7F7"/>
<path d="M814.104 144.035C814.104 146.322 815.955 148.177 818.238 148.177C820.521 148.177 822.372 146.322 822.372 144.035C822.372 141.747 820.521 139.893 818.238 139.893C815.955 139.893 814.104 141.747 814.104 144.035Z" fill="#F7F7F7"/>
<path d="M780.85 110.709C780.85 112.997 782.7 114.852 784.983 114.852C787.266 114.852 789.117 112.997 789.117 110.709C789.117 108.422 787.266 106.567 784.983 106.567C782.7 106.567 780.85 108.422 780.85 110.709Z" fill="#F7F7F7"/>
<path d="M747.591 144.035C747.591 146.322 749.442 148.177 751.725 148.177C754.008 148.177 755.858 146.322 755.858 144.035C755.858 141.747 754.008 139.893 751.725 139.893C749.442 139.893 747.591 141.747 747.591 144.035Z" fill="#F7F7F7"/>
<path d="M714.331 110.709C714.331 112.997 716.182 114.852 718.465 114.852C720.748 114.852 722.599 112.997 722.599 110.709C722.599 108.422 720.748 106.567 718.465 106.567C716.182 106.567 714.331 108.422 714.331 110.709Z" fill="#F7F7F7"/>
<path d="M681.073 144.035C681.073 146.322 682.924 148.177 685.207 148.177C687.49 148.177 689.34 146.322 689.34 144.035C689.34 141.747 687.49 139.893 685.207 139.893C682.924 139.893 681.073 141.747 681.073 144.035Z" fill="#F7F7F7"/>
<path d="M647.813 110.709C647.813 112.997 649.664 114.852 651.947 114.852C654.23 114.852 656.081 112.997 656.081 110.709C656.081 108.422 654.23 106.567 651.947 106.567C649.664 106.567 647.813 108.422 647.813 110.709Z" fill="#F7F7F7"/>
<path d="M614.555 144.035C614.555 146.322 616.406 148.177 618.689 148.177C620.972 148.177 622.823 146.322 622.823 144.035C622.823 141.747 620.972 139.893 618.689 139.893C616.406 139.893 614.555 141.747 614.555 144.035Z" fill="#F7F7F7"/>
<path d="M581.296 110.709C581.296 112.997 583.147 114.852 585.43 114.852C587.713 114.852 589.563 112.997 589.563 110.709C589.563 108.422 587.713 106.567 585.43 106.567C583.147 106.567 581.296 108.422 581.296 110.709Z" fill="#F7F7F7"/>
<path d="M514.874 110.709C514.874 112.997 516.725 114.852 519.008 114.852C521.291 114.852 523.142 112.997 523.142 110.709C523.142 108.422 521.291 106.567 519.008 106.567C516.725 106.567 514.874 108.422 514.874 110.709Z" fill="#F7F7F7"/>
<path d="M481.615 144.035C481.615 146.322 483.466 148.177 485.749 148.177C488.032 148.177 489.883 146.322 489.883 144.035C489.883 141.747 488.032 139.893 485.749 139.893C483.466 139.893 481.615 141.747 481.615 144.035Z" fill="#F7F7F7"/>
<path d="M548.134 144.035C548.134 146.322 549.984 148.177 552.268 148.177C554.551 148.177 556.401 146.322 556.401 144.035C556.401 141.747 554.551 139.893 552.268 139.893C549.984 139.893 548.134 141.747 548.134 144.035Z" fill="#F7F7F7"/>
<path d="M448.356 110.709C448.356 112.997 450.207 114.852 452.49 114.852C454.773 114.852 456.624 112.997 456.624 110.709C456.624 108.422 454.773 106.567 452.49 106.567C450.207 106.567 448.356 108.422 448.356 110.709Z" fill="#F7F7F7"/>
<path d="M415.098 144.035C415.098 146.322 416.948 148.177 419.231 148.177C421.514 148.177 423.365 146.322 423.365 144.035C423.365 141.747 421.514 139.893 419.231 139.893C416.948 139.893 415.098 141.747 415.098 144.035Z" fill="#F7F7F7"/>
<path d="M381.839 110.709C381.839 112.997 383.69 114.852 385.973 114.852C388.256 114.852 390.106 112.997 390.106 110.709C390.106 108.422 388.256 106.567 385.973 106.567C383.69 106.567 381.839 108.422 381.839 110.709Z" fill="#F7F7F7"/>
<path d="M348.58 144.035C348.58 146.322 350.431 148.177 352.714 148.177C354.997 148.177 356.848 146.322 356.848 144.035C356.848 141.747 354.997 139.893 352.714 139.893C350.431 139.893 348.58 141.747 348.58 144.035Z" fill="#F7F7F7"/>
<path d="M315.275 110.709C315.275 112.997 317.126 114.852 319.409 114.852C321.692 114.852 323.543 112.997 323.543 110.709C323.543 108.422 321.692 106.567 319.409 106.567C317.126 106.567 315.275 108.422 315.275 110.709Z" fill="#F7F7F7"/>
<path d="M282.016 144.035C282.016 146.322 283.867 148.177 286.15 148.177C288.433 148.177 290.284 146.322 290.284 144.035C290.284 141.747 288.433 139.893 286.15 139.893C283.867 139.893 282.016 141.747 282.016 144.035Z" fill="#F7F7F7"/>
<path d="M1512.63 510.609C1512.63 512.896 1514.48 514.751 1516.76 514.751C1519.05 514.751 1520.9 512.896 1520.9 510.609C1520.9 508.321 1519.05 506.467 1516.76 506.467C1514.48 506.467 1512.63 508.321 1512.63 510.609Z" fill="#F7F7F7"/>
<path d="M1512.63 677.235C1512.63 679.522 1514.48 681.377 1516.76 681.377C1519.05 681.377 1520.9 679.522 1520.9 677.235C1520.9 674.947 1519.05 673.093 1516.76 673.093C1514.48 673.093 1512.63 674.947 1512.63 677.235Z" fill="#F7F7F7"/>
<path d="M1512.63 843.856C1512.63 846.144 1514.48 847.998 1516.76 847.998C1519.05 847.998 1520.9 846.144 1520.9 843.856C1520.9 841.568 1519.05 839.714 1516.76 839.714C1514.48 839.714 1512.63 841.568 1512.63 843.856Z" fill="#F7F7F7"/>
<path d="M1512.63 1010.44C1512.63 1012.72 1514.48 1014.58 1516.76 1014.58C1519.05 1014.58 1520.9 1012.72 1520.9 1010.44C1520.9 1008.15 1519.05 1006.29 1516.76 1006.29C1514.48 1006.29 1512.63 1008.15 1512.63 1010.44Z" fill="#F7F7F7"/>
<path d="M-314.293 516.822C-283.524 570.104 -226.073 605.971 -160.213 605.971C-61.9407 605.971 17.7295 526.141 17.7295 427.673C17.7295 329.204 -61.9407 249.375 -160.213 249.375C-258.486 249.375 -338.156 329.204 -338.156 427.673L-160.213 427.673L-314.293 516.822Z" fill="#F7F7F7"/>
<path d="M-154.151 693.567C-169.982 753.063 -154.667 819.148 -108.115 865.793C-38.6383 935.408 74.0556 935.408 143.532 865.793C213.009 796.178 213.009 683.259 143.532 613.644C74.0556 544.029 -38.6383 544.029 -108.115 613.644L17.7321 739.742L-154.151 693.614L-154.151 693.567Z" fill="#F7F7F7"/>
<path d="M106.706 897.328C53.5297 928.158 17.7345 985.724 17.7344 1051.71C17.7344 1150.18 97.4047 1230.01 195.677 1230.01C293.95 1230.01 373.62 1150.18 373.62 1051.71C373.62 953.246 293.95 873.417 195.677 873.417L195.677 1051.71L106.706 897.328Z" fill="#F7F7F7"/>
<path d="M1508.5 -9.08402C1488.53 2.49497 1475.15 24.0526 1475.15 48.811C1475.15 85.7602 1505.02 115.696 1541.9 115.696C1578.77 115.696 1608.65 85.7602 1608.65 48.811C1608.65 11.8617 1578.77 -18.0742 1541.9 -18.0742L1541.9 48.811L1508.55 -9.08402L1508.5 -9.08402Z" fill="#F7F7F7"/>
<path d="M1819.9 -9.08402C1799.93 2.49497 1786.54 24.0526 1786.54 48.811C1786.54 85.7602 1816.42 115.696 1853.29 115.696C1890.17 115.696 1920 85.7132 1920 48.811C1920 11.9088 1890.12 -18.0742 1853.25 -18.0742L1853.25 48.811L1819.9 -9.08402Z" fill="#F7F7F7"/>
<path d="M1639.65 122.287C1619.69 133.866 1606.3 155.424 1606.3 180.182C1606.3 217.131 1636.18 247.067 1673.05 247.067C1709.93 247.067 1739.8 217.131 1739.8 180.182C1739.8 143.233 1709.93 113.297 1673.05 113.297L1673.05 180.182L1639.7 122.287L1639.65 122.287Z" fill="#F7F7F7"/>
<path d="M1418.35 122.287C1398.39 133.866 1385 155.424 1385 180.182C1385 217.131 1414.87 247.067 1451.75 247.067C1488.63 247.067 1518.5 217.131 1518.5 180.182C1518.5 143.233 1488.63 113.297 1451.75 113.297L1451.75 180.182L1418.4 122.287L1418.35 122.287Z" fill="#F7F7F7"/>
<path d="M1065.94 -9.08402C1045.98 2.49497 1032.59 24.0526 1032.59 48.811C1032.59 85.7602 1062.47 115.696 1099.34 115.696C1136.22 115.696 1166.1 85.7602 1166.1 48.811C1166.1 11.8617 1136.22 -18.0742 1099.34 -18.0742L1099.34 48.811L1065.99 -9.08402L1065.94 -9.08402Z" fill="#F7F7F7"/>
<path d="M1197.1 122.287C1177.13 133.866 1163.75 155.424 1163.75 180.182C1163.75 217.131 1193.62 247.067 1230.5 247.067C1267.37 247.067 1297.25 217.131 1297.25 180.182C1297.25 143.233 1267.37 113.297 1230.5 113.297L1230.5 180.182L1197.15 122.287L1197.1 122.287Z" fill="#F7F7F7"/>
<path d="M844.687 -9.08402C824.722 2.49497 811.334 24.0526 811.334 48.811C811.334 85.7602 841.211 115.696 878.086 115.696C914.962 115.696 944.838 85.7602 944.838 48.811C944.838 11.8617 914.962 -18.0742 878.086 -18.0742L878.086 48.811L844.734 -9.08402L844.687 -9.08402Z" fill="#F7F7F7"/>
<path d="M754.543 122.287C734.579 133.866 721.191 155.424 721.191 180.182C721.191 217.131 751.067 247.067 787.943 247.067C824.818 247.067 854.695 217.131 854.695 180.182C854.695 143.233 824.818 113.297 787.943 113.297L787.943 180.182L754.59 122.287L754.543 122.287Z" fill="#F7F7F7"/>
<path d="M402.131 -9.08402C382.166 2.49497 368.778 24.0526 368.778 48.811C368.778 85.7602 398.654 115.696 435.53 115.696C472.406 115.696 502.282 85.7602 502.282 48.811C502.282 11.8617 472.406 -18.0742 435.53 -18.0742L435.53 48.811L402.178 -9.08402L402.131 -9.08402Z" fill="#F7F7F7"/>
<path d="M311.988 122.287C292.024 133.866 278.636 155.424 278.636 180.182C278.635 217.131 308.512 247.067 345.387 247.067C382.263 247.067 412.14 217.131 412.14 180.182C412.14 143.233 382.263 113.297 345.388 113.297L345.388 180.182L312.035 122.287L311.988 122.287Z" fill="#F7F7F7"/>
<path d="M192.669 -9.08402C172.704 2.49497 159.316 24.0526 159.316 48.811C159.316 85.7602 189.193 115.696 226.068 115.696C262.944 115.696 292.82 85.7602 292.82 48.811C292.82 11.8617 262.944 -18.0742 226.068 -18.0742L226.068 48.811L192.716 -9.08402L192.669 -9.08402Z" fill="#F7F7F7"/>
<path d="M-28.633 -9.08402C-48.5976 2.49497 -61.9856 24.0526 -61.9856 48.811C-61.9856 85.7602 -32.1091 115.696 4.76655 115.696C41.6422 115.696 71.5186 85.7602 71.5186 48.811C71.5186 11.8617 41.6422 -18.0742 4.76655 -18.0742L4.76655 48.811L-28.586 -9.08402L-28.633 -9.08402Z" fill="#F7F7F7"/>
</g>
</g>
</svg>
