<svg width="513" height="148" viewBox="0 0 513 148" fill="none" xmlns="http://www.w3.org/2000/svg">
<path d="M134.182 60.6473C135.07 71.0046 133.935 78.0821 126.439 80.5974C122.838 81.8058 115.045 83.3347 111.988 79.2658C110.237 76.923 109.078 78.2794 105.897 77.8108C102.937 77.071 101.581 70.4127 101.581 70.4127C101.359 68.9085 100.545 68.9824 100.077 69.2537C89.6947 75.2955 77.192 69.7716 77.0687 71.0046C75.7617 76.7997 70.1638 77.0957 69.276 75.764C69.7446 78.2547 66.1688 80.7947 64.9358 80.3755C60.423 78.6739 60.1271 77.071 57.0446 76.4052C51.3727 74.7776 52.1865 72.1143 46.9832 72.4842C43.1855 72.7555 41.8785 72.3116 40.8674 71.6211C36.4779 68.292 39.2152 62.7681 41.336 60.7706C39.955 56.8989 45.0597 51.3257 45.9721 47.8486C44.1966 48.0459 41.4593 47.9719 37.1191 47.1088C34.8503 46.6403 35.5161 47.676 31.6691 47.7746C26.4905 47.9719 24.4684 47.7006 22.7421 47.1581C21.7311 46.8375 16.799 47.5773 14.111 47.0348C5.80054 46.8869 6.14579 39.3408 6.24443 38.6257C6.26909 38.3298 6.36773 38.3051 7.872 38.1078C9.94347 37.9845 13.5192 36.4556 16.6017 36.5542C17.7854 36.5542 19.5856 35.7897 22.4955 35.7897C25.9973 34.7047 28.7346 35.3212 32.7049 33.2991C33.2967 33.0278 33.2474 33.6443 34.6037 33.3484C35.3435 33.1758 35.1709 32.6086 37.3657 32.5839C39.881 32.5593 43.0375 31.8934 46.0461 31.4989C49.0793 31.1043 51.348 30.1919 58.6228 28.6136C61.6067 27.9724 63.8015 26.2955 66.1442 27.1093C69.7199 28.3423 82.0501 31.9674 95.3666 36.5296C95.6379 36.6282 96.8215 37.0967 97.3147 35.3705C98.3751 32.5839 99.2876 33.2497 104.244 32.7565C107.746 32.1647 105.625 31.8194 108.683 29.3781C111.174 27.3806 120.199 23.5583 126.241 29.9453C130.729 34.7047 133.195 49.6735 134.132 60.6226L134.182 60.6473Z" fill="#75CFFF"/>
<path d="M8.21773 39.8822C8.29171 42.2496 12.5826 41.1152 14.2595 40.548C15.2706 40.2028 15.8378 38.4766 14.7527 38.23L8.41501 39.6356C8.41501 39.6356 8.19307 39.8082 8.21773 39.8576V39.8822Z" fill="white"/>
<path d="M46.2681 62.7922C48.8328 62.8415 48.7341 63.9019 50.0411 63.5567C51.792 63.0881 50.1151 62.6196 56.2062 61.9784C57.9571 61.7565 58.9188 61.5099 60.2012 62.1017C60.719 61.5345 62.0507 60.6961 63.1111 61.4112C65.2565 60.6714 64.4427 60.5235 68.2897 60.8934C73.4684 61.3866 74.2082 59.2165 76.4029 57.7615C76.9948 57.3916 77.3647 57.1204 78.6224 57.145C88.0426 57.071 84.023 57.5642 96.797 55.1229C101.137 53.7172 102.567 51.0786 101.606 45.0615C100.373 38.2553 99.0164 39.3896 95.0461 38.2553C78.9183 33.4465 67.9445 28.9337 63.9988 29.7475C52.7291 31.3504 55.0718 33.1506 40.1277 34.6055C35.3436 34.6055 35.7875 37.0223 33.9873 36.9729C32.557 36.4057 33.5681 35.5673 29.0553 36.5537C19.9063 38.5758 17.8595 37.2442 17.2183 38.8224C16.3306 40.9432 16.5278 42.1516 10.4614 42.4228C9.96822 42.4475 9.82026 42.4475 9.49967 42.4228C8.73521 42.3489 8.75987 42.7928 9.549 43.2366C10.1902 43.6065 15.3935 45.3574 20.9914 43.7052C24.1725 42.7681 22.6436 44.2477 28.0195 43.5572C30.3622 43.0887 31.8172 42.9161 32.557 42.6694C35.023 43.2613 39.6098 42.7434 41.0401 42.2009C42.791 41.5104 43.5555 40.8199 45.2817 41.4858C47.0079 42.1762 50.707 42.9407 55.9349 41.6091C62.026 40.0801 61.5575 38.9211 62.2233 39.291C63.8015 40.2034 61.1136 42.5955 64.4674 44.5436C66.1936 45.5547 67.254 40.524 68.8076 40.4007C69.7447 40.4007 70.0406 41.2392 69.72 42.2995C69.5721 42.8174 68.0924 45.7766 69.7693 46.7137C72.5066 48.2427 76.3043 42.1269 80.0527 43.9764C80.9404 44.4943 80.2006 45.5054 79.1896 45.5054C77.488 45.5054 74.874 47.5029 73.8383 48.6619C72.482 50.2648 68.3144 52.9528 66.7854 53.8405C61.3355 56.9477 59.2147 55.4188 58.3516 57.0217C57.6118 58.2301 55.6143 56.7998 53.5182 56.7505C49.5726 56.6272 41.1388 60.918 42.2238 62.7676C42.6184 63.3594 43.2349 63.2361 43.9994 62.9895C44.8132 62.7429 45.1337 62.6936 46.2435 62.7182L46.2681 62.7922Z" fill="white"/>
<path d="M49.03 67.2804C47.8956 65.4802 47.7723 65.2336 45.8488 65.061C44.1719 64.913 39.6344 66.9105 40.5222 68.8093C41.0894 69.3765 43.0622 69.1546 44.3692 69.2779C45.7255 69.4258 49.9177 69.3519 49.03 67.2557V67.2804Z" fill="white"/>
<path d="M109.004 75.443C107.105 75.591 106.736 74.4566 106.267 73.2729C105.626 71.5467 105.971 64.0254 104.935 54.7038C103.875 45.4069 103.258 42.7929 102.173 37.8362C101.902 36.6278 100.718 35.1975 102.395 34.9016C107.87 33.8905 109.522 33.2247 110.977 37.4663C112.654 42.423 115.342 62.1758 115.342 72.7058C114.997 73.5935 116.328 75.0731 109.004 75.443Z" fill="white"/>
<rect x="153.987" y="7.67871" width="351.05" height="132.284" rx="30" fill="#75CFFF"/>
<path d="M196.808 36.5078V40.343H183.401V36.5078H196.808ZM186.996 30.6271H191.774V53.8462C191.774 54.773 191.913 55.4708 192.19 55.9396C192.467 56.3977 192.824 56.712 193.26 56.8824C193.708 57.0422 194.193 57.1221 194.715 57.1221C195.098 57.1221 195.434 57.0955 195.721 57.0422C196.009 56.9889 196.233 56.9463 196.392 56.9144L197.255 60.8615C196.978 60.968 196.584 61.0745 196.073 61.1811C195.561 61.2983 194.922 61.3622 194.155 61.3728C192.898 61.3941 191.726 61.1704 190.64 60.7017C189.553 60.2329 188.674 59.5085 188.003 58.5284C187.332 57.5483 186.996 56.3178 186.996 54.837V30.6271ZM202.093 61.0532V36.5078H206.712V40.4069H206.967C207.415 39.0859 208.203 38.0472 209.332 37.2908C210.472 36.5237 211.761 36.1402 213.2 36.1402C213.498 36.1402 213.849 36.1509 214.254 36.1722C214.67 36.1935 214.995 36.2201 215.229 36.2521V40.8224C215.037 40.7691 214.696 40.7105 214.206 40.6466C213.716 40.572 213.226 40.5348 212.736 40.5348C211.607 40.5348 210.6 40.7745 209.716 41.2539C208.842 41.7226 208.15 42.3778 207.638 43.2194C207.127 44.0504 206.871 44.9985 206.871 46.0639V61.0532H202.093ZM223.131 70.2578C222.417 70.2578 221.768 70.1992 221.182 70.082C220.596 69.9755 220.159 69.8583 219.871 69.7304L221.022 65.8153C221.895 66.0497 222.673 66.1509 223.355 66.1189C224.037 66.087 224.639 65.8313 225.161 65.3519C225.693 64.8725 226.162 64.0894 226.567 63.0028L227.158 61.3728L218.177 36.5078H223.291L229.507 55.5561H229.763L235.979 36.5078H241.109L230.993 64.3291C230.525 65.6076 229.928 66.6889 229.204 67.5731C228.479 68.468 227.616 69.1392 226.615 69.5866C225.613 70.034 224.452 70.2578 223.131 70.2578ZM267.848 61.5486C265.472 61.5486 263.426 61.0106 261.711 59.9346C260.007 58.848 258.696 57.3512 257.78 55.4442C256.864 53.5372 256.406 51.3533 256.406 48.8924C256.406 46.3995 256.875 44.1995 257.812 42.2926C258.75 40.375 260.071 38.8782 261.775 37.8022C263.48 36.7262 265.488 36.1882 267.8 36.1882C269.664 36.1882 271.326 36.5344 272.785 37.2269C274.245 37.9087 275.422 38.8675 276.317 40.1033C277.223 41.3391 277.761 42.7826 277.931 44.4339H273.281C273.025 43.2833 272.439 42.2926 271.523 41.4616C270.617 40.6306 269.403 40.2152 267.879 40.2152C266.548 40.2152 265.381 40.5667 264.38 41.2698C263.389 41.9623 262.617 42.9531 262.063 44.2421C261.509 45.5206 261.232 47.0333 261.232 48.7805C261.232 50.5703 261.503 52.115 262.047 53.4147C262.59 54.7144 263.357 55.7212 264.348 56.435C265.349 57.1487 266.527 57.5056 267.879 57.5056C268.785 57.5056 269.605 57.3405 270.34 57.0103C271.086 56.6693 271.709 56.1846 272.21 55.5561C272.721 54.9275 273.078 54.1711 273.281 53.2869H277.931C277.761 54.8742 277.244 56.2911 276.381 57.5376C275.518 58.784 274.362 59.7642 272.913 60.4779C271.475 61.1917 269.786 61.5486 267.848 61.5486ZM287.819 46.4794V61.0532H283.041V28.3259H287.755V40.5028H288.058C288.634 39.1818 289.513 38.1324 290.695 37.3547C291.878 36.577 293.422 36.1882 295.329 36.1882C297.013 36.1882 298.483 36.5344 299.74 37.2269C301.008 37.9193 301.988 38.9527 302.68 40.327C303.383 41.6907 303.735 43.3952 303.735 45.4407V61.0532H298.957V46.0159C298.957 44.2155 298.493 42.8199 297.567 41.8291C296.64 40.8277 295.351 40.327 293.699 40.327C292.57 40.327 291.558 40.5667 290.663 41.0461C289.779 41.5255 289.081 42.2286 288.57 43.1555C288.069 44.0717 287.819 45.1796 287.819 46.4794ZM317.254 61.5965C315.699 61.5965 314.292 61.3089 313.035 60.7336C311.778 60.1477 310.782 59.3007 310.047 58.1928C309.323 57.0848 308.96 55.7265 308.96 54.1179C308.96 52.7329 309.227 51.593 309.759 50.6981C310.292 49.8032 311.011 49.0948 311.917 48.5728C312.822 48.0507 313.834 47.6566 314.953 47.3902C316.072 47.1239 317.211 46.9215 318.373 46.783C319.843 46.6125 321.036 46.474 321.952 46.3675C322.868 46.2503 323.534 46.0639 323.95 45.8082C324.365 45.5525 324.573 45.137 324.573 44.5617V44.4499C324.573 43.0543 324.179 41.973 323.39 41.2059C322.613 40.4389 321.451 40.0554 319.907 40.0554C318.298 40.0554 317.03 40.4122 316.103 41.126C315.187 41.8291 314.553 42.6122 314.202 43.4751L309.711 42.4524C310.244 40.9609 311.022 39.7571 312.045 38.8409C313.078 37.914 314.266 37.2429 315.608 36.8274C316.95 36.4012 318.362 36.1882 319.843 36.1882C320.823 36.1882 321.862 36.3054 322.959 36.5397C324.067 36.7634 325.1 37.1789 326.059 37.7862C327.029 38.3934 327.822 39.2617 328.44 40.3909C329.058 41.5095 329.367 42.9637 329.367 44.7535V61.0532H324.701V57.6974H324.509C324.2 58.3153 323.737 58.9225 323.119 59.5191C322.501 60.1157 321.707 60.6111 320.738 61.0053C319.768 61.3995 318.607 61.5965 317.254 61.5965ZM318.293 57.7613C319.614 57.7613 320.743 57.5003 321.681 56.9783C322.629 56.4563 323.348 55.7745 323.838 54.9328C324.339 54.0806 324.589 53.1697 324.589 52.2002V49.0362C324.418 49.2066 324.088 49.3664 323.598 49.5156C323.119 49.6541 322.57 49.7766 321.952 49.8831C321.334 49.979 320.732 50.0696 320.146 50.1548C319.561 50.2294 319.07 50.2933 318.676 50.3465C317.749 50.4637 316.902 50.6608 316.135 50.9378C315.379 51.2148 314.772 51.6143 314.314 52.1363C313.866 52.6477 313.643 53.3295 313.643 54.1818C313.643 55.3643 314.079 56.2592 314.953 56.8664C315.826 57.463 316.94 57.7613 318.293 57.7613ZM340.509 46.4794V61.0532H335.731V36.5078H340.317V40.5028H340.621C341.186 39.2031 342.07 38.159 343.274 37.3707C344.488 36.5823 346.017 36.1882 347.86 36.1882C349.533 36.1882 350.997 36.5397 352.254 37.2429C353.512 37.9353 354.486 38.9687 355.179 40.343C355.871 41.7173 356.218 43.4165 356.218 45.4407V61.0532H351.439V46.0159C351.439 44.2368 350.976 42.8465 350.049 41.8451C349.122 40.8331 347.849 40.327 346.23 40.327C345.122 40.327 344.137 40.5667 343.274 41.0461C342.421 41.5255 341.745 42.2286 341.244 43.1555C340.754 44.0717 340.509 45.1796 340.509 46.4794ZM372.917 70.7691C370.967 70.7691 369.289 70.5135 367.883 70.0021C366.487 69.4907 365.348 68.8142 364.463 67.9726C363.579 67.131 362.919 66.2095 362.482 65.2081L366.589 63.5142C366.876 63.9829 367.26 64.4783 367.739 65.0003C368.229 65.533 368.89 65.9858 369.721 66.3586C370.562 66.7315 371.644 66.9179 372.965 66.9179C374.776 66.9179 376.273 66.4758 377.455 65.5916C378.638 64.718 379.229 63.3224 379.229 61.4048V56.5788H378.925C378.638 57.1008 378.222 57.6814 377.679 58.3206C377.146 58.9598 376.411 59.5138 375.474 59.9826C374.536 60.4513 373.316 60.6857 371.814 60.6857C369.875 60.6857 368.128 60.2329 366.573 59.3274C365.028 58.4112 363.803 57.0635 362.897 55.2844C362.002 53.4946 361.555 51.2947 361.555 48.6846C361.555 46.0745 361.997 43.8373 362.881 41.973C363.776 40.1086 365.001 38.6811 366.557 37.6903C368.112 36.6889 369.875 36.1882 371.846 36.1882C373.37 36.1882 374.6 36.4438 375.538 36.9552C376.475 37.4559 377.205 38.0419 377.727 38.713C378.259 39.3842 378.67 39.9755 378.957 40.4868H379.309V36.5078H383.991V61.5965C383.991 63.7059 383.501 65.4371 382.521 66.7901C381.541 68.1431 380.214 69.1445 378.542 69.7943C376.88 70.4442 375.005 70.7691 372.917 70.7691ZM372.869 56.7226C374.243 56.7226 375.404 56.403 376.352 55.7638C377.311 55.1139 378.036 54.1871 378.526 52.9833C379.027 51.7688 379.277 50.3146 379.277 48.6207C379.277 46.9694 379.032 45.5152 378.542 44.2581C378.052 43.001 377.333 42.0209 376.384 41.3178C375.436 40.604 374.264 40.2471 372.869 40.2471C371.431 40.2471 370.232 40.62 369.273 41.3657C368.314 42.1008 367.59 43.1022 367.1 44.37C366.621 45.6377 366.381 47.0546 366.381 48.6207C366.381 50.2294 366.626 51.6409 367.116 52.8554C367.606 54.0699 368.33 55.0181 369.289 55.6999C370.259 56.3817 371.452 56.7226 372.869 56.7226ZM390.399 61.0532V36.5078H395.177V61.0532H390.399ZM392.812 32.7205C391.981 32.7205 391.267 32.4435 390.671 31.8895C390.085 31.3249 389.792 30.6537 389.792 29.876C389.792 29.0877 390.085 28.4165 390.671 27.8625C391.267 27.2979 391.981 27.0156 392.812 27.0156C393.643 27.0156 394.351 27.2979 394.937 27.8625C395.534 28.4165 395.832 29.0877 395.832 29.876C395.832 30.6537 395.534 31.3249 394.937 31.8895C394.351 32.4435 393.643 32.7205 392.812 32.7205ZM406.383 46.4794V61.0532H401.605V36.5078H406.191V40.5028H406.495C407.06 39.2031 407.944 38.159 409.148 37.3707C410.362 36.5823 411.891 36.1882 413.734 36.1882C415.407 36.1882 416.871 36.5397 418.129 37.2429C419.386 37.9353 420.36 38.9687 421.053 40.343C421.745 41.7173 422.092 43.4165 422.092 45.4407V61.0532H417.314V46.0159C417.314 44.2368 416.85 42.8465 415.923 41.8451C414.996 40.8331 413.723 40.327 412.104 40.327C410.996 40.327 410.011 40.5667 409.148 41.0461C408.295 41.5255 407.619 42.2286 407.118 43.1555C406.628 44.0717 406.383 45.1796 406.383 46.4794ZM438.791 70.7691C436.841 70.7691 435.163 70.5135 433.757 70.0021C432.361 69.4907 431.222 68.8142 430.337 67.9726C429.453 67.131 428.793 66.2095 428.356 65.2081L432.463 63.5142C432.75 63.9829 433.134 64.4783 433.613 65.0003C434.103 65.533 434.764 65.9858 435.595 66.3586C436.436 66.7315 437.518 66.9179 438.839 66.9179C440.65 66.9179 442.147 66.4758 443.329 65.5916C444.512 64.718 445.103 63.3224 445.103 61.4048V56.5788H444.799C444.512 57.1008 444.096 57.6814 443.553 58.3206C443.02 58.9598 442.285 59.5138 441.348 59.9826C440.41 60.4513 439.19 60.6857 437.688 60.6857C435.749 60.6857 434.002 60.2329 432.447 59.3274C430.902 58.4112 429.677 57.0635 428.771 55.2844C427.876 53.4946 427.429 51.2947 427.429 48.6846C427.429 46.0745 427.871 43.8373 428.755 41.973C429.65 40.1086 430.875 38.6811 432.431 37.6903C433.986 36.6889 435.749 36.1882 437.72 36.1882C439.244 36.1882 440.474 36.4438 441.412 36.9552C442.349 37.4559 443.079 38.0419 443.601 38.713C444.133 39.3842 444.544 39.9755 444.831 40.4868H445.183V36.5078H449.865V61.5965C449.865 63.7059 449.375 65.4371 448.395 66.7901C447.415 68.1431 446.088 69.1445 444.416 69.7943C442.754 70.4442 440.879 70.7691 438.791 70.7691ZM438.743 56.7226C440.117 56.7226 441.278 56.403 442.227 55.7638C443.185 55.1139 443.91 54.1871 444.4 52.9833C444.901 51.7688 445.151 50.3146 445.151 48.6207C445.151 46.9694 444.906 45.5152 444.416 44.2581C443.926 43.001 443.207 42.0209 442.258 41.3178C441.31 40.604 440.138 40.2471 438.743 40.2471C437.305 40.2471 436.106 40.62 435.147 41.3657C434.189 42.1008 433.464 43.1022 432.974 44.37C432.495 45.6377 432.255 47.0546 432.255 48.6207C432.255 50.2294 432.5 51.6409 432.99 52.8554C433.48 54.0699 434.205 55.0181 435.163 55.6999C436.133 56.3817 437.326 56.7226 438.743 56.7226ZM196.808 88.5078V92.343H183.401V88.5078H196.808ZM186.996 82.6271H191.774V105.846C191.774 106.773 191.913 107.471 192.19 107.94C192.467 108.398 192.824 108.712 193.26 108.882C193.708 109.042 194.193 109.122 194.715 109.122C195.098 109.122 195.434 109.095 195.721 109.042C196.009 108.989 196.233 108.946 196.392 108.914L197.255 112.861C196.978 112.968 196.584 113.075 196.073 113.181C195.561 113.298 194.922 113.362 194.155 113.373C192.898 113.394 191.726 113.17 190.64 112.702C189.553 112.233 188.674 111.508 188.003 110.528C187.332 109.548 186.996 108.318 186.996 106.837V82.6271ZM207.399 98.4794V113.053H202.621V80.3259H207.335V92.5028H207.638C208.214 91.1818 209.093 90.1324 210.275 89.3547C211.458 88.577 213.002 88.1882 214.909 88.1882C216.593 88.1882 218.063 88.5344 219.32 89.2269C220.588 89.9193 221.568 90.9527 222.26 92.327C222.963 93.6907 223.315 95.3952 223.315 97.4407V113.053H218.537V98.0159C218.537 96.2155 218.073 94.8199 217.147 93.8291C216.22 92.8277 214.931 92.327 213.279 92.327C212.15 92.327 211.138 92.5667 210.243 93.0461C209.359 93.5255 208.661 94.2286 208.15 95.1555C207.649 96.0717 207.399 97.1796 207.399 98.4794ZM240.27 113.549C237.852 113.549 235.769 113.032 234.022 111.999C232.285 110.955 230.943 109.49 229.995 107.604C229.057 105.708 228.588 103.486 228.588 100.94C228.588 98.4261 229.057 96.2102 229.995 94.2926C230.943 92.375 232.264 90.8782 233.958 89.8022C235.662 88.7262 237.654 88.1882 239.934 88.1882C241.319 88.1882 242.662 88.4172 243.961 88.8753C245.261 89.3334 246.428 90.0525 247.461 91.0326C248.494 92.0127 249.309 93.2858 249.906 94.8519C250.502 96.4073 250.801 98.2983 250.801 100.525V102.219H231.289V98.6392H246.119C246.119 97.3821 245.863 96.2688 245.352 95.2993C244.84 94.3192 244.121 93.5468 243.194 92.9822C242.278 92.4176 241.202 92.1353 239.966 92.1353C238.624 92.1353 237.452 92.4655 236.451 93.126C235.46 93.7759 234.693 94.6282 234.149 95.6828C233.617 96.7269 233.35 97.8615 233.35 99.0866V101.883C233.35 103.524 233.638 104.919 234.213 106.07C234.799 107.22 235.614 108.099 236.658 108.707C237.702 109.303 238.922 109.602 240.318 109.602C241.223 109.602 242.049 109.474 242.795 109.218C243.54 108.952 244.185 108.557 244.728 108.035C245.272 107.513 245.687 106.869 245.975 106.102L250.497 106.917C250.135 108.249 249.485 109.415 248.548 110.417C247.621 111.407 246.454 112.18 245.048 112.734C243.652 113.277 242.06 113.549 240.27 113.549ZM278.35 113.549C275.975 113.549 273.929 113.011 272.214 111.935C270.51 110.848 269.199 109.351 268.283 107.444C267.367 105.537 266.909 103.353 266.909 100.892C266.909 98.3995 267.377 96.1995 268.315 94.2926C269.252 92.375 270.573 90.8782 272.278 89.8022C273.983 88.7262 275.991 88.1882 278.303 88.1882C280.167 88.1882 281.829 88.5344 283.288 89.2269C284.748 89.9087 285.925 90.8675 286.82 92.1033C287.725 93.3391 288.263 94.7826 288.434 96.4339H283.784C283.528 95.2833 282.942 94.2926 282.026 93.4616C281.12 92.6306 279.906 92.2152 278.382 92.2152C277.051 92.2152 275.884 92.5667 274.883 93.2698C273.892 93.9623 273.12 94.9531 272.566 96.2421C272.012 97.5206 271.735 99.0333 271.735 100.78C271.735 102.57 272.006 104.115 272.55 105.415C273.093 106.714 273.86 107.721 274.851 108.435C275.852 109.149 277.029 109.506 278.382 109.506C279.288 109.506 280.108 109.341 280.843 109.01C281.589 108.669 282.212 108.185 282.713 107.556C283.224 106.928 283.581 106.171 283.784 105.287H288.434C288.263 106.874 287.747 108.291 286.884 109.538C286.021 110.784 284.865 111.764 283.416 112.478C281.978 113.192 280.289 113.549 278.35 113.549ZM303.883 113.549C301.582 113.549 299.573 113.021 297.858 111.967C296.143 110.912 294.811 109.436 293.863 107.54C292.915 105.644 292.441 103.428 292.441 100.892C292.441 98.3462 292.915 96.1196 293.863 94.2127C294.811 92.3057 296.143 90.8249 297.858 89.7702C299.573 88.7155 301.582 88.1882 303.883 88.1882C306.184 88.1882 308.192 88.7155 309.907 89.7702C311.622 90.8249 312.954 92.3057 313.902 94.2127C314.85 96.1196 315.324 98.3462 315.324 100.892C315.324 103.428 314.85 105.644 313.902 107.54C312.954 109.436 311.622 110.912 309.907 111.967C308.192 113.021 306.184 113.549 303.883 113.549ZM303.899 109.538C305.39 109.538 306.626 109.143 307.606 108.355C308.586 107.567 309.311 106.517 309.779 105.207C310.259 103.897 310.498 102.453 310.498 100.876C310.498 99.3103 310.259 97.8721 309.779 96.5617C309.311 95.2407 308.586 94.1807 307.606 93.3817C306.626 92.5827 305.39 92.1832 303.899 92.1832C302.397 92.1832 301.15 92.5827 300.159 93.3817C299.179 94.1807 298.449 95.2407 297.97 96.5617C297.501 97.8721 297.267 99.3103 297.267 100.876C297.267 102.453 297.501 103.897 297.97 105.207C298.449 106.517 299.179 107.567 300.159 108.355C301.15 109.143 302.397 109.538 303.899 109.538ZM325.436 80.3259V113.053H320.658V80.3259H325.436ZM342.203 113.549C339.902 113.549 337.894 113.021 336.178 111.967C334.463 110.912 333.132 109.436 332.183 107.54C331.235 105.644 330.761 103.428 330.761 100.892C330.761 98.3462 331.235 96.1196 332.183 94.2127C333.132 92.3057 334.463 90.8249 336.178 89.7702C337.894 88.7155 339.902 88.1882 342.203 88.1882C344.504 88.1882 346.512 88.7155 348.227 89.7702C349.943 90.8249 351.274 92.3057 352.223 94.2127C353.171 96.1196 353.645 98.3462 353.645 100.892C353.645 103.428 353.171 105.644 352.223 107.54C351.274 109.436 349.943 110.912 348.227 111.967C346.512 113.021 344.504 113.549 342.203 113.549ZM342.219 109.538C343.71 109.538 344.946 109.143 345.926 108.355C346.906 107.567 347.631 106.517 348.1 105.207C348.579 103.897 348.819 102.453 348.819 100.876C348.819 99.3103 348.579 97.8721 348.1 96.5617C347.631 95.2407 346.906 94.1807 345.926 93.3817C344.946 92.5827 343.71 92.1832 342.219 92.1832C340.717 92.1832 339.47 92.5827 338.48 93.3817C337.5 94.1807 336.77 95.2407 336.29 96.5617C335.822 97.8721 335.587 99.3103 335.587 100.876C335.587 102.453 335.822 103.897 336.29 105.207C336.77 106.517 337.5 107.567 338.48 108.355C339.47 109.143 340.717 109.538 342.219 109.538ZM358.978 113.053V88.5078H363.596V92.4069H363.852C364.299 91.0859 365.088 90.0472 366.217 89.2908C367.357 88.5237 368.646 88.1402 370.084 88.1402C370.383 88.1402 370.734 88.1509 371.139 88.1722C371.554 88.1935 371.879 88.2201 372.114 88.2521V92.8224C371.922 92.7691 371.581 92.7105 371.091 92.6466C370.601 92.572 370.111 92.5348 369.621 92.5348C368.492 92.5348 367.485 92.7745 366.601 93.2539C365.727 93.7226 365.035 94.3778 364.523 95.2194C364.012 96.0504 363.756 96.9985 363.756 98.0639V113.053H358.978ZM394.642 94.5003L390.311 95.2674C390.13 94.7134 389.842 94.186 389.448 93.6853C389.065 93.1846 388.543 92.7745 387.882 92.4549C387.222 92.1353 386.396 91.9755 385.405 91.9755C384.052 91.9755 382.923 92.2791 382.017 92.8863C381.112 93.4829 380.659 94.2553 380.659 95.2034C380.659 96.0237 380.963 96.6843 381.57 97.185C382.177 97.6857 383.157 98.0958 384.51 98.4154L388.409 99.3103C390.668 99.8323 392.351 100.637 393.459 101.723C394.567 102.81 395.121 104.222 395.121 105.958C395.121 107.428 394.695 108.739 393.843 109.889C393.001 111.029 391.824 111.924 390.311 112.574C388.809 113.224 387.067 113.549 385.086 113.549C382.337 113.549 380.095 112.963 378.358 111.791C376.621 110.608 375.556 108.93 375.162 106.757L379.78 106.054C380.068 107.258 380.659 108.169 381.554 108.787C382.449 109.394 383.615 109.697 385.054 109.697C386.62 109.697 387.871 109.372 388.809 108.723C389.746 108.062 390.215 107.258 390.215 106.31C390.215 105.543 389.928 104.898 389.352 104.376C388.788 103.854 387.919 103.46 386.748 103.193L382.593 102.283C380.302 101.761 378.608 100.93 377.511 99.7897C376.424 98.6498 375.881 97.2063 375.881 95.4591C375.881 94.0103 376.286 92.7425 377.096 91.6558C377.905 90.5692 379.024 89.7223 380.451 89.115C381.879 88.4971 383.514 88.1882 385.357 88.1882C388.01 88.1882 390.098 88.7634 391.621 89.914C393.145 91.0539 394.152 92.5827 394.642 94.5003ZM406.399 80.3259L405.984 103.641H401.557L401.142 80.3259H406.399ZM403.778 113.357C402.894 113.357 402.138 113.048 401.509 112.43C400.881 111.801 400.572 111.045 400.582 110.161C400.572 109.287 400.881 108.542 401.509 107.924C402.138 107.295 402.894 106.981 403.778 106.981C404.641 106.981 405.387 107.295 406.016 107.924C406.644 108.542 406.964 109.287 406.974 110.161C406.964 110.747 406.809 111.285 406.511 111.775C406.223 112.254 405.84 112.638 405.36 112.925C404.881 113.213 404.354 113.357 403.778 113.357Z" fill="white"/>
</svg>
