<svg width="1033" height="964" viewBox="0 0 1033 964" fill="none" xmlns="http://www.w3.org/2000/svg">
<rect x="11.1846" y="11.0664" width="1010.06" height="938.955" fill="white"/>
<path d="M53.3268 0L45.0195 0L45.0195 22.4115H53.3268V0Z" fill="#D3D3D3"/>
<path d="M92.2477 0L83.9404 0V22.4115H92.2477V0Z" fill="#D3D3D3"/>
<path d="M131.168 0L122.861 0V22.4115H131.168V0Z" fill="#D3D3D3"/>
<path d="M170.088 0L161.781 0V22.4115H170.088V0Z" fill="#D3D3D3"/>
<path d="M209.008 0L200.701 0V22.4115H209.008V0Z" fill="#D3D3D3"/>
<path d="M247.929 0L239.622 0V22.4115H247.929V0Z" fill="#D3D3D3"/>
<path d="M286.849 0L278.542 0V22.4115H286.849V0Z" fill="#D3D3D3"/>
<path d="M325.769 0L317.462 0V22.4115H325.769V0Z" fill="#D3D3D3"/>
<path d="M364.69 0L356.382 0V22.4115H364.69V0Z" fill="#D3D3D3"/>
<path d="M403.609 0L395.302 0V22.4115H403.609V0Z" fill="#D3D3D3"/>
<path d="M442.53 0L434.223 0V22.4115H442.53V0Z" fill="#D3D3D3"/>
<path d="M481.45 0L473.143 0V22.4115H481.45V0Z" fill="#D3D3D3"/>
<path d="M520.37 0L512.063 0V22.4115H520.37V0Z" fill="#D3D3D3"/>
<path d="M559.291 0L550.983 0V22.4115H559.291V0Z" fill="#D3D3D3"/>
<path d="M598.211 0L589.904 0V22.4115H598.211V0Z" fill="#D3D3D3"/>
<path d="M637.131 0L628.824 0V22.4115H637.131V0Z" fill="#D3D3D3"/>
<path d="M676.051 0L667.744 0V22.4115H676.051V0Z" fill="#D3D3D3"/>
<path d="M714.972 0L706.665 0V22.4115H714.972V0Z" fill="#D3D3D3"/>
<path d="M753.892 0L745.584 0V22.4115H753.892V0Z" fill="#D3D3D3"/>
<path d="M792.812 0L784.505 0V22.4115H792.812V0Z" fill="#D3D3D3"/>
<path d="M831.733 0L823.425 0V22.4115H831.733V0Z" fill="#D3D3D3"/>
<path d="M870.652 0L862.345 0V22.4115H870.652V0Z" fill="#D3D3D3"/>
<path d="M909.573 0L901.266 0V22.4115H909.573V0Z" fill="#D3D3D3"/>
<path d="M948.493 0L940.186 0V22.4115H948.493V0Z" fill="#D3D3D3"/>
<path d="M987.413 0L979.106 0V22.4115H987.413V0Z" fill="#D3D3D3"/>
<path d="M53.3268 940.828H45.0195L45.0195 963.24H53.3268V940.828Z" fill="#D3D3D3"/>
<path d="M92.2477 940.828H83.9404V963.24H92.2477V940.828Z" fill="#D3D3D3"/>
<path d="M131.168 940.828H122.861V963.24H131.168V940.828Z" fill="#D3D3D3"/>
<path d="M170.088 940.828H161.781V963.24H170.088V940.828Z" fill="#D3D3D3"/>
<path d="M209.008 940.828H200.701V963.24H209.008V940.828Z" fill="#D3D3D3"/>
<path d="M247.929 940.828H239.622V963.24H247.929V940.828Z" fill="#D3D3D3"/>
<path d="M286.849 940.828H278.542V963.24H286.849V940.828Z" fill="#D3D3D3"/>
<path d="M325.769 940.828H317.462V963.24H325.769V940.828Z" fill="#D3D3D3"/>
<path d="M364.69 940.828H356.382V963.24H364.69V940.828Z" fill="#D3D3D3"/>
<path d="M403.609 940.828H395.302V963.24H403.609V940.828Z" fill="#D3D3D3"/>
<path d="M442.53 940.828H434.223V963.24H442.53V940.828Z" fill="#D3D3D3"/>
<path d="M481.45 940.828H473.143V963.24H481.45V940.828Z" fill="#D3D3D3"/>
<path d="M520.37 940.828H512.063V963.24H520.37V940.828Z" fill="#D3D3D3"/>
<path d="M559.291 940.828H550.983V963.24H559.291V940.828Z" fill="#D3D3D3"/>
<path d="M598.211 940.828H589.904V963.24H598.211V940.828Z" fill="#D3D3D3"/>
<path d="M637.131 940.828H628.824V963.24H637.131V940.828Z" fill="#D3D3D3"/>
<path d="M676.051 940.828H667.744V963.24H676.051V940.828Z" fill="#D3D3D3"/>
<path d="M714.972 940.828H706.665V963.24H714.972V940.828Z" fill="#D3D3D3"/>
<path d="M753.892 940.828H745.584V963.24H753.892V940.828Z" fill="#D3D3D3"/>
<path d="M792.812 940.828H784.505V963.24H792.812V940.828Z" fill="#D3D3D3"/>
<path d="M831.733 940.828H823.425V963.24H831.733V940.828Z" fill="#D3D3D3"/>
<path d="M870.652 940.828H862.345V963.24H870.652V940.828Z" fill="#D3D3D3"/>
<path d="M909.573 940.828H901.266V963.24H909.573V940.828Z" fill="#D3D3D3"/>
<path d="M948.493 940.828H940.186V963.24H948.493V940.828Z" fill="#D3D3D3"/>
<path d="M987.413 940.828H979.106V963.24H987.413V940.828Z" fill="#D3D3D3"/>
<path d="M1032.43 56.8052L1032.43 48.4814L1010.06 48.4814L1010.06 56.8052L1032.43 56.8052Z" fill="#D3D3D3"/>
<path d="M1032.43 95.8023L1032.43 87.4785L1010.06 87.4785L1010.06 95.8023L1032.43 95.8023Z" fill="#D3D3D3"/>
<path d="M1032.43 134.8L1032.43 126.477L1010.06 126.477L1010.06 134.8L1032.43 134.8Z" fill="#D3D3D3"/>
<path d="M1032.43 173.798L1032.43 165.475L1010.06 165.475L1010.06 173.798L1032.43 173.798Z" fill="#D3D3D3"/>
<path d="M1032.43 212.796L1032.43 204.473L1010.06 204.473L1010.06 212.796L1032.43 212.796Z" fill="#D3D3D3"/>
<path d="M1032.43 251.795L1032.43 243.471L1010.06 243.471L1010.06 251.794L1032.43 251.795Z" fill="#D3D3D3"/>
<path d="M1032.43 290.793L1032.43 282.469L1010.06 282.469L1010.06 290.793L1032.43 290.793Z" fill="#D3D3D3"/>
<path d="M1032.43 329.79L1032.43 321.466L1010.06 321.466L1010.06 329.79L1032.43 329.79Z" fill="#D3D3D3"/>
<path d="M1032.43 368.788L1032.43 360.464L1010.06 360.464L1010.06 368.788L1032.43 368.788Z" fill="#D3D3D3"/>
<path d="M1032.43 407.786L1032.43 399.462L1010.06 399.462L1010.06 407.786L1032.43 407.786Z" fill="#D3D3D3"/>
<path d="M1032.43 446.784L1032.43 438.46L1010.06 438.46L1010.06 446.784L1032.43 446.784Z" fill="#D3D3D3"/>
<path d="M1032.43 485.782L1032.43 477.458L1010.06 477.458L1010.06 485.782L1032.43 485.782Z" fill="#D3D3D3"/>
<path d="M1032.43 524.78L1032.43 516.456L1010.06 516.456L1010.06 524.78L1032.43 524.78Z" fill="#D3D3D3"/>
<path d="M1032.43 563.777L1032.43 555.453L1010.06 555.453L1010.06 563.777L1032.43 563.777Z" fill="#D3D3D3"/>
<path d="M1032.43 602.775L1032.43 594.451L1010.06 594.451L1010.06 602.775L1032.43 602.775Z" fill="#D3D3D3"/>
<path d="M1032.43 641.773L1032.43 633.449L1010.06 633.449L1010.06 641.773L1032.43 641.773Z" fill="#D3D3D3"/>
<path d="M1032.43 680.771L1032.43 672.447L1010.06 672.447L1010.06 680.771L1032.43 680.771Z" fill="#D3D3D3"/>
<path d="M1032.43 719.769L1032.43 711.445L1010.06 711.445L1010.06 719.769L1032.43 719.769Z" fill="#D3D3D3"/>
<path d="M1032.43 758.767L1032.43 750.443L1010.06 750.443L1010.06 758.767L1032.43 758.767Z" fill="#D3D3D3"/>
<path d="M1032.43 797.764L1032.43 789.44L1010.06 789.44L1010.06 797.764L1032.43 797.764Z" fill="#D3D3D3"/>
<path d="M1032.43 836.762L1032.43 828.438L1010.06 828.438L1010.06 836.762L1032.43 836.762Z" fill="#D3D3D3"/>
<path d="M1032.43 875.76L1032.43 867.437L1010.06 867.437L1010.06 875.76L1032.43 875.76Z" fill="#D3D3D3"/>
<path d="M1032.43 914.758L1032.43 906.435L1010.06 906.435L1010.06 914.758L1032.43 914.758Z" fill="#D3D3D3"/>
<path d="M22.3672 56.8052L22.3672 48.4814L0.000318527 48.4814L0.000318164 56.8052L22.3672 56.8052Z" fill="#D3D3D3"/>
<path d="M22.3672 95.8023L22.3672 87.4785L0.000318527 87.4785L0.000318164 95.8023L22.3672 95.8023Z" fill="#D3D3D3"/>
<path d="M22.3672 134.8L22.3672 126.477L0.000318527 126.477L0.000318164 134.8L22.3672 134.8Z" fill="#D3D3D3"/>
<path d="M22.3672 173.798L22.3672 165.475L0.000318527 165.475L0.000318164 173.798L22.3672 173.798Z" fill="#D3D3D3"/>
<path d="M22.3672 212.796L22.3672 204.473L0.000318527 204.473L0.000318164 212.796L22.3672 212.796Z" fill="#D3D3D3"/>
<path d="M22.3672 251.795L22.3672 243.471L0.000318527 243.471L0.000318164 251.794L22.3672 251.795Z" fill="#D3D3D3"/>
<path d="M22.3672 290.793L22.3672 282.469L0.000318527 282.469L0.000318164 290.793L22.3672 290.793Z" fill="#D3D3D3"/>
<path d="M22.3672 329.79L22.3672 321.466L0.000318527 321.466L0.000318164 329.79L22.3672 329.79Z" fill="#D3D3D3"/>
<path d="M22.3672 368.788L22.3672 360.464L0.000318527 360.464L0.000318164 368.788L22.3672 368.788Z" fill="#D3D3D3"/>
<path d="M22.3672 407.786L22.3672 399.462L0.000318527 399.462L0.000318164 407.786L22.3672 407.786Z" fill="#D3D3D3"/>
<path d="M22.3672 446.784L22.3672 438.46L0.000318527 438.46L0.000318164 446.784L22.3672 446.784Z" fill="#D3D3D3"/>
<path d="M22.3672 485.782L22.3672 477.458L0.000318527 477.458L0.000318164 485.782L22.3672 485.782Z" fill="#D3D3D3"/>
<path d="M22.3672 524.78L22.3672 516.456L0.000318527 516.456L0.000318164 524.78L22.3672 524.78Z" fill="#D3D3D3"/>
<path d="M22.3672 563.777L22.3672 555.453L0.000318527 555.453L0.000318164 563.777L22.3672 563.777Z" fill="#D3D3D3"/>
<path d="M22.3672 602.775L22.3672 594.451L0.000318527 594.451L0.000318164 602.775L22.3672 602.775Z" fill="#D3D3D3"/>
<path d="M22.3672 641.773L22.3672 633.449L0.000318527 633.449L0.000318164 641.773L22.3672 641.773Z" fill="#D3D3D3"/>
<path d="M22.3672 680.771L22.3672 672.447L0.000318527 672.447L0.000318164 680.771L22.3672 680.771Z" fill="#D3D3D3"/>
<path d="M22.3672 719.769L22.3672 711.445L0.000318527 711.445L0.000318164 719.769L22.3672 719.769Z" fill="#D3D3D3"/>
<path d="M22.3672 758.767L22.3672 750.443L0.000318527 750.443L0.000318164 758.767L22.3672 758.767Z" fill="#D3D3D3"/>
<path d="M22.3672 797.764L22.3672 789.44L0.000318527 789.44L0.000318164 797.764L22.3672 797.764Z" fill="#D3D3D3"/>
<path d="M22.3672 836.762L22.3672 828.438L0.000318527 828.438L0.000318164 836.762L22.3672 836.762Z" fill="#D3D3D3"/>
<path d="M22.3672 875.76L22.3672 867.437L0.000318527 867.437L0.000318164 875.76L22.3672 875.76Z" fill="#D3D3D3"/>
<path d="M22.3672 914.758L22.3672 906.435L0.000318527 906.435L0.000318164 914.758L22.3672 914.758Z" fill="#D3D3D3"/>
<path d="M1015.17 939.991L1009.29 945.877L1024.64 961.254L1030.51 955.368L1015.17 939.991Z" fill="#D3D3D3"/>
<path d="M18.2343 23.8858L24.1084 18L8.76189 2.62288L2.8878 8.50869L18.2343 23.8858Z" fill="#D3D3D3"/>
<path d="M18.2343 939.991L24.1084 945.877L8.76189 961.254L2.8878 955.368L18.2343 939.991Z" fill="#D3D3D3"/>
<path d="M1015.17 23.8858L1009.29 18L1024.64 2.62288L1030.51 8.50869L1015.17 23.8858Z" fill="#D3D3D3"/>
<rect x="16.9609" y="17.5254" width="998.511" height="926.039" rx="17.1997" fill="white"/>
</svg>
