<svg width="800" height="800" viewBox="0 0 800 800" fill="none" xmlns="http://www.w3.org/2000/svg">
<path d="M417.103 343.772C417.103 335.267 410.957 328.174 402.854 326.7V180.161C402.854 178.453 401.457 177.057 399.75 177.057C398.043 177.057 396.646 178.453 396.646 180.161V326.685C388.528 328.143 382.351 335.236 382.351 343.772C382.351 352.308 388.528 359.401 396.646 360.86V400.684C396.646 402.391 398.043 403.788 399.75 403.788C401.457 403.788 402.854 402.391 402.854 400.684V360.86C410.941 359.385 417.103 352.292 417.103 343.788V343.772ZM399.735 354.931C393.573 354.931 388.575 349.918 388.575 343.772C388.575 337.626 393.588 332.613 399.735 332.613C405.881 332.613 410.895 337.626 410.895 343.772C410.895 349.918 405.881 354.931 399.735 354.931Z" fill="white"/>
<path d="M359.13 357.181C351.758 352.929 342.523 354.714 337.199 360.999L289.268 333.327C287.778 332.473 285.885 332.986 285.031 334.46C284.177 335.934 284.69 337.843 286.164 338.697L334.094 366.369C331.316 374.114 334.374 383.006 341.746 387.274C349.119 391.542 358.354 389.742 363.678 383.457L398.167 403.369C399.657 404.222 401.551 403.71 402.404 402.236C403.258 400.761 402.746 398.852 401.271 397.999L366.783 378.087C369.561 370.342 366.503 361.449 359.13 357.181ZM360.124 377.807C357.051 383.146 350.206 384.977 344.866 381.889C339.527 378.816 337.695 371.972 340.784 366.633C343.857 361.294 350.702 359.463 356.042 362.551C361.381 365.624 363.213 372.468 360.124 377.807Z" fill="white"/>
<path d="M400.712 399.393C400.107 398.786 399.124 398.784 398.517 399.39C397.91 399.995 397.908 400.977 398.513 401.584L597.906 601.586C598.511 602.193 599.494 602.194 600.101 601.589C600.708 600.984 600.71 600.001 600.105 599.394L400.712 399.393Z" fill="white"/>
<circle cx="399.528" cy="400.421" r="10" fill="white"/>
</svg>
