<svg width="800" height="800" viewBox="0 0 800 800" fill="none" xmlns="http://www.w3.org/2000/svg">
<path d="M417.376 339.984C417.376 331.48 411.23 324.387 403.127 322.913V176.373C403.127 174.666 401.73 173.269 400.023 173.269C398.316 173.269 396.919 174.666 396.919 176.373V322.897C388.801 324.356 382.624 331.448 382.624 339.984C382.624 348.52 388.801 355.613 396.919 357.072V396.896C396.919 398.603 398.316 400 400.023 400C401.73 400 403.127 398.603 403.127 396.896V357.072C411.214 355.598 417.376 348.505 417.376 340V339.984ZM400.008 351.143C393.846 351.143 388.848 346.13 388.848 339.984C388.848 333.839 393.861 328.826 400.008 328.826C406.154 328.826 411.167 333.839 411.167 339.984C411.167 346.13 406.154 351.143 400.008 351.143Z" fill="white"/>
</svg>
