<svg width="800" height="800" viewBox="0 0 800 800" fill="none" xmlns="http://www.w3.org/2000/svg">
<path d="M400.024 400C398.225 400 396.752 398.529 396.752 396.732V188.935C396.752 187.137 398.225 185.667 400.024 185.667C401.824 185.667 403.296 187.137 403.296 188.935V396.732C403.296 398.529 401.824 400 400.024 400Z" fill="white"/>
<path d="M416.483 208.659C415.649 208.659 414.814 208.332 414.176 207.695L400.008 193.543L385.84 207.695C384.564 208.969 382.487 208.969 381.21 207.695C379.934 206.42 379.934 204.345 381.21 203.07L397.685 186.615C398.912 185.389 401.088 185.389 402.315 186.615L418.79 203.07C420.066 204.345 420.066 206.42 418.79 207.695C418.152 208.332 417.317 208.659 416.483 208.659Z" fill="white"/>
</svg>
