<svg width="800" height="800" viewBox="0 0 800 800" fill="none" xmlns="http://www.w3.org/2000/svg">
<path d="M402.294 403.021C401.394 404.59 399.381 405.113 397.827 404.214L298.489 346.938C296.918 346.039 296.395 344.029 297.294 342.477C298.194 340.924 300.206 340.385 301.761 341.284L401.099 398.56C402.67 399.459 403.193 401.469 402.294 403.021Z" fill="white"/>
<path d="M325.466 339.715C325.041 340.434 324.354 341.006 323.487 341.235L304.149 346.415L309.335 365.73C309.81 367.479 308.763 369.26 307.029 369.734C305.278 370.208 303.495 369.162 303.02 367.43L296.984 344.944C296.542 343.277 297.622 341.398 299.29 340.941L321.802 334.911C323.552 334.437 325.336 335.483 325.81 337.215C326.039 338.081 325.908 338.963 325.483 339.699L325.466 339.715Z" fill="white"/>
<path d="M399.463 404.95C397.663 404.95 396.191 403.479 396.191 401.681V193.885C396.191 192.087 397.663 190.616 399.463 190.616C401.263 190.616 402.735 192.087 402.735 193.885V401.681C402.735 403.479 401.263 404.95 399.463 404.95Z" fill="white"/>
<path d="M415.921 213.609C415.087 213.609 414.253 213.282 413.615 212.644L399.447 198.493L385.279 212.644C384.003 213.919 381.925 213.919 380.649 212.644C379.373 211.37 379.373 209.294 380.649 208.02L397.124 191.564C398.351 190.338 400.527 190.338 401.754 191.564L418.228 208.02C419.504 209.294 419.504 211.37 418.228 212.644C417.59 213.282 416.756 213.609 415.921 213.609Z" fill="white"/>
<path d="M400.533 400.065C399.895 399.426 398.859 399.424 398.219 400.062C397.579 400.699 397.578 401.733 398.216 402.373L608.382 612.959C609.02 613.598 610.056 613.6 610.696 612.963C611.336 612.325 611.338 611.291 610.7 610.652L400.533 400.065Z" fill="white"/>
<circle cx="399.742" cy="399.793" r="10" fill="white"/>
</svg>
