<svg width="800" height="800" viewBox="0 0 800 800" fill="none" xmlns="http://www.w3.org/2000/svg">
<path d="M420.88 340.315C420.88 339.497 420.555 338.709 419.969 338.138L403.088 321.26V177.522C403.088 175.823 401.699 174.434 400 174.434C398.301 174.434 396.911 175.823 396.911 177.522V321.244L380.031 338.123C379.444 338.709 379.12 339.482 379.12 340.3C379.12 341.118 379.444 341.906 380.031 342.477L396.911 359.356V396.912C396.911 398.61 398.301 400 400 400C401.699 400 403.088 398.61 403.088 396.912V359.356L419.969 342.477C420.555 341.891 420.88 341.118 420.88 340.3V340.315ZM400 353.735L386.579 340.315L400 326.896L413.42 340.315L400 353.735Z" fill="white"/>
</svg>
