<svg width="800" height="800" viewBox="0 0 800 800" fill="none" xmlns="http://www.w3.org/2000/svg">
<path d="M420.997 339.15C421.003 338.326 420.672 337.536 420.091 336.962L403.205 320.069L403.199 267.091C403.193 265.382 401.81 264.005 400.114 264.003C398.419 264.001 397.029 265.392 397.027 267.087L397.028 320.087L380.137 336.972C379.563 337.553 379.229 338.334 379.237 339.15C379.244 339.966 379.562 340.763 380.143 341.337L397.029 358.231L397.029 395.787C397.035 397.496 398.418 398.873 400.113 398.875C401.809 398.877 403.199 397.486 403.201 395.79L403.2 358.234L420.092 341.349C420.666 340.768 420.999 339.987 420.992 339.171L420.997 339.15ZM400.114 352.58L386.695 339.159L400.114 325.741L413.533 339.162L400.114 352.58Z" fill="white"/>
<circle cx="400" cy="400.437" r="10" fill="white"/>
</svg>
