<svg width="800" height="800" viewBox="0 0 800 800" fill="none" xmlns="http://www.w3.org/2000/svg">
<path d="M417.377 338.865C417.374 330.354 411.21 323.249 403.105 321.781L403.105 266.436C403.099 264.719 401.708 263.335 400.005 263.333C398.301 263.331 396.904 264.729 396.902 266.433L396.902 321.777C388.806 323.244 382.634 330.338 382.624 338.857C382.614 347.376 388.791 354.474 396.896 355.942L396.896 395.766C396.902 397.483 398.292 398.867 399.996 398.869C401.7 398.871 403.097 397.473 403.099 395.769L403.099 355.945C411.195 354.479 417.367 347.384 417.377 338.865ZM400.011 350.039C393.851 350.047 388.843 345.034 388.848 338.866C388.839 332.706 393.851 327.697 400.019 327.703C406.179 327.695 411.187 332.707 411.182 338.875C411.191 345.036 406.179 350.044 400.011 350.039Z" fill="white"/>
<circle cx="400" cy="400" r="10" fill="white"/>
</svg>
