<svg width="800" height="799" viewBox="0 0 800 799" fill="none" xmlns="http://www.w3.org/2000/svg">
<path d="M400.288 398.048C399.685 397.444 398.708 397.442 398.104 398.044C397.499 398.646 397.498 399.624 398.1 400.228L596.496 599.229C597.098 599.833 598.076 599.835 598.68 599.233C599.284 598.631 599.286 597.653 598.684 597.049L400.288 398.048Z" fill="white"/>
<path d="M360.706 352.928C359.995 352.511 359.146 352.403 358.358 352.619L335.285 358.796L289.401 332.312C287.919 331.463 286.035 331.972 285.185 333.439C284.336 334.906 284.846 336.806 286.313 337.655L332.212 364.154L338.389 387.225C338.606 388.013 339.115 388.692 339.826 389.094C340.536 389.495 341.385 389.619 342.173 389.403L365.246 383.226L397.771 402.004C399.254 402.853 401.138 402.343 401.987 400.876C402.837 399.409 402.327 397.51 400.86 396.661L368.335 377.883L362.157 354.812C361.941 354.024 361.432 353.345 360.721 352.943L360.706 352.928ZM361.895 377.728L343.563 382.639L338.652 364.309L356.984 359.398L361.895 377.728Z" fill="white"/>
<path d="M420.195 342.705C420.195 341.886 419.871 341.099 419.284 340.528L402.404 323.649V179.912C402.404 178.213 401.014 176.823 399.315 176.823C397.616 176.823 396.226 178.213 396.226 179.912V323.634L379.346 340.512C378.759 341.099 378.435 341.871 378.435 342.689C378.435 343.508 378.759 344.295 379.346 344.867L396.226 361.745V399.301C396.226 401 397.616 402.39 399.315 402.39C401.014 402.39 402.404 401 402.404 399.301V361.745L419.284 344.867C419.871 344.28 420.195 343.508 420.195 342.689V342.705ZM399.315 356.124L385.894 342.705L399.315 329.286L412.736 342.705L399.315 356.124Z" fill="white"/>
<circle cx="399.484" cy="399.685" r="10" fill="white"/>
</svg>
