<svg width="800" height="801" viewBox="0 0 800 801" fill="none" xmlns="http://www.w3.org/2000/svg">
<path d="M302.62 327.223L288.024 353.311C287.164 354.859 287.68 356.826 289.164 357.713C290.649 358.6 292.571 358.068 293.431 356.536L299.166 346.281L398.153 405.245C399.653 406.132 401.559 405.6 402.419 404.068C403.278 402.536 402.763 400.553 401.278 399.666L302.292 340.703L308.027 330.448C308.887 328.9 308.371 326.933 306.886 326.046C305.402 325.16 303.48 325.692 302.62 327.223Z" fill="white"/>
<path d="M414.327 188.835H385.119C383.4 188.835 381.994 190.287 381.994 192.06C381.994 193.834 383.4 195.285 385.119 195.285H396.59V402.472C396.59 404.245 397.996 405.696 399.716 405.696C401.435 405.696 402.841 404.245 402.841 402.472V195.285H414.312C416.031 195.285 417.437 193.834 417.437 192.06C417.437 190.287 416.031 188.835 414.312 188.835H414.327Z" fill="white"/>
<path d="M400.745 401.138C400.136 400.507 399.146 400.506 398.535 401.135C397.924 401.763 397.922 402.784 398.532 403.415L599.29 611.194C599.9 611.824 600.889 611.826 601.5 611.197C602.112 610.568 602.113 609.548 601.504 608.917L400.745 401.138Z" fill="white"/>
<circle cx="399.611" cy="400.585" r="10" fill="white"/>
</svg>
