<svg width="800" height="800" viewBox="0 0 800 800" fill="none" xmlns="http://www.w3.org/2000/svg">
<circle cx="400" cy="400.311" r="10" fill="white"/>
<path d="M400.024 400C398.224 400 396.752 399.202 396.752 398.227V285.531C396.752 284.556 398.224 283.758 400.024 283.758C401.824 283.758 403.296 284.556 403.296 285.531V398.227C403.296 399.202 401.824 400 400.024 400Z" fill="white"/>
<path d="M416.482 301.369C415.648 301.369 414.814 301.042 414.176 300.405L400.008 286.253L385.84 300.405C384.564 301.679 382.486 301.679 381.21 300.405C379.934 299.13 379.934 297.055 381.21 295.78L397.685 279.324C398.912 278.099 401.088 278.099 402.315 279.324L418.789 295.78C420.065 297.055 420.065 299.13 418.789 300.405C418.151 301.042 417.317 301.369 416.482 301.369Z" fill="white"/>
</svg>
