<svg width="243" height="71" viewBox="0 0 243 71" fill="none" xmlns="http://www.w3.org/2000/svg">
<path d="M6.36715 0H0V31.6986H6.36715V0Z" fill="white"/>
<path d="M44.2628 9.5135H37.8957V28.5326H44.2628V9.5135Z" fill="white"/>
<path d="M82.1623 9.5135H75.7952V28.5326H82.1623V9.5135Z" fill="white"/>
<path d="M119.805 9.5135H113.437V28.5326H119.805V9.5135Z" fill="white"/>
<path d="M157.704 9.5135H151.337V28.5326H157.704V9.5135Z" fill="white"/>
<path d="M195.6 0H189.233V31.6986H195.6V0Z" fill="white"/>
<path d="M25.2842 0H18.9785V6.33971H25.2842V0Z" fill="white"/>
<path d="M63.1185 0H56.8128V6.33971H63.1185V0Z" fill="white"/>
<path d="M100.953 0H94.647V6.33971H100.953V0Z" fill="white"/>
<path d="M138.787 0H132.481V6.33971H138.787V0Z" fill="white"/>
<path d="M176.621 0H170.315V6.33971H176.621V0Z" fill="white"/>
<path d="M0.0153503 37.8953H3.23733V39.6212H3.31029C3.9977 38.4475 5.23042 37.5479 6.97774 37.5479C8.57913 37.5479 9.85793 38.4475 10.4724 39.7988H10.5223C11.3825 38.4011 12.7112 37.5479 14.3126 37.5479C16.9701 37.5479 18.4716 39.2969 18.4716 42.0961V50.7215H15.1229V42.6714C15.1229 41.2235 14.4086 40.4706 13.1798 40.4706C11.7781 40.4706 10.914 41.571 10.914 43.2698V50.7176H7.5653V42.6675C7.5653 41.2196 6.85101 40.4667 5.62213 40.4667C4.27036 40.4667 3.35637 41.5671 3.35637 43.2659V50.7138H0.0153503V37.8915V37.8953Z" fill="white"/>
<path d="M20.5646 52.2427H21.7474C23.0761 52.2427 23.6176 51.5439 23.6176 50.4937C23.6176 49.7948 23.3718 48.9686 22.6575 47.0188L19.2627 37.8953H22.7842L24.6544 43.6714C25.05 44.8451 25.4686 46.4706 25.4686 46.4706H25.5185C25.5185 46.4706 25.8641 44.8451 26.2558 43.6714L28.0262 37.8953H31.3979L26.9932 51.0419C26.0331 53.8913 25.0961 54.9184 22.5385 54.9184H20.5684V52.2427H20.5646Z" fill="white"/>
<path d="M189.229 37.8954H192.451V39.6212H192.524C193.211 38.4475 194.444 37.5479 196.191 37.5479C197.792 37.5479 199.071 38.4475 199.686 39.7988H199.736C200.596 38.4012 201.925 37.5479 203.526 37.5479C206.183 37.5479 207.685 39.2969 207.685 42.0961V50.7215H204.336V42.6714C204.336 41.2235 203.622 40.4706 202.393 40.4706C200.991 40.4706 200.127 41.571 200.127 43.2698V50.7177H196.779V42.6675C196.779 41.2197 196.064 40.4668 194.835 40.4668C193.484 40.4668 192.57 41.5672 192.57 43.266V50.7138H189.225V37.8915L189.229 37.8954Z" fill="white"/>
<path d="M217.727 50.7177V49.2196H217.654C216.794 50.3933 215.807 51.069 214.037 51.069C211.23 51.069 209.655 49.2428 209.655 46.4436V37.8954H212.977V45.8683C212.977 47.3663 213.641 48.1926 215.07 48.1926C216.644 48.1926 217.604 46.9918 217.604 45.293V37.8954H220.953V50.7177H217.727Z" fill="white"/>
<path d="M222.382 37.8954H224.129V33.8954H227.401V37.8954H229.567V40.1463H227.401V46.9455C227.401 47.8953 227.919 48.2196 228.657 48.2196C229.075 48.2196 229.64 48.1964 229.64 48.1964V50.6945C229.64 50.6945 228.876 50.7447 227.547 50.7447C225.922 50.7447 224.125 50.096 224.125 47.6713V40.1463H222.378V37.8954H222.382Z" fill="white"/>
<path d="M230.55 44.293C230.55 40.4938 233.084 37.544 236.775 37.544C240.834 37.544 243 40.6946 243 45.266H233.845C234.091 47.2428 235.174 48.4667 237.067 48.4667C238.373 48.4667 239.133 47.8683 239.502 46.8914H242.8C242.332 49.1655 240.339 51.0922 237.09 51.0922C232.908 51.0922 230.542 48.1192 230.542 44.293H230.55ZM233.899 42.9185H239.509C239.409 41.293 238.353 40.1695 236.825 40.1695C235.055 40.1695 234.19 41.2428 233.895 42.9185H233.899Z" fill="white"/>
<path d="M102.258 68.3084H102.208C101.567 69.2852 100.657 70.0342 98.4911 70.0342C95.9066 70.0342 94.0863 68.6597 94.0863 66.1076C94.0863 63.2814 96.3521 62.3818 99.1555 61.9841C101.248 61.6829 102.208 61.5092 102.208 60.5362C102.208 59.5633 101.494 59.0111 100.092 59.0111C98.518 59.0111 97.7538 59.5864 97.6578 60.8104H94.6816C94.7814 58.5594 96.4289 56.5865 100.119 56.5865C103.81 56.5865 105.434 58.3123 105.434 61.3123V67.8373C105.434 68.8141 105.58 69.3856 105.876 69.6134V69.7369H102.65C102.454 69.486 102.331 68.8875 102.255 68.3122L102.258 68.3084ZM102.285 65.208V63.2814C101.694 63.6327 100.784 63.8296 99.9466 64.0304C98.1992 64.4319 97.339 64.8296 97.339 66.0304C97.339 67.2312 98.1263 67.6559 99.3091 67.6559C101.229 67.6559 102.285 66.4551 102.285 65.208Z" fill="white"/>
<path d="M110.776 58.9571H110.849C111.613 57.5092 112.473 56.7563 113.952 56.7563C114.321 56.7563 114.543 56.7795 114.739 56.8567V59.8297H114.666C112.477 59.6057 110.899 60.7795 110.899 63.4783V69.7292H107.554V56.9069H110.776V58.9571Z" fill="white"/>
<path d="M115.208 63.3084C115.208 59.5092 117.742 56.5594 121.433 56.5594C125.492 56.5594 127.658 59.71 127.658 64.2814H118.503C118.748 66.2582 119.831 67.4821 121.729 67.4821C123.034 67.4821 123.795 66.8837 124.163 65.9068H127.462C126.993 68.1809 125 70.1076 121.752 70.1076C117.57 70.1076 115.204 67.1346 115.204 63.3084H115.208ZM118.553 61.9339H124.163C124.063 60.3084 123.007 59.1849 121.479 59.1849C119.709 59.1849 118.844 60.2582 118.549 61.9339H118.553Z" fill="white"/>
<path d="M135.711 58.6597H135.784C136.644 57.2852 137.8 56.5593 139.524 56.5593C142.132 56.5593 143.879 58.5593 143.879 61.3585V69.7329H140.53V61.8604C140.53 60.4859 139.743 59.5129 138.341 59.5129C136.867 59.5129 135.784 60.7137 135.784 62.4627V69.7368H132.435V56.9145H135.707V58.6635L135.711 58.6597Z" fill="white"/>
<path d="M145.335 63.3314C145.335 59.5052 148.019 56.5593 151.928 56.5593C155.838 56.5593 158.526 59.5091 158.526 63.3314C158.526 67.1538 155.842 70.1036 151.928 70.1036C148.015 70.1036 145.335 67.1538 145.335 63.3314ZM155.127 63.3314C155.127 60.8334 153.971 59.1307 151.928 59.1307C149.885 59.1307 148.729 60.8295 148.729 63.3314C148.729 65.8333 149.862 67.5051 151.928 67.5051C153.994 67.5051 155.127 65.8295 155.127 63.3314Z" fill="white"/>
<path d="M159.09 56.9068H160.838V52.9068H164.11V56.9068H166.275V59.1577H164.11V65.9569C164.11 66.9067 164.628 67.231 165.365 67.231C165.784 67.231 166.348 67.2079 166.348 67.2079V69.7059C166.348 69.7059 165.584 69.7561 164.256 69.7561C162.631 69.7561 160.834 69.1074 160.834 66.6828V59.1577H159.087V56.9068H159.09Z" fill="white"/>
<path d="M170.273 51.8605H173.622V54.9107H170.273V51.8605ZM170.273 56.9068H173.622V69.7291H170.273V56.9068Z" fill="white"/>
<path d="M179.06 58.6596H179.133C179.993 57.2851 181.153 56.5593 182.873 56.5593C185.481 56.5593 187.228 58.5593 187.228 61.3585V69.7329H183.879V61.8604C183.879 60.4859 183.092 59.5129 181.69 59.5129C180.212 59.5129 179.129 60.7137 179.129 62.4627V69.7368H175.784V56.9145H179.056V58.6635L179.06 58.6596Z" fill="white"/>
<path d="M75.7491 37.8955H78.9749V39.6213H79.0479C79.7353 38.4476 80.968 37.548 82.7153 37.548C84.3167 37.548 85.5955 38.4476 86.2099 39.7989H86.2599C87.1201 38.4013 88.4488 37.548 90.0502 37.548C92.7077 37.548 94.2092 39.297 94.2092 42.0962V50.7216H90.8605V42.6715C90.8605 41.2236 90.1462 40.4707 88.9173 40.4707C87.5156 40.4707 86.6516 41.5711 86.6516 43.2699V50.7178H83.3029V42.6676C83.3029 41.2198 82.5886 40.4669 81.3597 40.4669C80.0079 40.4669 79.0939 41.5673 79.0939 43.2661V50.7139H75.7452V37.8916L75.7491 37.8955Z" fill="white"/>
<path d="M96.2753 32.8453H99.624V35.8955H96.2753V32.8453ZM96.2753 37.8955H99.624V50.7178H96.2753V37.8955Z" fill="white"/>
<path d="M105.062 39.6445H105.135C105.995 38.27 107.155 37.5441 108.875 37.5441C111.483 37.5441 113.23 39.5441 113.23 42.3433V50.7178H109.881V42.8452C109.881 41.4707 109.094 40.4978 107.692 40.4978C106.214 40.4978 105.131 41.6985 105.131 43.4476V50.7216H101.786V37.8993H105.058V39.6484L105.062 39.6445Z" fill="white"/>
<path d="M123.276 50.7178V49.2197H123.203C122.343 50.3934 121.356 51.0691 119.586 51.0691C116.778 51.0691 115.204 49.2429 115.204 46.4437V37.8955H118.526V45.8684C118.526 47.3664 119.19 48.1927 120.619 48.1927C122.193 48.1927 123.153 46.9919 123.153 45.2931V37.8955H126.502V50.7178H123.276Z" fill="white"/>
<path d="M127.927 37.8955H129.674V33.8955H132.946V37.8955H135.112V40.1464H132.946V46.9456C132.946 47.8954 133.464 48.2197 134.202 48.2197C134.62 48.2197 135.185 48.1965 135.185 48.1965V50.6946C135.185 50.6946 134.421 50.7448 133.092 50.7448C131.467 50.7448 129.67 50.0961 129.67 47.6714V40.1464H127.923V37.8955H127.927Z" fill="white"/>
<path d="M136.099 44.2931C136.099 40.4939 138.633 37.5441 142.324 37.5441C146.383 37.5441 148.549 40.6947 148.549 45.2661H139.394C139.639 47.2429 140.722 48.4668 142.616 48.4668C143.921 48.4668 144.682 47.8684 145.05 46.8915H148.349C147.881 49.1656 145.888 51.0923 142.639 51.0923C138.457 51.0923 136.091 48.1193 136.091 44.2931H136.099ZM139.444 42.9186H145.054C144.954 41.2931 143.898 40.1696 142.37 40.1696C140.6 40.1696 139.735 41.2429 139.44 42.9186H139.444Z" fill="white"/>
<path d="M149.313 46.5672H152.412C152.635 48.0421 153.668 48.6907 155.169 48.6907C156.671 48.6907 157.481 48.1155 157.481 47.2159C157.481 45.9919 155.88 45.8645 154.159 45.517C151.894 45.0653 149.682 44.4437 149.682 41.6406C149.682 38.8376 151.947 37.5403 154.824 37.5403C158.146 37.5403 159.993 39.2159 160.239 41.7912H157.212C157.067 40.4167 156.202 39.9148 154.778 39.9148C153.472 39.9148 152.612 40.4128 152.612 41.3395C152.612 42.4398 154.286 42.5402 156.083 42.9147C158.199 43.3665 160.538 43.9649 160.538 46.9649C160.538 49.5402 158.372 51.0884 155.223 51.0884C151.556 51.0884 149.513 49.2892 149.317 46.5634L149.313 46.5672Z" fill="white"/>
</svg>
