<svg width="800" height="800" viewBox="0 0 800 800" fill="none" xmlns="http://www.w3.org/2000/svg">
<path d="M399.055 254.81C396.872 254.81 395.115 256.59 395.115 258.75C395.115 260.91 396.895 262.69 399.055 262.69C401.215 262.69 402.996 260.91 402.996 258.75C402.996 256.59 401.215 254.81 399.055 254.81Z" fill="white"/>
<path d="M384.648 263.473C385.692 263.354 386.642 262.856 387.306 262.025C387.971 261.194 388.279 260.174 388.161 259.129C388.042 258.085 387.544 257.136 386.713 256.471C386.001 255.901 385.146 255.593 384.244 255.593C384.102 255.593 383.96 255.593 383.817 255.593C382.773 255.711 381.823 256.21 381.159 257.041C380.494 257.871 380.186 258.892 380.304 259.936C380.423 260.981 380.921 261.93 381.752 262.595C382.559 263.259 383.604 263.568 384.648 263.449V263.473Z" fill="white"/>
<path d="M366.253 259.723C365.683 260.601 365.469 261.669 365.707 262.69C366.158 264.826 368.27 266.203 370.383 265.728C372.519 265.277 373.872 263.165 373.421 261.052C373.017 259.201 371.38 257.919 369.552 257.919C369.291 257.919 369.006 257.943 368.721 258.014C367.701 258.228 366.799 258.845 366.229 259.723H366.253Z" fill="white"/>
<path d="M351.465 266.939C351.797 267.936 352.485 268.766 353.435 269.241C354.384 269.716 355.429 269.811 356.449 269.478C357.446 269.146 358.277 268.458 358.752 267.508C359.226 266.559 359.321 265.491 358.989 264.494C358.443 262.832 356.9 261.764 355.239 261.764C354.835 261.764 354.432 261.835 354.028 261.954C351.963 262.619 350.824 264.85 351.488 266.939H351.465Z" fill="white"/>
<path d="M342.967 274.629C344.961 273.751 345.863 271.401 344.961 269.407C344.297 267.935 342.872 267.057 341.353 267.057C340.807 267.057 340.261 267.176 339.763 267.389C337.769 268.268 336.867 270.618 337.769 272.611C338.647 274.605 340.997 275.483 342.991 274.605L342.967 274.629Z" fill="white"/>
<path d="M330.103 281.204C331.978 280.112 332.642 277.691 331.551 275.816C330.815 274.558 329.486 273.846 328.133 273.846C327.468 273.846 326.78 274.012 326.163 274.368C324.287 275.46 323.623 277.881 324.715 279.756C325.807 281.631 328.228 282.296 330.103 281.204Z" fill="white"/>
<path d="M318.852 283.553C318.235 282.699 317.309 282.129 316.265 281.963C316.051 281.939 315.837 281.916 315.647 281.916C314.817 281.916 314.01 282.177 313.345 282.675C311.589 283.957 311.185 286.425 312.467 288.182C313.749 289.938 316.217 290.342 317.973 289.06C319.73 287.778 320.134 285.31 318.852 283.553Z" fill="white"/>
<path d="M301.192 297.843C302.64 299.457 305.156 299.576 306.77 298.128C307.553 297.416 308.028 296.443 308.076 295.398C308.123 294.354 307.767 293.333 307.079 292.55C306.367 291.767 305.417 291.316 304.349 291.245C304.278 291.245 304.207 291.245 304.136 291.245C303.162 291.245 302.237 291.601 301.501 292.265C299.887 293.713 299.744 296.229 301.216 297.843H301.192Z" fill="white"/>
<path d="M289.68 305.913C289.728 306.957 290.203 307.931 290.986 308.643C291.769 309.355 292.814 309.711 293.834 309.663C294.879 309.616 295.852 309.141 296.564 308.358C298.012 306.744 297.893 304.228 296.279 302.78C295.543 302.115 294.617 301.759 293.644 301.759C293.573 301.759 293.502 301.759 293.431 301.759C292.386 301.807 291.413 302.281 290.701 303.065C289.989 303.848 289.633 304.869 289.68 305.913Z" fill="white"/>
<path d="M284.886 321.151C285.931 320.985 286.832 320.415 287.473 319.56C288.09 318.706 288.352 317.662 288.185 316.617C288.019 315.573 287.45 314.671 286.595 314.03C285.907 313.532 285.1 313.271 284.293 313.271C284.079 313.271 283.865 313.27 283.676 313.318C282.631 313.484 281.729 314.054 281.088 314.908C279.807 316.665 280.21 319.157 281.967 320.415C282.821 321.032 283.865 321.293 284.91 321.127L284.886 321.151Z" fill="white"/>
<path d="M279.996 328.699C279.711 327.679 279.07 326.824 278.145 326.302C277.528 325.946 276.839 325.78 276.175 325.78C274.798 325.78 273.469 326.492 272.757 327.75C272.234 328.652 272.092 329.72 272.353 330.741C272.638 331.761 273.279 332.616 274.205 333.138C275.13 333.66 276.175 333.803 277.195 333.541C278.216 333.257 279.07 332.616 279.593 331.69C280.115 330.788 280.257 329.72 279.996 328.699Z" fill="white"/>
<path d="M271.048 339.333C270.526 339.095 269.98 339 269.457 339C267.938 339 266.49 339.879 265.85 341.35C265.422 342.324 265.399 343.392 265.778 344.365C266.158 345.362 266.894 346.121 267.867 346.548C268.84 346.976 269.908 346.999 270.882 346.62C271.878 346.24 272.638 345.504 273.065 344.531C273.493 343.558 273.516 342.49 273.136 341.516C272.757 340.52 272.021 339.76 271.048 339.333Z" fill="white"/>
<path d="M260.367 355.592C260.034 356.589 260.129 357.657 260.604 358.606C261.079 359.556 261.909 360.244 262.906 360.576C263.903 360.909 264.971 360.814 265.921 360.339C266.87 359.864 267.559 359.034 267.891 358.037C268.223 357.04 268.128 355.972 267.654 355.022C267.179 354.073 266.348 353.384 265.351 353.052C264.948 352.91 264.544 352.862 264.141 352.862C262.479 352.862 260.913 353.93 260.39 355.592H260.367Z" fill="white"/>
<path d="M261.103 367.294C260.818 367.247 260.557 367.199 260.272 367.199C259.513 367.199 258.777 367.413 258.136 367.84C257.258 368.41 256.641 369.288 256.427 370.332C255.976 372.469 257.329 374.557 259.465 375.008C261.601 375.483 263.69 374.083 264.141 371.97C264.592 369.834 263.239 367.745 261.103 367.294Z" fill="white"/>
<path d="M258.349 381.892C258.207 381.892 258.064 381.892 257.922 381.892C257.02 381.892 256.142 382.2 255.453 382.77C254.622 383.434 254.124 384.384 254.005 385.428C253.792 387.588 255.358 389.535 257.518 389.772C258.563 389.867 259.607 389.582 260.414 388.917C261.245 388.253 261.743 387.303 261.862 386.259C262.076 384.099 260.509 382.153 258.349 381.915V381.892Z" fill="white"/>
<path d="M257.162 396.703C254.979 396.703 253.222 398.483 253.222 400.643C253.222 402.803 255.002 404.583 257.162 404.583C259.322 404.583 261.102 402.803 261.102 400.643C261.102 398.483 259.322 396.703 257.162 396.703Z" fill="white"/>
<path d="M258.349 419.418C259.393 419.299 260.343 418.801 261.007 417.97C261.672 417.139 261.981 416.119 261.862 415.074C261.743 414.03 261.245 413.08 260.414 412.416C259.702 411.846 258.848 411.538 257.946 411.538C257.803 411.538 257.661 411.538 257.518 411.538C256.474 411.656 255.524 412.155 254.86 412.985C254.195 413.816 253.887 414.837 254.005 415.881C254.124 416.926 254.622 417.875 255.453 418.54C256.26 419.204 257.305 419.513 258.349 419.394V419.418Z" fill="white"/>
<path d="M264.14 429.34C263.737 427.488 262.099 426.207 260.271 426.207C260.01 426.207 259.726 426.23 259.441 426.301C257.305 426.752 255.952 428.865 256.403 430.977C256.616 431.998 257.233 432.9 258.111 433.47C258.99 434.039 260.034 434.253 261.078 434.016C263.215 433.565 264.568 431.452 264.117 429.34H264.14Z" fill="white"/>
<path d="M265.328 448.257C266.325 447.925 267.156 447.237 267.63 446.287C268.105 445.338 268.2 444.27 267.868 443.273C267.203 441.208 264.972 440.068 262.883 440.733C260.818 441.398 259.679 443.629 260.343 445.718C261.008 447.783 263.263 448.922 265.328 448.257Z" fill="white"/>
<path d="M273.042 456.754C272.163 454.76 269.814 453.858 267.82 454.76C265.826 455.638 264.924 457.988 265.826 459.982C266.253 460.955 267.036 461.691 268.01 462.071C268.983 462.45 270.075 462.427 271.024 461.999C273.018 461.121 273.92 458.771 273.018 456.778L273.042 456.754Z" fill="white"/>
<path d="M278.145 475.031C280.02 473.939 280.685 471.518 279.593 469.643C278.857 468.385 277.528 467.673 276.175 467.673C275.51 467.673 274.822 467.839 274.205 468.195C272.33 469.287 271.665 471.708 272.757 473.583C273.849 475.458 276.27 476.123 278.145 475.031Z" fill="white"/>
<path d="M287.473 481.748C286.192 479.992 283.723 479.588 281.967 480.87C280.21 482.152 279.807 484.62 281.088 486.377C281.706 487.231 282.631 487.801 283.676 487.967C284.72 488.133 285.764 487.872 286.619 487.255C288.375 485.973 288.779 483.505 287.497 481.748H287.473Z" fill="white"/>
<path d="M290.677 498.245C292.125 499.859 294.641 500.001 296.255 498.53C297.869 497.082 298.011 494.566 296.54 492.952C295.092 491.338 292.576 491.195 290.962 492.667C289.348 494.115 289.205 496.631 290.677 498.245Z" fill="white"/>
<path d="M300.172 506.315C300.219 507.359 300.694 508.332 301.478 509.045C303.092 510.492 305.584 510.374 307.055 508.76C307.768 507.976 308.124 506.956 308.052 505.911C307.981 504.867 307.53 503.894 306.747 503.182C306.011 502.517 305.085 502.161 304.112 502.161C304.041 502.161 303.97 502.161 303.899 502.161C302.854 502.209 301.881 502.683 301.169 503.467C300.457 504.25 300.101 505.271 300.172 506.315Z" fill="white"/>
<path d="M316.289 519.346C317.333 519.18 318.235 518.61 318.876 517.755C320.158 515.999 319.754 513.507 317.998 512.249C317.309 511.75 316.502 511.489 315.695 511.489C315.482 511.489 315.268 511.489 315.078 511.537C314.034 511.703 313.132 512.272 312.491 513.127C311.874 513.981 311.613 515.026 311.779 516.07C311.945 517.115 312.515 518.017 313.369 518.657C314.224 519.275 315.268 519.536 316.313 519.37L316.289 519.346Z" fill="white"/>
<path d="M324.691 521.578C324.169 522.48 324.026 523.548 324.287 524.568C324.572 525.589 325.213 526.443 326.139 526.966C328.037 528.057 330.435 527.393 331.527 525.518C332.049 524.616 332.191 523.548 331.93 522.527C331.669 521.506 331.004 520.652 330.079 520.13C329.462 519.774 328.797 519.607 328.109 519.607C327.776 519.607 327.42 519.655 327.088 519.75C326.067 520.035 325.213 520.676 324.691 521.601V521.578Z" fill="white"/>
<path d="M344.962 531.902C345.84 529.908 344.962 527.582 342.968 526.68C342.446 526.443 341.9 526.348 341.378 526.348C339.859 526.348 338.411 527.226 337.77 528.698C336.892 530.691 337.77 533.017 339.764 533.919C340.737 534.347 341.805 534.37 342.778 533.991C343.775 533.611 344.535 532.875 344.962 531.902Z" fill="white"/>
<path d="M351.464 534.395C350.8 536.46 351.939 538.691 354.004 539.379C355.001 539.711 356.069 539.617 357.019 539.142C357.968 538.667 358.656 537.836 358.989 536.839C359.653 534.774 358.514 532.543 356.449 531.855C356.045 531.712 355.642 531.665 355.215 531.665C354.598 531.665 353.98 531.807 353.434 532.092C352.485 532.567 351.797 533.398 351.464 534.395Z" fill="white"/>
<path d="M370.382 535.581C369.338 535.368 368.294 535.558 367.415 536.127C366.537 536.697 365.92 537.575 365.706 538.62C365.255 540.756 366.608 542.845 368.744 543.296C370.857 543.747 372.969 542.394 373.42 540.257C373.871 538.121 372.518 536.032 370.382 535.581Z" fill="white"/>
<path d="M384.647 537.836C384.505 537.836 384.362 537.836 384.244 537.836C382.25 537.836 380.541 539.355 380.327 541.373C380.09 543.533 381.68 545.479 383.84 545.716C384.884 545.811 385.929 545.526 386.736 544.862C387.567 544.197 388.065 543.248 388.184 542.203C388.302 541.159 387.994 540.115 387.329 539.308C386.665 538.477 385.715 537.978 384.671 537.86L384.647 537.836Z" fill="white"/>
<path d="M399.055 538.596C396.872 538.596 395.115 540.376 395.115 542.536C395.115 544.696 396.895 546.476 399.055 546.476C401.215 546.476 402.996 544.696 402.996 542.536C402.996 540.376 401.215 538.596 399.055 538.596Z" fill="white"/>
<path d="M416.976 544.268C417.641 543.438 417.949 542.417 417.83 541.373C417.617 539.355 415.908 537.836 413.914 537.836C413.772 537.836 413.629 537.836 413.51 537.836C412.466 537.955 411.517 538.453 410.852 539.284C410.187 540.115 409.879 541.135 409.998 542.18C410.235 544.34 412.158 545.906 414.341 545.693C415.386 545.574 416.335 545.075 417 544.245L416.976 544.268Z" fill="white"/>
<path d="M431.882 541.61C432.452 540.732 432.641 539.663 432.428 538.643C432.214 537.598 431.597 536.72 430.719 536.151C430.078 535.723 429.342 535.51 428.583 535.51C428.298 535.51 428.037 535.533 427.752 535.605C426.731 535.818 425.829 536.435 425.26 537.314C424.69 538.192 424.5 539.26 424.714 540.281C424.927 541.301 425.544 542.203 426.423 542.773C427.301 543.343 428.369 543.556 429.39 543.319C430.41 543.105 431.312 542.488 431.882 541.61Z" fill="white"/>
<path d="M444.13 539.355C446.195 538.69 447.334 536.459 446.67 534.37C446.338 533.373 445.649 532.543 444.7 532.068C444.13 531.783 443.537 531.641 442.92 531.641C442.516 531.641 442.089 531.712 441.685 531.83C439.62 532.495 438.481 534.726 439.146 536.815C439.478 537.812 440.166 538.643 441.116 539.117C442.065 539.592 443.133 539.687 444.13 539.355Z" fill="white"/>
<path d="M458.395 533.896C460.389 533.018 461.291 530.668 460.389 528.674C459.724 527.202 458.3 526.324 456.781 526.324C456.235 526.324 455.689 526.443 455.191 526.656C453.197 527.535 452.295 529.885 453.197 531.878C454.075 533.872 456.425 534.774 458.419 533.872L458.395 533.896Z" fill="white"/>
<path d="M466.583 525.518C467.675 527.393 470.096 528.057 471.971 526.966C472.873 526.443 473.538 525.589 473.823 524.568C474.108 523.548 473.965 522.48 473.419 521.578C472.684 520.32 471.354 519.607 470.001 519.607C469.337 519.607 468.648 519.774 468.031 520.13C466.156 521.221 465.492 523.642 466.583 525.518Z" fill="white"/>
<path d="M485.668 513.127C484.386 511.37 481.917 510.967 480.161 512.249C478.405 513.53 478.001 515.999 479.283 517.755C480.564 519.512 483.033 519.915 484.789 518.634C485.644 518.016 486.214 517.091 486.38 516.046C486.546 515.002 486.285 513.958 485.668 513.103V513.127Z" fill="white"/>
<path d="M491.079 508.76C492.527 510.374 495.043 510.516 496.657 509.045C497.44 508.332 497.915 507.359 497.962 506.315C498.01 505.271 497.654 504.25 496.966 503.467C495.518 501.853 493.002 501.71 491.388 503.182C489.774 504.63 489.631 507.146 491.103 508.76H491.079Z" fill="white"/>
<path d="M500.573 495.8C500.621 496.844 501.096 497.817 501.879 498.529C502.662 499.241 503.707 499.597 504.727 499.55C505.772 499.503 506.745 499.028 507.457 498.245C508.169 497.461 508.525 496.441 508.454 495.396C508.406 494.352 507.931 493.379 507.148 492.667C506.412 492.002 505.487 491.646 504.514 491.646C504.442 491.646 504.371 491.646 504.3 491.646C503.255 491.693 502.282 492.168 501.57 492.951C500.858 493.735 500.502 494.755 500.573 495.8Z" fill="white"/>
<path d="M517.046 486.377C517.664 485.522 517.925 484.478 517.758 483.434C517.592 482.389 517.023 481.487 516.168 480.847C515.314 480.229 514.269 479.968 513.225 480.134C512.181 480.301 511.279 480.87 510.638 481.725C509.356 483.481 509.759 485.95 511.516 487.232C513.272 488.513 515.741 488.133 517.023 486.353L517.046 486.377Z" fill="white"/>
<path d="M518.518 469.643C517.996 470.545 517.853 471.613 518.114 472.634C518.375 473.654 519.04 474.509 519.966 475.031C520.868 475.553 521.936 475.696 522.956 475.435C523.977 475.15 524.832 474.509 525.354 473.583C525.876 472.681 526.018 471.613 525.757 470.592C525.496 469.572 524.832 468.717 523.906 468.195C523.289 467.839 522.624 467.673 521.936 467.673C521.604 467.673 521.247 467.72 520.915 467.815C519.895 468.1 519.04 468.741 518.518 469.667V469.643Z" fill="white"/>
<path d="M530.291 454.761C529.769 454.524 529.223 454.429 528.701 454.429C527.182 454.429 525.734 455.307 525.093 456.779C524.215 458.772 525.093 461.098 527.087 462C529.081 462.879 531.407 462 532.309 460.007C533.211 458.013 532.309 455.687 530.315 454.785L530.291 454.761Z" fill="white"/>
<path d="M537.53 442.703C537.055 441.754 536.225 441.065 535.228 440.733C533.163 440.068 530.932 441.208 530.243 443.273C529.579 445.338 530.718 447.569 532.783 448.257C534.848 448.922 537.079 447.783 537.767 445.718C538.1 444.721 538.005 443.653 537.53 442.703Z" fill="white"/>
<path d="M541.708 430.977C541.922 429.957 541.732 428.889 541.162 428.01C540.592 427.132 539.714 426.515 538.67 426.301C538.385 426.254 538.124 426.207 537.839 426.207C537.08 426.207 536.344 426.42 535.703 426.847C534.825 427.417 534.208 428.295 533.994 429.34C533.78 430.36 533.97 431.428 534.54 432.307C535.11 433.185 536.011 433.802 537.032 434.016C538.077 434.229 539.121 434.016 539.999 433.47C540.877 432.9 541.494 432.022 541.708 430.977Z" fill="white"/>
<path d="M540.592 411.562C540.45 411.562 540.307 411.562 540.165 411.562C539.263 411.562 538.385 411.87 537.696 412.44C536.889 413.104 536.367 414.054 536.249 415.098C536.13 416.143 536.438 417.187 537.103 417.994C537.768 418.825 538.717 419.323 539.761 419.442C540.782 419.537 541.85 419.252 542.657 418.587C543.464 417.923 543.986 416.973 544.105 415.929C544.224 414.885 543.915 413.84 543.251 413.033C542.586 412.202 541.637 411.704 540.592 411.585V411.562Z" fill="white"/>
<path d="M540.949 396.703C538.765 396.703 537.009 398.483 537.009 400.643C537.009 402.803 538.789 404.583 540.949 404.583C543.109 404.583 544.889 402.803 544.889 400.643C544.889 398.483 543.109 396.703 540.949 396.703Z" fill="white"/>
<path d="M540.592 389.748C541.637 389.63 542.586 389.131 543.251 388.301C543.915 387.47 544.224 386.449 544.105 385.405C543.986 384.36 543.488 383.411 542.657 382.746C541.945 382.177 541.091 381.868 540.189 381.868C540.046 381.868 539.904 381.868 539.761 381.868C538.717 381.987 537.768 382.485 537.103 383.316C536.438 384.147 536.13 385.167 536.249 386.212C536.367 387.256 536.866 388.206 537.696 388.87C538.527 389.535 539.548 389.82 540.592 389.725V389.748Z" fill="white"/>
<path d="M541.162 373.299C541.732 372.421 541.922 371.353 541.708 370.332C541.494 369.312 540.877 368.41 539.999 367.84C539.358 367.413 538.622 367.199 537.863 367.199C537.578 367.199 537.317 367.223 537.032 367.294C535.988 367.508 535.11 368.125 534.54 369.003C533.97 369.881 533.78 370.949 533.994 371.97C534.208 372.991 534.825 373.893 535.703 374.462C536.581 375.032 537.626 375.246 538.67 375.008C539.691 374.795 540.592 374.178 541.162 373.299Z" fill="white"/>
<path d="M530.505 355.022C530.031 355.972 529.936 357.04 530.268 358.037C530.6 359.034 531.289 359.864 532.238 360.339C533.188 360.814 534.256 360.909 535.253 360.576C537.318 359.912 538.457 357.681 537.792 355.592C537.46 354.595 536.772 353.764 535.822 353.29C535.253 353.005 534.659 352.862 534.042 352.862C533.638 352.862 533.211 352.934 532.808 353.052C531.811 353.384 530.98 354.073 530.505 355.022Z" fill="white"/>
<path d="M530.291 346.548C532.284 345.67 533.186 343.32 532.284 341.326C531.62 339.855 530.196 338.977 528.677 338.977C528.131 338.977 527.585 339.095 527.086 339.309C525.092 340.187 524.191 342.537 525.092 344.531C525.971 346.525 528.297 347.403 530.314 346.525L530.291 346.548Z" fill="white"/>
<path d="M523.93 333.138C525.805 332.046 526.47 329.625 525.378 327.75C524.856 326.848 524.001 326.183 522.981 325.922C522.648 325.827 522.292 325.78 521.96 325.78C521.272 325.78 520.607 325.97 519.99 326.302C518.115 327.394 517.45 329.815 518.542 331.69C519.634 333.565 522.055 334.23 523.93 333.138Z" fill="white"/>
<path d="M517.047 314.932C516.263 313.864 515.077 313.294 513.842 313.294C513.035 313.294 512.228 313.532 511.54 314.054C509.783 315.336 509.38 317.804 510.662 319.561C511.943 321.317 514.412 321.721 516.168 320.439C517.023 319.822 517.593 318.896 517.759 317.852C517.925 316.807 517.664 315.763 517.047 314.908V314.932Z" fill="white"/>
<path d="M501.57 308.358C502.282 309.141 503.255 309.592 504.3 309.663C505.32 309.711 506.365 309.355 507.148 308.643C507.931 307.931 508.406 306.957 508.453 305.913C508.501 304.869 508.145 303.848 507.456 303.065C506.673 302.21 505.605 301.759 504.513 301.759C503.564 301.759 502.638 302.092 501.878 302.78C501.095 303.492 500.621 304.465 500.573 305.51C500.526 306.554 500.882 307.575 501.57 308.358Z" fill="white"/>
<path d="M490.059 295.422C490.107 296.467 490.581 297.44 491.365 298.152C492.148 298.864 493.145 299.244 494.213 299.149C495.257 299.101 496.231 298.626 496.943 297.843C497.655 297.06 498.011 296.039 497.94 294.995C497.892 293.95 497.417 292.977 496.634 292.265C495.898 291.601 494.973 291.245 493.999 291.245C493.928 291.245 493.857 291.245 493.786 291.245C492.741 291.292 491.768 291.767 491.056 292.55C490.344 293.333 489.988 294.354 490.059 295.398V295.422Z" fill="white"/>
<path d="M485.668 288.182C486.95 286.425 486.546 283.933 484.79 282.675C484.101 282.177 483.294 281.916 482.487 281.916C482.274 281.916 482.06 281.916 481.87 281.963C480.826 282.129 479.924 282.699 479.283 283.553C478.666 284.408 478.405 285.452 478.571 286.497C478.737 287.541 479.307 288.443 480.161 289.084C481.918 290.366 484.386 289.962 485.668 288.206V288.182Z" fill="white"/>
<path d="M466.584 275.792C466.062 276.718 465.919 277.762 466.18 278.783C466.441 279.804 467.106 280.658 468.032 281.18C468.934 281.703 470.002 281.845 471.022 281.584C472.043 281.299 472.898 280.658 473.42 279.733C473.942 278.831 474.084 277.762 473.823 276.742C473.538 275.721 472.898 274.867 471.972 274.344C471.355 273.988 470.69 273.822 470.002 273.822C469.669 273.822 469.313 273.87 468.981 273.965C467.96 274.25 467.106 274.89 466.584 275.792Z" fill="white"/>
<path d="M460.389 272.635C461.267 270.641 460.389 268.315 458.395 267.413C457.873 267.176 457.327 267.081 456.805 267.081C455.286 267.081 453.838 267.959 453.197 269.43C452.319 271.424 453.197 273.75 455.191 274.652C456.164 275.08 457.232 275.103 458.205 274.724C459.202 274.344 459.962 273.608 460.389 272.635Z" fill="white"/>
<path d="M444.13 261.954C443.726 261.812 443.323 261.764 442.896 261.764C442.279 261.764 441.661 261.907 441.115 262.191C440.166 262.666 439.478 263.497 439.145 264.494C438.813 265.491 438.908 266.559 439.383 267.508C439.858 268.458 440.688 269.146 441.685 269.478C443.75 270.167 445.981 269.027 446.67 266.939C447.334 264.874 446.195 262.642 444.13 261.954Z" fill="white"/>
<path d="M432.427 262.69C432.641 261.669 432.451 260.601 431.881 259.723C431.312 258.845 430.433 258.228 429.389 258.014C429.104 257.966 428.843 257.919 428.558 257.919C427.799 257.919 427.063 258.133 426.422 258.56C425.544 259.129 424.927 260.008 424.713 261.052C424.262 263.188 425.615 265.277 427.751 265.728C428.772 265.942 429.84 265.752 430.718 265.182C431.597 264.612 432.214 263.734 432.427 262.69Z" fill="white"/>
<path d="M414.318 255.617C414.175 255.617 414.033 255.617 413.914 255.617C411.92 255.617 410.211 257.136 409.998 259.153C409.879 260.198 410.187 261.242 410.852 262.049C411.517 262.88 412.466 263.378 413.51 263.497C415.67 263.711 417.617 262.144 417.854 259.984C417.973 258.94 417.664 257.895 417 257.088C416.335 256.258 415.386 255.759 414.341 255.64L414.318 255.617Z" fill="white"/>
</svg>
