<svg width="800" height="800" viewBox="0 0 800 800" fill="none" xmlns="http://www.w3.org/2000/svg">
<path d="M400.357 259.042C401.664 259.042 402.723 257.983 402.723 256.676C402.723 255.369 401.664 254.31 400.357 254.31C399.05 254.31 397.99 255.369 397.99 256.676C397.99 257.983 399.05 259.042 400.357 259.042Z" fill="white"/>
<path d="M385.377 259.847C386.684 259.847 387.743 258.788 387.743 257.481C387.743 256.174 386.684 255.115 385.377 255.115C384.07 255.115 383.01 256.174 383.01 257.481C383.01 258.788 384.07 259.847 385.377 259.847Z" fill="white"/>
<path d="M370.543 262.189C371.85 262.189 372.91 261.13 372.91 259.823C372.91 258.516 371.85 257.457 370.543 257.457C369.236 257.457 368.177 258.516 368.177 259.823C368.177 261.13 369.236 262.189 370.543 262.189Z" fill="white"/>
<path d="M356.026 266.068C357.333 266.068 358.393 265.008 358.393 263.701C358.393 262.394 357.333 261.335 356.026 261.335C354.719 261.335 353.66 262.394 353.66 263.701C353.66 265.008 354.719 266.068 356.026 266.068Z" fill="white"/>
<path d="M342.022 271.46C343.329 271.46 344.389 270.4 344.389 269.093C344.389 267.786 343.329 266.727 342.022 266.727C340.715 266.727 339.656 267.786 339.656 269.093C339.656 270.4 340.715 271.46 342.022 271.46Z" fill="white"/>
<path d="M328.628 278.265C329.935 278.265 330.995 277.205 330.995 275.899C330.995 274.592 329.935 273.532 328.628 273.532C327.321 273.532 326.262 274.592 326.262 275.899C326.262 277.205 327.321 278.265 328.628 278.265Z" fill="white"/>
<path d="M316.04 286.438C317.347 286.438 318.406 285.378 318.406 284.071C318.406 282.765 317.347 281.705 316.04 281.705C314.733 281.705 313.673 282.765 313.673 284.071C313.673 285.378 314.733 286.438 316.04 286.438Z" fill="white"/>
<path d="M304.354 295.903C305.661 295.903 306.72 294.844 306.72 293.537C306.72 292.23 305.661 291.17 304.354 291.17C303.047 291.17 301.987 292.23 301.987 293.537C301.987 294.844 303.047 295.903 304.354 295.903Z" fill="white"/>
<path d="M293.742 306.514C295.049 306.514 296.108 305.455 296.108 304.148C296.108 302.841 295.049 301.782 293.742 301.782C292.435 301.782 291.375 302.841 291.375 304.148C291.375 305.455 292.435 306.514 293.742 306.514Z" fill="white"/>
<path d="M284.299 318.175C285.606 318.175 286.666 317.116 286.666 315.809C286.666 314.502 285.606 313.443 284.299 313.443C282.992 313.443 281.933 314.502 281.933 315.809C281.933 317.116 282.992 318.175 284.299 318.175Z" fill="white"/>
<path d="M276.126 330.787C277.433 330.787 278.493 329.728 278.493 328.421C278.493 327.114 277.433 326.055 276.126 326.055C274.819 326.055 273.76 327.114 273.76 328.421C273.76 329.728 274.819 330.787 276.126 330.787Z" fill="white"/>
<path d="M269.295 344.156C270.602 344.156 271.662 343.097 271.662 341.79C271.662 340.483 270.602 339.423 269.295 339.423C267.988 339.423 266.929 340.483 266.929 341.79C266.929 343.097 267.988 344.156 269.295 344.156Z" fill="white"/>
<path d="M263.928 358.183C265.235 358.183 266.294 357.123 266.294 355.817C266.294 354.51 265.235 353.45 263.928 353.45C262.621 353.45 261.561 354.51 261.561 355.817C261.561 357.123 262.621 358.183 263.928 358.183Z" fill="white"/>
<path d="M260.024 372.674C261.331 372.674 262.391 371.615 262.391 370.308C262.391 369.001 261.331 367.941 260.024 367.941C258.717 367.941 257.658 369.001 257.658 370.308C257.658 371.615 258.717 372.674 260.024 372.674Z" fill="white"/>
<path d="M257.682 387.506C258.989 387.506 260.048 386.447 260.048 385.14C260.048 383.833 258.989 382.773 257.682 382.773C256.375 382.773 255.315 383.833 255.315 385.14C255.315 386.447 256.375 387.506 257.682 387.506Z" fill="white"/>
<path d="M256.902 402.509C258.209 402.509 259.268 401.45 259.268 400.143C259.268 398.836 258.209 397.776 256.902 397.776C255.595 397.776 254.535 398.836 254.535 400.143C254.535 401.45 255.595 402.509 256.902 402.509Z" fill="white"/>
<path d="M257.682 417.511C258.989 417.511 260.048 416.452 260.048 415.145C260.048 413.838 258.989 412.779 257.682 412.779C256.375 412.779 255.315 413.838 255.315 415.145C255.315 416.452 256.375 417.511 257.682 417.511Z" fill="white"/>
<path d="M260.024 432.344C261.331 432.344 262.391 431.285 262.391 429.978C262.391 428.671 261.331 427.611 260.024 427.611C258.717 427.611 257.658 428.671 257.658 429.978C257.658 431.285 258.717 432.344 260.024 432.344Z" fill="white"/>
<path d="M263.928 446.835C265.235 446.835 266.294 445.775 266.294 444.468C266.294 443.161 265.235 442.102 263.928 442.102C262.621 442.102 261.561 443.161 261.561 444.468C261.561 445.775 262.621 446.835 263.928 446.835Z" fill="white"/>
<path d="M269.295 460.862C270.602 460.862 271.662 459.803 271.662 458.496C271.662 457.189 270.602 456.129 269.295 456.129C267.988 456.129 266.929 457.189 266.929 458.496C266.929 459.803 267.988 460.862 269.295 460.862Z" fill="white"/>
<path d="M276.126 474.23C277.433 474.23 278.493 473.171 278.493 471.864C278.493 470.557 277.433 469.498 276.126 469.498C274.819 469.498 273.76 470.557 273.76 471.864C273.76 473.171 274.819 474.23 276.126 474.23Z" fill="white"/>
<path d="M284.299 486.842C285.606 486.842 286.666 485.783 286.666 484.476C286.666 483.169 285.606 482.109 284.299 482.109C282.992 482.109 281.933 483.169 281.933 484.476C281.933 485.783 282.992 486.842 284.299 486.842Z" fill="white"/>
<path d="M293.742 498.503C295.049 498.503 296.108 497.443 296.108 496.136C296.108 494.829 295.049 493.77 293.742 493.77C292.435 493.77 291.375 494.829 291.375 496.136C291.375 497.443 292.435 498.503 293.742 498.503Z" fill="white"/>
<path d="M304.354 509.115C305.661 509.115 306.72 508.056 306.72 506.749C306.72 505.442 305.661 504.382 304.354 504.382C303.047 504.382 301.987 505.442 301.987 506.749C301.987 508.056 303.047 509.115 304.354 509.115Z" fill="white"/>
<path d="M316.04 518.58C317.347 518.58 318.406 517.52 318.406 516.213C318.406 514.907 317.347 513.847 316.04 513.847C314.733 513.847 313.673 514.907 313.673 516.213C313.673 517.52 314.733 518.58 316.04 518.58Z" fill="white"/>
<path d="M328.628 526.753C329.935 526.753 330.995 525.693 330.995 524.386C330.995 523.079 329.935 522.02 328.628 522.02C327.321 522.02 326.262 523.079 326.262 524.386C326.262 525.693 327.321 526.753 328.628 526.753Z" fill="white"/>
<path d="M342.022 533.559C343.329 533.559 344.389 532.499 344.389 531.192C344.389 529.886 343.329 528.826 342.022 528.826C340.715 528.826 339.656 529.886 339.656 531.192C339.656 532.499 340.715 533.559 342.022 533.559Z" fill="white"/>
<path d="M356.026 538.95C357.333 538.95 358.393 537.89 358.393 536.584C358.393 535.277 357.333 534.217 356.026 534.217C354.719 534.217 353.66 535.277 353.66 536.584C353.66 537.89 354.719 538.95 356.026 538.95Z" fill="white"/>
<path d="M370.543 542.829C371.85 542.829 372.91 541.77 372.91 540.463C372.91 539.156 371.85 538.097 370.543 538.097C369.236 538.097 368.177 539.156 368.177 540.463C368.177 541.77 369.236 542.829 370.543 542.829Z" fill="white"/>
<path d="M385.377 545.196C386.684 545.196 387.743 544.136 387.743 542.829C387.743 541.522 386.684 540.463 385.377 540.463C384.07 540.463 383.01 541.522 383.01 542.829C383.01 544.136 384.07 545.196 385.377 545.196Z" fill="white"/>
<path d="M400.357 545.976C401.664 545.976 402.723 544.917 402.723 543.61C402.723 542.303 401.664 541.244 400.357 541.244C399.05 541.244 397.99 542.303 397.99 543.61C397.99 544.917 399.05 545.976 400.357 545.976Z" fill="white"/>
<path d="M415.361 545.196C416.668 545.196 417.727 544.136 417.727 542.829C417.727 541.522 416.668 540.463 415.361 540.463C414.054 540.463 412.994 541.522 412.994 542.829C412.994 544.136 414.054 545.196 415.361 545.196Z" fill="white"/>
<path d="M430.194 542.829C431.501 542.829 432.56 541.77 432.56 540.463C432.56 539.156 431.501 538.097 430.194 538.097C428.887 538.097 427.827 539.156 427.827 540.463C427.827 541.77 428.887 542.829 430.194 542.829Z" fill="white"/>
<path d="M444.711 538.95C446.018 538.95 447.077 537.89 447.077 536.584C447.077 535.277 446.018 534.217 444.711 534.217C443.404 534.217 442.344 535.277 442.344 536.584C442.344 537.89 443.404 538.95 444.711 538.95Z" fill="white"/>
<path d="M458.715 533.559C460.022 533.559 461.081 532.499 461.081 531.192C461.081 529.886 460.022 528.826 458.715 528.826C457.408 528.826 456.348 529.886 456.348 531.192C456.348 532.499 457.408 533.559 458.715 533.559Z" fill="white"/>
<path d="M472.108 526.753C473.415 526.753 474.475 525.693 474.475 524.386C474.475 523.079 473.415 522.02 472.108 522.02C470.801 522.02 469.742 523.079 469.742 524.386C469.742 525.693 470.801 526.753 472.108 526.753Z" fill="white"/>
<path d="M484.697 518.58C486.004 518.58 487.064 517.52 487.064 516.213C487.064 514.907 486.004 513.847 484.697 513.847C483.39 513.847 482.331 514.907 482.331 516.213C482.331 517.52 483.39 518.58 484.697 518.58Z" fill="white"/>
<path d="M496.359 509.115C497.666 509.115 498.725 508.056 498.725 506.749C498.725 505.442 497.666 504.382 496.359 504.382C495.052 504.382 493.992 505.442 493.992 506.749C493.992 508.056 495.052 509.115 496.359 509.115Z" fill="white"/>
<path d="M506.996 498.503C508.303 498.503 509.363 497.443 509.363 496.136C509.363 494.829 508.303 493.77 506.996 493.77C505.689 493.77 504.63 494.829 504.63 496.136C504.63 497.443 505.689 498.503 506.996 498.503Z" fill="white"/>
<path d="M516.438 486.842C517.745 486.842 518.804 485.783 518.804 484.476C518.804 483.169 517.745 482.109 516.438 482.109C515.131 482.109 514.071 483.169 514.071 484.476C514.071 485.783 515.131 486.842 516.438 486.842Z" fill="white"/>
<path d="M524.611 474.23C525.918 474.23 526.978 473.171 526.978 471.864C526.978 470.557 525.918 469.498 524.611 469.498C523.304 469.498 522.245 470.557 522.245 471.864C522.245 473.171 523.304 474.23 524.611 474.23Z" fill="white"/>
<path d="M531.442 460.862C532.749 460.862 533.809 459.803 533.809 458.496C533.809 457.189 532.749 456.129 531.442 456.129C530.135 456.129 529.076 457.189 529.076 458.496C529.076 459.803 530.135 460.862 531.442 460.862Z" fill="white"/>
<path d="M536.809 446.835C538.116 446.835 539.176 445.775 539.176 444.468C539.176 443.161 538.116 442.102 536.809 442.102C535.502 442.102 534.443 443.161 534.443 444.468C534.443 445.775 535.502 446.835 536.809 446.835Z" fill="white"/>
<path d="M540.713 432.344C542.02 432.344 543.079 431.285 543.079 429.978C543.079 428.671 542.02 427.611 540.713 427.611C539.406 427.611 538.346 428.671 538.346 429.978C538.346 431.285 539.406 432.344 540.713 432.344Z" fill="white"/>
<path d="M543.056 417.511C544.363 417.511 545.422 416.452 545.422 415.145C545.422 413.838 544.363 412.779 543.056 412.779C541.749 412.779 540.689 413.838 540.689 415.145C540.689 416.452 541.749 417.511 543.056 417.511Z" fill="white"/>
<path d="M543.836 402.509C545.143 402.509 546.202 401.45 546.202 400.143C546.202 398.836 545.143 397.776 543.836 397.776C542.529 397.776 541.469 398.836 541.469 400.143C541.469 401.45 542.529 402.509 543.836 402.509Z" fill="white"/>
<path d="M543.056 387.506C544.363 387.506 545.422 386.447 545.422 385.14C545.422 383.833 544.363 382.773 543.056 382.773C541.749 382.773 540.689 383.833 540.689 385.14C540.689 386.447 541.749 387.506 543.056 387.506Z" fill="white"/>
<path d="M540.713 372.674C542.02 372.674 543.079 371.615 543.079 370.308C543.079 369.001 542.02 367.941 540.713 367.941C539.406 367.941 538.346 369.001 538.346 370.308C538.346 371.615 539.406 372.674 540.713 372.674Z" fill="white"/>
<path d="M536.809 358.183C538.116 358.183 539.176 357.123 539.176 355.817C539.176 354.51 538.116 353.45 536.809 353.45C535.502 353.45 534.443 354.51 534.443 355.817C534.443 357.123 535.502 358.183 536.809 358.183Z" fill="white"/>
<path d="M531.442 344.156C532.749 344.156 533.809 343.097 533.809 341.79C533.809 340.483 532.749 339.423 531.442 339.423C530.135 339.423 529.076 340.483 529.076 341.79C529.076 343.097 530.135 344.156 531.442 344.156Z" fill="white"/>
<path d="M524.611 330.787C525.918 330.787 526.978 329.728 526.978 328.421C526.978 327.114 525.918 326.055 524.611 326.055C523.304 326.055 522.245 327.114 522.245 328.421C522.245 329.728 523.304 330.787 524.611 330.787Z" fill="white"/>
<path d="M516.438 318.175C517.745 318.175 518.804 317.116 518.804 315.809C518.804 314.502 517.745 313.443 516.438 313.443C515.131 313.443 514.071 314.502 514.071 315.809C514.071 317.116 515.131 318.175 516.438 318.175Z" fill="white"/>
<path d="M506.996 306.514C508.303 306.514 509.363 305.455 509.363 304.148C509.363 302.841 508.303 301.782 506.996 301.782C505.689 301.782 504.63 302.841 504.63 304.148C504.63 305.455 505.689 306.514 506.996 306.514Z" fill="white"/>
<path d="M496.359 295.903C497.666 295.903 498.725 294.844 498.725 293.537C498.725 292.23 497.666 291.17 496.359 291.17C495.052 291.17 493.992 292.23 493.992 293.537C493.992 294.844 495.052 295.903 496.359 295.903Z" fill="white"/>
<path d="M484.697 286.438C486.004 286.438 487.064 285.378 487.064 284.071C487.064 282.765 486.004 281.705 484.697 281.705C483.39 281.705 482.331 282.765 482.331 284.071C482.331 285.378 483.39 286.438 484.697 286.438Z" fill="white"/>
<path d="M472.108 278.265C473.415 278.265 474.475 277.205 474.475 275.899C474.475 274.592 473.415 273.532 472.108 273.532C470.801 273.532 469.742 274.592 469.742 275.899C469.742 277.205 470.801 278.265 472.108 278.265Z" fill="white"/>
<path d="M458.715 271.46C460.022 271.46 461.081 270.4 461.081 269.093C461.081 267.786 460.022 266.727 458.715 266.727C457.408 266.727 456.348 267.786 456.348 269.093C456.348 270.4 457.408 271.46 458.715 271.46Z" fill="white"/>
<path d="M444.711 266.068C446.018 266.068 447.077 265.008 447.077 263.701C447.077 262.394 446.018 261.335 444.711 261.335C443.404 261.335 442.344 262.394 442.344 263.701C442.344 265.008 443.404 266.068 444.711 266.068Z" fill="white"/>
<path d="M430.194 262.189C431.501 262.189 432.56 261.13 432.56 259.823C432.56 258.516 431.501 257.457 430.194 257.457C428.887 257.457 427.827 258.516 427.827 259.823C427.827 261.13 428.887 262.189 430.194 262.189Z" fill="white"/>
<path d="M415.361 259.847C416.668 259.847 417.727 258.788 417.727 257.481C417.727 256.174 416.668 255.115 415.361 255.115C414.054 255.115 412.994 256.174 412.994 257.481C412.994 258.788 414.054 259.847 415.361 259.847Z" fill="white"/>
</svg>
