<svg width="800" height="800" viewBox="0 0 800 800" fill="none" xmlns="http://www.w3.org/2000/svg">
<path d="M400.523 537.481C324.966 537.481 263.507 475.998 263.507 400.441C263.507 324.884 324.99 263.401 400.523 263.401C476.056 263.401 537.539 324.884 537.539 400.441C537.539 475.998 476.056 537.481 400.523 537.481ZM400.523 264.014C325.296 264.014 264.072 325.214 264.072 400.464C264.072 475.715 325.272 536.915 400.523 536.915C475.774 536.915 536.974 475.715 536.974 400.464C536.974 325.214 475.774 264.014 400.523 264.014Z" fill="white"/>
<path d="M400.523 546.298C320.11 546.298 254.69 480.878 254.69 400.464C254.69 320.051 320.11 254.631 400.523 254.631C480.937 254.631 546.357 320.051 546.357 400.464C546.357 480.878 480.937 546.298 400.523 546.298ZM400.523 255.22C320.44 255.22 255.279 320.381 255.279 400.464C255.279 480.548 320.44 545.708 400.523 545.708C480.607 545.708 545.767 480.548 545.767 400.464C545.767 320.381 480.607 255.22 400.523 255.22Z" fill="white"/>
<path d="M400.806 254.914H400.217V264.132H400.806V254.914Z" fill="white"/>
<path d="M385.978 264.909L385.011 255.739L385.6 255.691L386.567 264.838L385.978 264.909Z" fill="white"/>
<path d="M370.517 258.043L369.94 258.166L371.855 267.182L372.432 267.06L370.517 258.043Z" fill="white"/>
<path d="M358.112 270.898L355.259 262.128L355.825 261.963L358.678 270.709L358.112 270.898Z" fill="white"/>
<path d="M341.595 267.385L341.057 267.625L344.806 276.046L345.344 275.806L341.595 267.385Z" fill="white"/>
<path d="M327.985 274.274L327.475 274.568L332.084 282.551L332.594 282.256L327.985 274.274Z" fill="white"/>
<path d="M320.157 290.347L314.734 282.897L315.206 282.543L320.628 289.993L320.157 290.347Z" fill="white"/>
<path d="M303.375 292.092L302.937 292.487L309.105 299.337L309.543 298.943L303.375 292.092Z" fill="white"/>
<path d="M299.01 309.442L292.174 303.289L292.574 302.864L299.411 309.017L299.01 309.442Z" fill="white"/>
<path d="M290.052 320.569L282.602 315.147L282.956 314.675L290.406 320.097L290.052 320.569Z" fill="white"/>
<path d="M274.612 327.425L274.318 327.935L282.3 332.544L282.595 332.033L274.612 327.425Z" fill="white"/>
<path d="M267.703 340.989L267.463 341.527L275.884 345.277L276.124 344.738L267.703 340.989Z" fill="white"/>
<path d="M270.768 358.619L262.021 355.766L262.21 355.2L270.956 358.053L270.768 358.619Z" fill="white"/>
<path d="M267.113 372.41L258.108 370.476L258.226 369.911L267.231 371.82L267.113 372.41Z" fill="white"/>
<path d="M264.897 386.508L255.75 385.542L255.821 384.952L264.968 385.919L264.897 386.508Z" fill="white"/>
<path d="M264.191 400.157H254.973V400.747H264.191V400.157Z" fill="white"/>
<path d="M255.821 415.953L255.75 415.387L264.897 414.42L264.968 415.01L255.821 415.953Z" fill="white"/>
<path d="M258.226 430.993L258.108 430.428L267.113 428.518L267.231 429.084L258.226 430.993Z" fill="white"/>
<path d="M262.21 445.704L262.021 445.139L270.768 442.31L270.956 442.852L262.21 445.704Z" fill="white"/>
<path d="M275.836 455.646L267.413 459.39L267.652 459.928L276.075 456.185L275.836 455.646Z" fill="white"/>
<path d="M282.33 468.351L274.345 472.956L274.64 473.467L282.625 468.862L282.33 468.351Z" fill="white"/>
<path d="M282.956 486.229L282.602 485.758L290.052 480.359L290.406 480.83L282.956 486.229Z" fill="white"/>
<path d="M292.574 498.063L292.174 497.615L299.01 491.462L299.411 491.887L292.574 498.063Z" fill="white"/>
<path d="M309.072 501.601L302.906 508.452L303.344 508.846L309.51 501.995L309.072 501.601Z" fill="white"/>
<path d="M315.206 518.362L314.734 518.032L320.157 510.582L320.628 510.912L315.206 518.362Z" fill="white"/>
<path d="M332.086 518.409L327.482 526.394L327.992 526.688L332.597 518.703L332.086 518.409Z" fill="white"/>
<path d="M344.802 524.838L341.059 533.261L341.598 533.501L345.341 525.077L344.802 524.838Z" fill="white"/>
<path d="M355.825 538.966L355.259 538.777L358.112 530.007L358.678 530.196L355.825 538.966Z" fill="white"/>
<path d="M371.902 533.72L369.99 542.737L370.567 542.86L372.478 533.842L371.902 533.72Z" fill="white"/>
<path d="M385.6 545.213L385.011 545.166L385.978 535.996L386.567 536.066L385.6 545.213Z" fill="white"/>
<path d="M400.806 536.773H400.216V545.991H400.806V536.773Z" fill="white"/>
<path d="M415.446 545.213L414.479 536.066L415.069 535.996L416.035 545.166L415.446 545.213Z" fill="white"/>
<path d="M429.188 533.72L428.612 533.842L430.53 542.858L431.106 542.736L429.188 533.72Z" fill="white"/>
<path d="M445.221 538.966L442.368 530.196L442.934 530.007L445.763 538.777L445.221 538.966Z" fill="white"/>
<path d="M456.224 524.908L455.685 525.148L459.434 533.569L459.973 533.329L456.224 524.908Z" fill="white"/>
<path d="M468.918 518.362L468.407 518.657L473.016 526.64L473.527 526.345L468.918 518.362Z" fill="white"/>
<path d="M485.817 518.362L480.418 510.912L480.889 510.582L486.312 518.032L485.817 518.362Z" fill="white"/>
<path d="M491.982 501.526L491.544 501.92L497.712 508.77L498.15 508.376L491.982 501.526Z" fill="white"/>
<path d="M508.472 498.063L501.635 491.887L502.036 491.462L508.872 497.615L508.472 498.063Z" fill="white"/>
<path d="M518.091 486.229L510.641 480.83L510.971 480.359L518.444 485.758L518.091 486.229Z" fill="white"/>
<path d="M518.708 468.359L518.413 468.869L526.396 473.478L526.69 472.968L518.708 468.359Z" fill="white"/>
<path d="M525.195 455.617L524.955 456.155L533.376 459.904L533.616 459.366L525.195 455.617Z" fill="white"/>
<path d="M538.836 445.704L530.09 442.852L530.255 442.31L539.025 445.139L538.836 445.704Z" fill="white"/>
<path d="M542.82 430.993L533.815 429.084L533.933 428.518L542.938 430.428L542.82 430.993Z" fill="white"/>
<path d="M545.225 415.953L536.078 415.01L536.125 414.42L545.296 415.387L545.225 415.953Z" fill="white"/>
<path d="M546.073 400.157H536.855V400.747H546.073V400.157Z" fill="white"/>
<path d="M536.125 386.508L536.078 385.919L545.225 384.952L545.296 385.542L536.125 386.508Z" fill="white"/>
<path d="M533.933 372.41L533.815 371.82L542.82 369.911L542.938 370.476L533.933 372.41Z" fill="white"/>
<path d="M530.255 358.619L530.09 358.053L538.836 355.2L539.025 355.766L530.255 358.619Z" fill="white"/>
<path d="M533.364 341.008L524.941 344.751L525.18 345.29L533.604 341.546L533.364 341.008Z" fill="white"/>
<path d="M526.449 327.387L518.464 331.992L518.758 332.502L526.743 327.898L526.449 327.387Z" fill="white"/>
<path d="M510.971 320.569L510.641 320.097L518.091 314.675L518.444 315.147L510.971 320.569Z" fill="white"/>
<path d="M502.036 309.442L501.635 309.017L508.472 302.864L508.872 303.289L502.036 309.442Z" fill="white"/>
<path d="M497.688 292.118L491.522 298.969L491.96 299.364L498.126 292.512L497.688 292.118Z" fill="white"/>
<path d="M480.889 290.347L480.418 289.993L485.817 282.543L486.312 282.897L480.889 290.347Z" fill="white"/>
<path d="M473.034 274.293L468.429 282.278L468.94 282.572L473.544 274.587L473.034 274.293Z" fill="white"/>
<path d="M459.447 267.346L455.703 275.769L456.242 276.008L459.985 267.585L459.447 267.346Z" fill="white"/>
<path d="M442.934 270.898L442.368 270.709L445.221 261.963L445.763 262.128L442.934 270.898Z" fill="white"/>
<path d="M430.5 258.049L428.588 267.066L429.165 267.189L431.077 258.171L430.5 258.049Z" fill="white"/>
<path d="M415.069 264.909L414.479 264.838L415.446 255.691L416.035 255.739L415.069 264.909Z" fill="white"/>
</svg>
