<svg width="801" height="800" viewBox="0 0 801 800" fill="none" xmlns="http://www.w3.org/2000/svg">
<path d="M400.593 150.72L407.136 139.372C405.153 138.227 402.883 137.614 400.593 137.614C398.303 137.614 396.034 138.227 394.05 139.372L400.593 150.72Z" fill="white"/>
<path d="M276.934 183.537V170.431C274.644 170.431 272.375 171.044 270.391 172.189C268.408 173.334 266.752 174.99 265.607 176.973L276.955 183.516L276.934 183.537Z" fill="white"/>
<path d="M185.213 274.379L178.67 263.032C176.687 264.177 175.03 265.833 173.885 267.816C172.74 269.799 172.127 272.069 172.127 274.359H185.233L185.213 274.379Z" fill="white"/>
<path d="M184.006 523.763H170.9C170.9 526.053 171.513 528.323 172.658 530.306C173.803 532.289 175.459 533.945 177.443 535.09L183.986 523.743L184.006 523.763Z" fill="white"/>
<path d="M274.849 615.485L263.501 622.028C264.646 624.011 266.303 625.668 268.286 626.813C270.269 627.958 272.539 628.571 274.829 628.571V615.465L274.849 615.485Z" fill="white"/>
<path d="M400.594 649.508L394.051 660.856C396.034 662.001 398.304 662.614 400.594 662.614C402.884 662.614 405.153 662.001 407.136 660.856L400.594 649.508Z" fill="white"/>
<path d="M524.232 616.692V629.798C526.522 629.798 528.792 629.184 530.775 628.039C532.758 626.894 534.415 625.238 535.56 623.255L524.212 616.712L524.232 616.692Z" fill="white"/>
<path d="M615.975 525.849L622.517 537.196C624.501 536.051 626.157 534.395 627.302 532.412C628.447 530.429 629.06 528.159 629.06 525.869H615.954L615.975 525.849Z" fill="white"/>
<path d="M649.978 400.063L661.325 406.606C662.47 404.623 663.084 402.353 663.084 400.063C663.084 397.773 662.47 395.504 661.325 393.52L649.978 400.063Z" fill="white"/>
<path d="M617.161 276.465H630.267C630.267 274.175 629.653 271.905 628.508 269.922C627.363 267.939 625.707 266.282 623.724 265.137L617.181 276.485L617.161 276.465Z" fill="white"/>
<path d="M526.318 184.743L537.666 178.2C536.521 176.217 534.864 174.561 532.881 173.416C530.898 172.271 528.628 171.657 526.338 171.657V184.763L526.318 184.743Z" fill="white"/>
<path d="M151.19 400.063L139.842 393.52C138.697 395.504 138.083 397.773 138.083 400.063C138.083 402.353 138.697 404.623 139.842 406.606L151.19 400.063Z" fill="white"/>
</svg>
