<svg width="800" height="800" viewBox="0 0 800 800" fill="none" xmlns="http://www.w3.org/2000/svg">
<path d="M399.697 161.287L411.552 140.764C407.946 138.692 403.861 137.596 399.697 137.596C395.533 137.596 391.448 138.692 387.842 140.764L399.697 161.287Z" fill="white"/>
<path d="M281.304 192.689V168.978C277.14 168.978 273.055 170.074 269.449 172.146C265.843 174.218 262.854 177.227 260.782 180.813L281.304 192.669V192.689Z" fill="white"/>
<path d="M193.475 279.68L181.62 259.158C178.013 261.23 175.024 264.239 172.952 267.825C170.88 271.431 169.784 275.516 169.784 279.68H193.495H193.475Z" fill="white"/>
<path d="M160.718 399.907L140.196 388.051C138.124 391.658 137.028 395.742 137.028 399.907C137.028 404.071 138.124 408.155 140.196 411.762L160.718 399.907Z" fill="white"/>
<path d="M192.299 518.479H168.589C168.589 522.643 169.685 526.728 171.757 530.334C173.829 533.941 176.838 536.929 180.424 539.002L192.28 518.479H192.299Z" fill="white"/>
<path d="M279.272 606.328L258.749 618.183C260.821 621.79 263.83 624.778 267.416 626.851C271.023 628.923 275.107 630.019 279.272 630.019V606.308V606.328Z" fill="white"/>
<path d="M399.697 638.906L387.841 659.428C391.448 661.5 395.532 662.596 399.697 662.596C403.861 662.596 407.946 661.5 411.552 659.428L399.697 638.906Z" fill="white"/>
<path d="M518.091 607.504V631.215C522.255 631.215 526.34 630.119 529.946 628.046C533.553 625.974 536.541 622.966 538.613 619.379L518.091 607.524V607.504Z" fill="white"/>
<path d="M605.919 520.512L617.775 541.034C621.381 538.962 624.37 535.953 626.442 532.367C628.514 528.761 629.61 524.676 629.61 520.512H605.899H605.919Z" fill="white"/>
<path d="M638.337 399.907L658.859 411.762C660.932 408.155 662.028 404.071 662.028 399.907C662.028 395.742 660.932 391.658 658.859 388.051L638.337 399.907Z" fill="white"/>
<path d="M607.095 281.712H630.805C630.805 277.548 629.709 273.464 627.637 269.857C625.565 266.251 622.556 263.262 618.97 261.19L607.115 281.712H607.095Z" fill="white"/>
<path d="M520.123 193.864L540.646 182.009C538.573 178.402 535.565 175.414 531.978 173.341C528.392 171.269 524.287 170.173 520.123 170.173V193.884V193.864Z" fill="white"/>
</svg>
