<svg width="800" height="800" viewBox="0 0 800 800" fill="none" xmlns="http://www.w3.org/2000/svg">
<path d="M387.732 147.367H380.766V143.389C384.543 143.251 387.903 141.879 388.537 137.992H393.878V168.496H387.732V147.367Z" fill="white"/>
<path d="M405.735 156.484C409.59 153.481 413.816 151.362 413.816 147.459C413.816 144.624 412.283 142.734 409.543 142.734C406.447 142.734 404.605 144.944 404.512 148.877H398.769C398.769 141.971 402.361 137.596 409.683 137.596C416.37 137.596 420.147 142.063 420.147 147.276C420.147 152.978 416.2 155.676 412.423 158.161C410.039 159.67 407.252 161.606 406.231 163.557H420.426V168.512H398.336C398.568 162.719 402.237 159.182 405.751 156.484H405.735Z" fill="white"/>
<path d="M265.952 180.418H258.986V176.439C262.763 176.302 266.122 174.93 266.757 171.042H272.098V201.546H265.952V180.403V180.418Z" fill="white"/>
<path d="M283.553 180.418H276.587V176.439C280.364 176.302 283.723 174.93 284.358 171.042H289.698V201.546H283.553V180.403V180.418Z" fill="white"/>
<path d="M168.863 270.726H161.897V266.747C165.674 266.61 169.033 265.238 169.668 261.351H175.009V291.855H168.863V270.711V270.726Z" fill="white"/>
<path d="M179.652 276.732C179.652 267.052 184.73 260.908 192.547 260.908C200.364 260.908 205.349 267.006 205.349 276.732C205.349 286.458 200.504 292.555 192.501 292.555C184.498 292.555 179.652 286.366 179.652 276.732ZM198.956 276.732C198.956 270.314 197.067 266.03 192.532 266.03C187.996 266.03 186.015 270.268 186.015 276.732C186.015 283.195 187.95 287.433 192.532 287.433C197.114 287.433 198.956 283.226 198.956 276.732Z" fill="white"/>
<path d="M139.095 407.97H145.024C145.519 409.784 146.959 411.293 149.699 411.293C151.634 411.293 153.073 410.714 154.141 409.387C155.349 407.878 156.03 405.409 156.076 402.268H155.983C154.374 404.128 152.206 405.592 148.847 405.592C142.609 405.592 137.841 401.384 137.841 394.936C137.841 388.487 142.826 384.326 149.42 384.326C157.593 384.326 162.175 389.417 162.175 399.677C162.175 409.357 158.894 415.912 149.869 415.912C143.445 415.912 139.761 412.558 139.095 408V407.97ZM155.891 394.921C155.891 391.475 153.244 389.036 149.745 389.036C146.247 389.036 143.677 391.552 143.677 394.829C143.677 398.274 145.922 400.713 149.699 400.713C153.197 400.713 155.891 398.411 155.891 394.921Z" fill="white"/>
<path d="M171.309 529.818C171.309 526.052 173.553 523.141 176.928 521.86V521.723C174.188 520.488 172.624 518.628 172.624 515.701C172.624 510.579 177.16 507.652 183.801 507.652C190.442 507.652 194.761 510.534 194.761 515.61C194.761 518.445 193.151 520.427 190.488 521.662V521.799C193.894 522.988 196.061 525.869 196.061 529.543C196.061 535.778 190.813 539.223 183.847 539.223C176.881 539.223 171.324 535.9 171.324 529.802L171.309 529.818ZM189.776 529.589C189.776 526.494 187.578 524.467 183.801 524.467C180.024 524.467 177.655 526.494 177.655 529.589C177.655 532.684 179.993 534.36 183.723 534.36C187.454 534.36 189.792 532.455 189.792 529.589H189.776ZM188.785 516.189C188.785 513.796 186.897 512.21 183.708 512.21C180.519 512.21 178.584 513.796 178.584 516.189C178.584 518.583 180.473 520.259 183.708 520.259C186.943 520.259 188.785 518.583 188.785 516.189Z" fill="white"/>
<path d="M279.605 603.844V603.753H264.342V598.585H286.262V603.539C280.735 609.073 275.627 617.869 275.178 628.875H268.537C268.94 617.732 274.961 608.585 279.621 603.844H279.605Z" fill="white"/>
<path d="M388.708 647.245C388.661 641.894 389.745 637.565 392.485 634.516C394.466 632.305 397.16 631.025 401.324 631.025C407.469 631.025 411.154 634.348 411.928 638.845H406.045C405.596 636.985 404.25 635.613 401.556 635.613C397.067 635.613 394.915 638.937 394.915 644.288H395.008C396.618 642.428 398.646 641.147 402.237 641.147C407.934 641.147 412.918 645.522 412.918 651.986C412.918 658.449 407.887 662.596 401.463 662.596C392.655 662.596 388.801 655.477 388.708 647.245ZM407.067 652.062C407.067 648.617 404.59 646.01 401.277 646.01C397.5 646.01 395.302 648.525 395.302 652.032C395.302 655.538 397.779 657.87 401.231 657.87C404.683 657.87 407.067 655.355 407.067 652.077V652.062Z" fill="white"/>
<path d="M513.522 620.11H519.543C520.085 623.067 522.593 624.485 525.782 624.485C529.28 624.485 531.478 622.016 531.478 618.784C531.478 615.201 529.002 613.22 525.782 613.22C523.444 613.22 521.649 614.104 520.751 615.125H514.868L517.825 598.585H535.968V603.585H522.098L520.937 610.125H521.029C522.376 608.982 524.574 608.219 527.407 608.219C532.841 608.219 537.825 612.244 537.825 618.784C537.825 625.324 532.655 629.531 525.921 629.531C519.187 629.531 514.11 625.994 513.522 620.11Z" fill="white"/>
<path d="M619.513 531.983H605.318V525.489L619.281 507.927H625.473V527.166H630.148V531.983H625.473V538.568H619.497V531.983H619.513ZM610.271 527.15H619.528V515.382H619.436L610.271 527.013V527.15Z" fill="white"/>
<path d="M639.126 404.906H644.962C645.194 408.534 646.804 411.049 651.03 411.049C654.435 411.049 656.463 409.235 656.463 406.141C656.463 403.229 654.575 401.461 650.798 401.461H648.909V396.902H650.658C653.584 396.902 655.643 395.439 655.643 392.878C655.643 390.485 653.986 388.899 651.293 388.899C647.794 388.899 646.092 391.155 645.952 394.296H640.116C640.349 388.32 644.157 384.295 651.293 384.295C657.717 384.295 661.85 387.436 661.85 392.482C661.85 395.881 659.652 397.878 656.603 398.854V398.945C660.503 399.875 662.841 402.345 662.841 406.552C662.841 412.833 657.593 415.882 651.262 415.882C643.321 415.882 639.234 411.552 639.141 404.921L639.126 404.906Z" fill="white"/>
<path d="M613.909 279.826C617.764 276.823 621.99 274.704 621.99 270.802C621.99 267.966 620.457 266.076 617.717 266.076C614.621 266.076 612.779 268.286 612.686 272.219H606.943C606.943 265.314 610.535 260.938 617.856 260.938C624.544 260.938 628.321 265.405 628.321 270.619C628.321 276.32 624.373 279.018 620.596 281.503C618.213 283.012 615.426 284.948 614.404 286.9H628.6V291.854H606.51C606.742 286.061 610.411 282.524 613.925 279.826H613.909Z" fill="white"/>
<path d="M525.287 180.402H518.321V176.423C522.098 176.286 525.457 174.914 526.092 171.027H531.432V201.531H525.287V180.387V180.402Z" fill="white"/>
</svg>
