<svg width="800" height="799" viewBox="0 0 800 799" fill="none" xmlns="http://www.w3.org/2000/svg">
<path d="M400.172 143.304C401.846 143.304 403.203 141.947 403.203 140.273C403.203 138.599 401.846 137.243 400.172 137.243C398.499 137.243 397.142 138.599 397.142 140.273C397.142 141.947 398.499 143.304 400.172 143.304Z" fill="white"/>
<path d="M400.172 160.122C401.846 160.122 403.203 158.765 403.203 157.092C403.203 155.418 401.846 154.061 400.172 154.061C398.499 154.061 397.142 155.418 397.142 157.092C397.142 158.765 398.499 160.122 400.172 160.122Z" fill="white"/>
<path d="M271.466 177.482C273.139 177.482 274.496 176.125 274.496 174.452C274.496 172.778 273.139 171.421 271.466 171.421C269.792 171.421 268.435 172.778 268.435 174.452C268.435 176.125 269.792 177.482 271.466 177.482Z" fill="white"/>
<path d="M279.875 192.053C281.549 192.053 282.906 190.696 282.906 189.022C282.906 187.348 281.549 185.992 279.875 185.992C278.201 185.992 276.844 187.348 276.844 189.022C276.844 190.696 278.201 192.053 279.875 192.053Z" fill="white"/>
<path d="M176.055 272.01C177.729 272.01 179.086 270.653 179.086 268.979C179.086 267.306 177.729 265.949 176.055 265.949C174.381 265.949 173.025 267.306 173.025 268.979C173.025 270.653 174.381 272.01 176.055 272.01Z" fill="white"/>
<path d="M190.626 280.439C192.3 280.439 193.657 279.082 193.657 277.409C193.657 275.735 192.3 274.378 190.626 274.378C188.953 274.378 187.596 275.735 187.596 277.409C187.596 279.082 188.953 280.439 190.626 280.439Z" fill="white"/>
<path d="M140.712 402.763C142.386 402.763 143.743 401.407 143.743 399.733C143.743 398.059 142.386 396.702 140.712 396.702C139.039 396.702 137.682 398.059 137.682 399.733C137.682 401.407 139.039 402.763 140.712 402.763Z" fill="white"/>
<path d="M157.531 402.763C159.204 402.763 160.561 401.407 160.561 399.733C160.561 398.059 159.204 396.702 157.531 396.702C155.857 396.702 154.5 398.059 154.5 399.733C154.5 401.407 155.857 402.763 157.531 402.763Z" fill="white"/>
<path d="M174.891 531.489C176.565 531.489 177.921 530.132 177.921 528.459C177.921 526.785 176.565 525.428 174.891 525.428C173.217 525.428 171.86 526.785 171.86 528.459C171.86 530.132 173.217 531.489 174.891 531.489Z" fill="white"/>
<path d="M189.461 523.08C191.135 523.08 192.492 521.724 192.492 520.05C192.492 518.376 191.135 517.019 189.461 517.019C187.788 517.019 186.431 518.376 186.431 520.05C186.431 521.724 187.788 523.08 189.461 523.08Z" fill="white"/>
<path d="M269.419 626.9C271.092 626.9 272.449 625.543 272.449 623.87C272.449 622.196 271.092 620.839 269.419 620.839C267.745 620.839 266.388 622.196 266.388 623.87C266.388 625.543 267.745 626.9 269.419 626.9Z" fill="white"/>
<path d="M277.848 612.309C279.521 612.309 280.878 610.952 280.878 609.279C280.878 607.605 279.521 606.248 277.848 606.248C276.174 606.248 274.817 607.605 274.817 609.279C274.817 610.952 276.174 612.309 277.848 612.309Z" fill="white"/>
<path d="M400.172 662.243C401.846 662.243 403.203 660.886 403.203 659.212C403.203 657.538 401.846 656.182 400.172 656.182C398.498 656.182 397.142 657.538 397.142 659.212C397.142 660.886 398.498 662.243 400.172 662.243Z" fill="white"/>
<path d="M400.172 645.404C401.846 645.404 403.203 644.047 403.203 642.374C403.203 640.7 401.846 639.343 400.172 639.343C398.498 639.343 397.142 640.7 397.142 642.374C397.142 644.047 398.498 645.404 400.172 645.404Z" fill="white"/>
<path d="M528.9 628.064C530.573 628.064 531.93 626.708 531.93 625.034C531.93 623.36 530.573 622.003 528.9 622.003C527.226 622.003 525.869 623.36 525.869 625.034C525.869 626.708 527.226 628.064 528.9 628.064Z" fill="white"/>
<path d="M520.49 613.494C522.163 613.494 523.52 612.137 523.52 610.463C523.52 608.79 522.163 607.433 520.49 607.433C518.816 607.433 517.459 608.79 517.459 610.463C517.459 612.137 518.816 613.494 520.49 613.494Z" fill="white"/>
<path d="M624.31 533.517C625.984 533.517 627.341 532.16 627.341 530.486C627.341 528.812 625.984 527.456 624.31 527.456C622.636 527.456 621.28 528.812 621.28 530.486C621.28 532.16 622.636 533.517 624.31 533.517Z" fill="white"/>
<path d="M609.719 525.107C611.393 525.107 612.75 523.751 612.75 522.077C612.75 520.403 611.393 519.046 609.719 519.046C608.046 519.046 606.689 520.403 606.689 522.077C606.689 523.751 608.046 525.107 609.719 525.107Z" fill="white"/>
<path d="M659.652 402.763C661.326 402.763 662.682 401.407 662.682 399.733C662.682 398.059 661.326 396.702 659.652 396.702C657.978 396.702 656.621 398.059 656.621 399.733C656.621 401.407 657.978 402.763 659.652 402.763Z" fill="white"/>
<path d="M642.814 402.763C644.488 402.763 645.844 401.407 645.844 399.733C645.844 398.059 644.488 396.702 642.814 396.702C641.14 396.702 639.783 398.059 639.783 399.733C639.783 401.407 641.14 402.763 642.814 402.763Z" fill="white"/>
<path d="M625.474 274.057C627.148 274.057 628.504 272.7 628.504 271.027C628.504 269.353 627.148 267.996 625.474 267.996C623.8 267.996 622.443 269.353 622.443 271.027C622.443 272.7 623.8 274.057 625.474 274.057Z" fill="white"/>
<path d="M610.903 282.466C612.577 282.466 613.933 281.109 613.933 279.436C613.933 277.762 612.577 276.405 610.903 276.405C609.229 276.405 607.872 277.762 607.872 279.436C607.872 281.109 609.229 282.466 610.903 282.466Z" fill="white"/>
<path d="M530.925 178.646C532.599 178.646 533.956 177.289 533.956 175.615C533.956 173.942 532.599 172.585 530.925 172.585C529.252 172.585 527.895 173.942 527.895 175.615C527.895 177.289 529.252 178.646 530.925 178.646Z" fill="white"/>
<path d="M522.517 193.217C524.19 193.217 525.547 191.86 525.547 190.186C525.547 188.513 524.19 187.156 522.517 187.156C520.843 187.156 519.486 188.513 519.486 190.186C519.486 191.86 520.843 193.217 522.517 193.217Z" fill="white"/>
</svg>
