<svg width="800" height="800" viewBox="0 0 800 800" fill="none" xmlns="http://www.w3.org/2000/svg">
<path d="M627.634 523.33H617.259V533.705H627.634V523.33Z" fill="white"/>
<path d="M147.496 394.849H137.121V405.224H147.496V394.849Z" fill="white"/>
<path d="M533.454 617.53H523.079V627.905H533.454V617.53Z" fill="white"/>
<path d="M533.454 171.838H523.079V182.213H533.454V171.838Z" fill="white"/>
<path d="M662.121 394.849H651.746V405.224H662.121V394.849Z" fill="white"/>
<path d="M627.634 266.017H617.259V276.392H627.634V266.017Z" fill="white"/>
<path d="M404.809 137.371H394.434V147.746H404.809V137.371Z" fill="white"/>
<path d="M181.962 266.017H171.587V276.392H181.962V266.017Z" fill="white"/>
<path d="M404.809 651.996H394.434V662.371H404.809V651.996Z" fill="white"/>
<path d="M181.962 523.33H171.587V533.705H181.962V523.33Z" fill="white"/>
<path d="M276.142 171.838H265.767V182.213H276.142V171.838Z" fill="white"/>
<path d="M276.142 617.53H265.767V627.905H276.142V617.53Z" fill="white"/>
</svg>
