<svg width="800" height="800" viewBox="0 0 800 800" fill="none" xmlns="http://www.w3.org/2000/svg">
<path d="M401.6 161.79C408.281 161.79 413.697 156.374 413.697 149.693C413.697 143.012 408.281 137.596 401.6 137.596C394.919 137.596 389.503 143.012 389.503 149.693C389.503 156.374 394.919 161.79 401.6 161.79Z" fill="white"/>
<path d="M276.248 194.746C282.929 194.746 288.345 189.33 288.345 182.649C288.345 175.968 282.929 170.552 276.248 170.552C269.567 170.552 264.151 175.968 264.151 182.649C264.151 189.33 269.567 194.746 276.248 194.746Z" fill="white"/>
<path d="M184.153 285.978C190.834 285.978 196.25 280.561 196.25 273.88C196.25 267.199 190.834 261.783 184.153 261.783C177.472 261.783 172.056 267.199 172.056 273.88C172.056 280.561 177.472 285.978 184.153 285.978Z" fill="white"/>
<path d="M150.031 411.028C156.712 411.028 162.129 405.612 162.129 398.931C162.129 392.25 156.712 386.834 150.031 386.834C143.35 386.834 137.934 392.25 137.934 398.931C137.934 405.612 143.35 411.028 150.031 411.028Z" fill="white"/>
<path d="M182.987 536.38C189.668 536.38 195.084 530.964 195.084 524.283C195.084 517.602 189.668 512.186 182.987 512.186C176.306 512.186 170.89 517.602 170.89 524.283C170.89 530.964 176.306 536.38 182.987 536.38Z" fill="white"/>
<path d="M274.218 628.475C280.899 628.475 286.315 623.059 286.315 616.378C286.315 609.697 280.899 604.281 274.218 604.281C267.537 604.281 262.121 609.697 262.121 616.378C262.121 623.059 267.537 628.475 274.218 628.475Z" fill="white"/>
<path d="M399.269 662.596C405.95 662.596 411.366 657.18 411.366 650.499C411.366 643.818 405.95 638.402 399.269 638.402C392.588 638.402 387.172 643.818 387.172 650.499C387.172 657.18 392.588 662.596 399.269 662.596Z" fill="white"/>
<path d="M524.621 629.641C531.302 629.641 536.718 624.224 536.718 617.543C536.718 610.862 531.302 605.446 524.621 605.446C517.94 605.446 512.523 610.862 512.523 617.543C512.523 624.224 517.94 629.641 524.621 629.641Z" fill="white"/>
<path d="M616.716 538.409C623.397 538.409 628.813 532.993 628.813 526.312C628.813 519.631 623.397 514.215 616.716 514.215C610.035 514.215 604.618 519.631 604.618 526.312C604.618 532.993 610.035 538.409 616.716 538.409Z" fill="white"/>
<path d="M650.837 413.359C657.518 413.359 662.934 407.943 662.934 401.262C662.934 394.581 657.518 389.165 650.837 389.165C644.156 389.165 638.74 394.581 638.74 401.262C638.74 407.943 644.156 413.359 650.837 413.359Z" fill="white"/>
<path d="M617.881 288.007C624.563 288.007 629.979 282.591 629.979 275.91C629.979 269.229 624.563 263.812 617.881 263.812C611.2 263.812 605.784 269.229 605.784 275.91C605.784 282.591 611.2 288.007 617.881 288.007Z" fill="white"/>
<path d="M526.65 195.912C533.331 195.912 538.747 190.496 538.747 183.814C538.747 177.133 533.331 171.717 526.65 171.717C519.969 171.717 514.553 177.133 514.553 183.814C514.553 190.496 519.969 195.912 526.65 195.912Z" fill="white"/>
</svg>
