<svg width="799" height="800" viewBox="0 0 799 800" fill="none" xmlns="http://www.w3.org/2000/svg">
<path d="M409.089 137.192H390.375V155.886H409.089V137.192Z" fill="white"/>
<path d="M409.089 643.499H390.375V662.193H409.089V643.499Z" fill="white"/>
<path d="M282.522 171.068H263.809V189.761H282.522V171.068Z" fill="white"/>
<path d="M189.868 263.622H171.154V282.316H189.868V263.622Z" fill="white"/>
<path d="M137.242 390.052V408.745H155.956V390.052H137.242Z" fill="white"/>
<path d="M189.868 516.48H171.154V535.174H189.868V516.48Z" fill="white"/>
<path d="M282.522 609.035H263.809V627.728H282.522V609.035Z" fill="white"/>
<path d="M535.676 609.035H516.962V627.728H535.676V609.035Z" fill="white"/>
<path d="M628.329 516.48H609.616V535.174H628.329V516.48Z" fill="white"/>
<path d="M662.242 408.765V390.072H643.529V408.765H662.242Z" fill="white"/>
<path d="M628.329 263.622H609.616V282.316H628.329V263.622Z" fill="white"/>
<path d="M535.676 171.068H516.962V189.761H535.676V171.068Z" fill="white"/>
</svg>
