<svg width="800" height="800" viewBox="0 0 800 800" fill="none" xmlns="http://www.w3.org/2000/svg">
<path d="M532.732 173.155C531.705 172.56 530.596 172.293 529.508 172.293C527.271 172.293 525.074 173.463 523.883 175.537C522.097 178.637 523.164 182.599 526.265 184.386C527.763 185.248 529.508 185.494 531.192 185.043C532.855 184.591 534.271 183.523 535.134 182.025C535.996 180.526 536.222 178.781 535.791 177.097C535.339 175.434 534.271 174.018 532.773 173.155H532.732Z" fill="white"/>
<path d="M530.637 627.798C533.737 626.012 534.805 622.029 533.019 618.95C531.828 616.876 529.631 615.706 527.394 615.706C526.285 615.706 525.176 615.993 524.17 616.568C521.07 618.354 520.003 622.337 521.789 625.417C523.575 628.517 527.558 629.585 530.637 627.798Z" fill="white"/>
<path d="M618.302 534.529C619.801 535.392 621.546 535.617 623.229 535.186C624.892 534.735 626.309 533.667 627.171 532.168C628.957 529.068 627.89 525.106 624.789 523.32C623.783 522.745 622.675 522.458 621.566 522.458C621.012 522.458 620.437 522.54 619.883 522.683C618.199 523.135 616.803 524.203 615.941 525.701C614.155 528.801 615.222 532.764 618.323 534.55L618.302 534.529Z" fill="white"/>
<path d="M401.646 150.346C405.218 150.346 408.133 147.431 408.133 143.859C408.133 140.287 405.218 137.371 401.646 137.371C398.073 137.371 395.158 140.287 395.158 143.859C395.158 147.431 398.073 150.346 401.646 150.346Z" fill="white"/>
<path d="M621.074 279.174C622.737 279.625 624.502 279.4 626.001 278.537C629.101 276.751 630.148 272.768 628.362 269.689C627.5 268.19 626.104 267.123 624.42 266.671C623.866 266.527 623.291 266.445 622.737 266.445C621.607 266.445 620.499 266.732 619.513 267.307C618.015 268.17 616.947 269.566 616.495 271.249C616.044 272.912 616.27 274.678 617.152 276.176C618.015 277.675 619.411 278.743 621.094 279.194L621.074 279.174Z" fill="white"/>
<path d="M656.447 407.57C660.03 407.57 662.934 404.666 662.934 401.083C662.934 397.5 660.03 394.595 656.447 394.595C652.864 394.595 649.959 397.5 649.959 401.083C649.959 404.666 652.864 407.57 656.447 407.57Z" fill="white"/>
<path d="M405.711 655.884C405.711 652.312 402.795 649.396 399.223 649.396C395.651 649.396 392.736 652.312 392.736 655.884C392.736 659.456 395.651 662.371 399.223 662.371C402.795 662.371 405.711 659.456 405.711 655.884Z" fill="white"/>
<path d="M182.566 265.213C179.466 263.427 175.504 264.495 173.718 267.595C171.932 270.695 172.999 274.657 176.099 276.443C177.598 277.306 179.343 277.532 181.027 277.1C182.69 276.649 184.106 275.581 184.968 274.082C186.755 270.982 185.687 267.02 182.587 265.234L182.566 265.213Z" fill="white"/>
<path d="M144.422 392.193C140.85 392.193 137.934 395.108 137.934 398.681C137.934 402.253 140.85 405.168 144.422 405.168C147.994 405.168 150.909 402.253 150.909 398.681C150.909 395.108 147.994 392.193 144.422 392.193Z" fill="white"/>
<path d="M176.449 533.113C178.112 533.564 179.877 533.339 181.376 532.456C184.476 530.67 185.544 526.687 183.757 523.607C182.567 521.534 180.37 520.364 178.132 520.364C177.024 520.364 175.915 520.651 174.909 521.226C171.809 523.012 170.741 526.995 172.527 530.074C173.39 531.573 174.786 532.641 176.469 533.092L176.449 533.113Z" fill="white"/>
<path d="M268.158 626.608C271.258 628.394 275.22 627.326 277.006 624.226C277.868 622.727 278.094 620.982 277.663 619.299C277.211 617.636 276.144 616.219 274.645 615.357C273.146 614.495 271.401 614.269 269.718 614.7C268.034 615.152 266.638 616.219 265.776 617.718C263.99 620.818 265.058 624.78 268.158 626.566V626.608Z" fill="white"/>
<path d="M270.231 171.944C267.131 173.731 266.063 177.713 267.85 180.793C269.636 183.872 273.619 184.961 276.698 183.174C278.197 182.312 279.264 180.916 279.716 179.233C280.168 177.57 279.942 175.804 279.059 174.305C277.273 171.205 273.29 170.138 270.211 171.924L270.231 171.944Z" fill="white"/>
</svg>
