<svg width="1631" height="1080" viewBox="0 0 1631 1080" fill="none" xmlns="http://www.w3.org/2000/svg">
<rect x="0.00195312" width="1630.46" height="1080" fill="#75CFFF"/>
<mask id="mask0_49_4829" style="mask-type:alpha" maskUnits="userSpaceOnUse" x="0" y="0" width="1631" height="1080">
<rect width="1630.46" height="1080" fill="#F7F7F7"/>
</mask>
<g mask="url(#mask0_49_4829)">
<g opacity="0.2">
<path d="M198.091 179.902C183.2 188.562 173.147 204.707 173.147 223.205C173.147 250.835 195.507 273.193 223.035 273.193C250.563 273.193 272.923 250.788 272.923 223.205C272.923 195.623 250.563 173.218 223.035 173.218L223.035 223.205L198.091 179.902Z" fill="#F7F7F7"/>
<path d="M1555.63 4.33338C1560.61 1.46216 1563.94 -3.95078 1563.94 -10.1168C1563.94 -19.3424 1556.52 -26.7793 1547.31 -26.7793C1538.11 -26.7793 1530.69 -19.3424 1530.69 -10.1168C1530.69 -0.891293 1538.11 6.54563 1547.31 6.54563L1547.31 -10.1168L1555.63 4.33338Z" fill="#F7F7F7"/>
<path d="M1489.12 70.9838C1494.1 68.1125 1497.43 62.6996 1497.43 56.5336C1497.43 47.308 1490.01 39.8711 1480.8 39.8711C1471.59 39.8711 1464.17 47.308 1464.17 56.5335C1464.17 65.7591 1471.59 73.196 1480.8 73.196L1480.8 56.5336L1489.12 70.9838Z" fill="#F7F7F7"/>
<path d="M1422.6 137.634C1427.58 134.763 1430.91 129.35 1430.91 123.184C1430.91 113.958 1423.49 106.521 1414.28 106.521C1405.08 106.521 1397.65 113.958 1397.65 123.184C1397.65 132.409 1405.08 139.846 1414.28 139.846L1414.28 123.184L1422.6 137.634Z" fill="#F7F7F7"/>
<path d="M1356.08 204.285C1361.06 201.413 1364.39 196 1364.39 189.834C1364.39 180.609 1356.97 173.172 1347.77 173.172C1338.56 173.172 1331.14 180.609 1331.14 189.834C1331.14 199.06 1338.56 206.497 1347.77 206.497L1347.77 189.834L1356.08 204.285Z" fill="#F7F7F7"/>
<path d="M1289.56 270.93C1294.54 268.059 1297.88 262.646 1297.88 256.48C1297.88 247.254 1290.45 239.817 1281.25 239.817C1272.04 239.817 1264.62 247.254 1264.62 256.48C1264.62 265.705 1272.04 273.142 1281.25 273.142L1281.25 256.48L1289.56 270.93Z" fill="#F7F7F7"/>
<path d="M1223.04 337.58C1228.02 334.709 1231.36 329.296 1231.36 323.13C1231.36 313.905 1223.94 306.468 1214.73 306.468C1205.52 306.468 1198.1 313.905 1198.1 323.13C1198.1 332.356 1205.52 339.793 1214.73 339.793L1214.73 323.13L1223.04 337.58Z" fill="#F7F7F7"/>
<path d="M1156.53 404.233C1161.51 401.362 1164.84 395.949 1164.84 389.783C1164.84 380.557 1157.42 373.12 1148.21 373.12C1139 373.12 1131.58 380.557 1131.58 389.783C1131.58 399.008 1139 406.445 1148.21 406.445L1148.21 389.783L1156.53 404.233Z" fill="#F7F7F7"/>
<path d="M1090.01 470.883C1094.99 468.012 1098.33 462.599 1098.33 456.433C1098.33 447.207 1090.91 439.771 1081.7 439.771C1072.49 439.771 1065.07 447.207 1065.07 456.433C1065.07 465.659 1072.49 473.095 1081.7 473.095L1081.7 456.433L1090.01 470.883Z" fill="#F7F7F7"/>
<path d="M1023.49 537.534C1028.47 534.662 1031.81 529.249 1031.81 523.083C1031.81 513.858 1024.39 506.421 1015.18 506.421C1005.97 506.421 998.551 513.858 998.551 523.083C998.551 532.309 1005.97 539.746 1015.18 539.746L1015.18 523.083L1023.49 537.534Z" fill="#F7F7F7"/>
<path d="M956.977 604.184C961.956 601.313 965.292 595.9 965.292 589.734C965.292 580.508 957.869 573.071 948.662 573.071C939.455 573.071 932.033 580.508 932.033 589.734C932.033 598.959 939.455 606.396 948.662 606.396L948.662 589.734L956.977 604.184Z" fill="#F7F7F7"/>
<path d="M890.459 670.829C895.439 667.958 898.774 662.545 898.774 656.379C898.774 647.154 891.352 639.717 882.145 639.717C872.937 639.717 865.515 647.154 865.515 656.379C865.515 665.605 872.937 673.042 882.145 673.042L882.145 656.379L890.459 670.829Z" fill="#F7F7F7"/>
<path d="M757.424 804.13C762.403 801.259 765.738 795.846 765.738 789.68C765.738 780.455 758.316 773.018 749.109 773.018C739.902 773.018 732.48 780.455 732.48 789.68C732.48 798.906 739.902 806.343 749.109 806.343L749.109 789.68L757.424 804.13Z" fill="#F7F7F7"/>
<path d="M591.134 970.757C596.113 967.886 599.448 962.473 599.448 956.307C599.448 947.081 592.026 939.645 582.819 939.645C573.612 939.645 566.19 947.081 566.19 956.307C566.19 965.533 573.612 972.969 582.819 972.969L582.819 956.307L591.134 970.757Z" fill="#F7F7F7"/>
<path d="M1613.83 -26.7793L1613.83 6.54563C1619.89 6.54563 1625.58 4.89821 1630.46 2.07406L1613.83 -26.7793Z" fill="#F7F7F7"/>
<path d="M1613.83 73.1963L1613.83 106.521C1619.89 106.521 1625.58 104.874 1630.46 102.05L1613.83 73.1963Z" fill="#F7F7F7"/>
<path d="M1613.83 39.8711L1613.83 73.196C1619.89 73.196 1625.58 71.5486 1630.46 68.7244L1613.83 39.8711Z" fill="#F7F7F7"/>
<path d="M1613.83 173.172L1613.83 206.497C1619.89 206.497 1625.58 204.849 1630.46 202.025L1613.83 173.172Z" fill="#F7F7F7"/>
<path d="M1613.83 239.817L1613.83 273.142C1619.89 273.142 1625.58 271.495 1630.46 268.671L1613.83 239.817Z" fill="#F7F7F7"/>
<path d="M1613.83 273.144L1613.83 306.468C1619.89 306.468 1625.58 304.821 1630.46 301.997L1613.83 273.144Z" fill="#F7F7F7"/>
<path d="M1613.83 373.12L1613.83 406.445C1619.89 406.445 1625.58 404.798 1630.46 401.973L1613.83 373.12Z" fill="#F7F7F7"/>
<path d="M1580.57 306.468L1580.57 339.793C1586.63 339.793 1592.32 338.145 1597.2 335.321L1580.57 306.468Z" fill="#F7F7F7"/>
<path d="M1580.57 339.794L1580.57 373.119C1586.63 373.119 1592.32 371.471 1597.2 368.647L1580.57 339.794Z" fill="#F7F7F7"/>
<path d="M1580.57 373.119L1580.57 406.444C1586.63 406.444 1592.32 404.797 1597.2 401.972L1580.57 373.119Z" fill="#F7F7F7"/>
<path d="M1580.57 439.771L1580.57 473.095C1586.63 473.095 1592.32 471.448 1597.2 468.624L1580.57 439.771Z" fill="#F7F7F7"/>
<path d="M1580.57 473.095L1580.57 506.42C1586.63 506.42 1592.32 504.772 1597.2 501.948L1580.57 473.095Z" fill="#F7F7F7"/>
<path d="M1580.57 506.421L1580.57 539.746C1586.63 539.746 1592.32 538.098 1597.2 535.274L1580.57 506.421Z" fill="#F7F7F7"/>
<path d="M1580.57 573.071L1580.57 606.396C1586.63 606.396 1592.32 604.749 1597.2 601.925L1580.57 573.071Z" fill="#F7F7F7"/>
<path d="M1580.57 606.392L1580.57 639.717C1586.63 639.717 1592.32 638.069 1597.2 635.245L1580.57 606.392Z" fill="#F7F7F7"/>
<path d="M1580.57 639.717L1580.57 673.042C1586.63 673.042 1592.32 671.394 1597.2 668.57L1580.57 639.717Z" fill="#F7F7F7"/>
<path d="M1580.57 706.367L1580.57 739.692C1586.63 739.692 1592.32 738.045 1597.2 735.22L1580.57 706.367Z" fill="#F7F7F7"/>
<path d="M1580.57 739.692L1580.57 773.017C1586.63 773.017 1592.32 771.37 1597.2 768.546L1580.57 739.692Z" fill="#F7F7F7"/>
<path d="M1580.57 773.018L1580.57 806.343C1586.63 806.343 1592.32 804.695 1597.2 801.871L1580.57 773.018Z" fill="#F7F7F7"/>
<path d="M1580.57 839.668L1580.57 872.993C1586.63 872.993 1592.32 871.345 1597.2 868.521L1580.57 839.668Z" fill="#F7F7F7"/>
<path d="M1580.57 872.993L1580.57 906.318C1586.63 906.318 1592.32 904.671 1597.2 901.847L1580.57 872.993Z" fill="#F7F7F7"/>
<path d="M1580.57 906.318L1580.57 939.643C1586.63 939.643 1592.32 937.996 1597.2 935.172L1580.57 906.318Z" fill="#F7F7F7"/>
<path d="M1580.57 972.969L1580.57 1006.29C1586.63 1006.29 1592.32 1004.65 1597.2 1001.82L1580.57 972.969Z" fill="#F7F7F7"/>
<path d="M1580.57 1006.29L1580.57 1039.62C1586.63 1039.62 1592.32 1037.97 1597.2 1035.15L1580.57 1006.29Z" fill="#F7F7F7"/>
<path d="M1580.57 1039.62L1580.57 1072.94C1586.63 1072.94 1592.32 1071.29 1597.2 1068.47L1580.57 1039.62Z" fill="#F7F7F7"/>
<path d="M1613.83 473.095L1613.83 506.42C1619.89 506.42 1625.58 504.772 1630.46 501.948L1613.83 473.095Z" fill="#F7F7F7"/>
<path d="M1613.83 573.071L1613.83 606.396C1619.89 606.396 1625.58 604.749 1630.46 601.925L1613.83 573.071Z" fill="#F7F7F7"/>
<path d="M1613.83 673.042L1613.83 706.367C1619.89 706.367 1625.58 704.719 1630.46 701.895L1613.83 673.042Z" fill="#F7F7F7"/>
<path d="M1613.83 773.018L1613.83 806.343C1619.89 806.343 1625.58 804.695 1630.46 801.871L1613.83 773.018Z" fill="#F7F7F7"/>
<path d="M1613.83 839.668L1613.83 872.993C1619.89 872.993 1625.58 871.345 1630.46 868.521L1613.83 839.668Z" fill="#F7F7F7"/>
<path d="M1613.83 906.319L1613.83 939.644C1619.89 939.644 1625.58 937.997 1630.46 935.173L1613.83 906.319Z" fill="#F7F7F7"/>
<path d="M1613.83 972.97L1613.83 1006.29C1619.89 1006.29 1625.58 1004.65 1630.46 1001.82L1613.83 972.97Z" fill="#F7F7F7"/>
<path d="M1613.83 1039.62L1613.83 1072.94C1619.89 1072.94 1625.58 1071.29 1630.46 1068.47L1613.83 1039.62Z" fill="#F7F7F7"/>
<path d="M1580.57 -26.7793L1580.57 6.54563C1586.63 6.54563 1592.32 4.89821 1597.2 2.07406L1580.57 -26.7793Z" fill="#F7F7F7"/>
<path d="M1580.57 6.5459L1580.57 39.8708C1586.63 39.8708 1592.32 38.2234 1597.2 35.3993L1580.57 6.5459Z" fill="#F7F7F7"/>
<path d="M1580.57 39.8711L1580.57 73.196C1586.63 73.196 1592.32 71.5486 1597.2 68.7244L1580.57 39.8711Z" fill="#F7F7F7"/>
<path d="M1580.57 106.521L1580.57 139.846C1586.63 139.846 1592.32 138.199 1597.2 135.375L1580.57 106.521Z" fill="#F7F7F7"/>
<path d="M1580.57 139.847L1580.57 173.172C1586.63 173.172 1592.32 171.524 1597.2 168.7L1580.57 139.847Z" fill="#F7F7F7"/>
<path d="M1580.57 206.493L1580.57 239.818C1586.63 239.818 1592.32 238.171 1597.2 235.347L1580.57 206.493Z" fill="#F7F7F7"/>
<path d="M1580.57 239.817L1580.57 273.142C1586.63 273.142 1592.32 271.495 1597.2 268.671L1580.57 239.817Z" fill="#F7F7F7"/>
<path d="M1547.31 6.5459L1547.31 39.8708C1553.37 39.8708 1559.06 38.2234 1563.94 35.3993L1547.31 6.5459Z" fill="#F7F7F7"/>
<path d="M1547.31 39.8711L1547.31 73.196C1553.37 73.196 1559.06 71.5486 1563.94 68.7244L1547.31 39.8711Z" fill="#F7F7F7"/>
<path d="M1547.31 139.847L1547.31 173.172C1553.37 173.172 1559.06 171.524 1563.94 168.7L1547.31 139.847Z" fill="#F7F7F7"/>
<path d="M1547.31 206.493L1547.31 239.818C1553.37 239.818 1559.06 238.171 1563.94 235.347L1547.31 206.493Z" fill="#F7F7F7"/>
<path d="M1547.31 239.817L1547.31 273.142C1553.37 273.142 1559.06 271.495 1563.94 268.671L1547.31 239.817Z" fill="#F7F7F7"/>
<path d="M1547.31 339.794L1547.31 373.119C1553.37 373.119 1559.06 371.471 1563.94 368.647L1547.31 339.794Z" fill="#F7F7F7"/>
<path d="M1547.31 373.119L1547.31 406.444C1553.37 406.444 1559.06 404.797 1563.94 401.972L1547.31 373.119Z" fill="#F7F7F7"/>
<path d="M1547.31 506.421L1547.31 539.746C1553.37 539.746 1559.06 538.098 1563.94 535.274L1547.31 506.421Z" fill="#F7F7F7"/>
<path d="M1547.31 539.745L1547.31 573.07C1553.37 573.07 1559.06 571.423 1563.94 568.598L1547.31 539.745Z" fill="#F7F7F7"/>
<path d="M1547.32 706.367L1547.32 739.692C1553.37 739.692 1559.06 738.045 1563.94 735.22L1547.32 706.367Z" fill="#F7F7F7"/>
<path d="M1547.32 739.692L1547.32 773.017C1553.37 773.017 1559.06 771.37 1563.94 768.546L1547.32 739.692Z" fill="#F7F7F7"/>
<path d="M1547.32 939.645L1547.32 972.969C1553.37 972.969 1559.06 971.322 1563.94 968.498L1547.32 939.645Z" fill="#F7F7F7"/>
<path d="M1547.32 972.969L1547.32 1006.29C1553.37 1006.29 1559.06 1004.65 1563.94 1001.82L1547.32 972.969Z" fill="#F7F7F7"/>
<path d="M1514.06 39.8711L1514.06 73.196C1520.12 73.196 1525.8 71.5486 1530.69 68.7244L1514.06 39.8711Z" fill="#F7F7F7"/>
<path d="M1514.06 239.817L1514.06 273.142C1520.12 273.142 1525.8 271.495 1530.69 268.671L1514.06 239.817Z" fill="#F7F7F7"/>
<path d="M1514.06 439.771L1514.06 473.095C1520.12 473.095 1525.8 471.448 1530.69 468.624L1514.06 439.771Z" fill="#F7F7F7"/>
<path d="M1514.06 639.717L1514.06 673.042C1520.12 673.042 1525.8 671.394 1530.69 668.57L1514.06 639.717Z" fill="#F7F7F7"/>
<path d="M1514.06 839.668L1514.06 872.993C1520.12 872.993 1525.8 871.345 1530.69 868.521L1514.06 839.668Z" fill="#F7F7F7"/>
<path d="M1514.06 1039.62L1514.06 1072.94C1520.12 1072.94 1525.8 1071.29 1530.69 1068.47L1514.06 1039.62Z" fill="#F7F7F7"/>
<path d="M1480.8 73.1963L1480.8 106.521C1486.86 106.521 1492.55 104.874 1497.43 102.05L1480.8 73.1963Z" fill="#F7F7F7"/>
<path d="M1480.8 106.521L1480.8 139.846C1486.86 139.846 1492.55 138.199 1497.43 135.375L1480.8 106.521Z" fill="#F7F7F7"/>
<path d="M1480.8 206.493L1480.8 239.818C1486.86 239.818 1492.55 238.171 1497.43 235.347L1480.8 206.493Z" fill="#F7F7F7"/>
<path d="M1480.8 273.144L1480.8 306.468C1486.86 306.468 1492.55 304.821 1497.43 301.997L1480.8 273.144Z" fill="#F7F7F7"/>
<path d="M1480.8 473.095L1480.8 506.42C1486.86 506.42 1492.55 504.772 1497.43 501.948L1480.8 473.095Z" fill="#F7F7F7"/>
<path d="M1480.8 673.042L1480.8 706.367C1486.86 706.367 1492.55 704.719 1497.43 701.895L1480.8 673.042Z" fill="#F7F7F7"/>
<path d="M1480.8 872.993L1480.8 906.318C1486.86 906.318 1492.55 904.671 1497.43 901.847L1480.8 872.993Z" fill="#F7F7F7"/>
<path d="M1480.8 1072.94L1480.8 1106.27C1486.86 1106.27 1492.55 1104.62 1497.43 1101.79L1480.8 1072.94Z" fill="#F7F7F7"/>
<path d="M1447.54 106.521L1447.54 139.846C1453.6 139.846 1459.29 138.199 1464.17 135.375L1447.54 106.521Z" fill="#F7F7F7"/>
<path d="M1447.54 139.847L1447.54 173.172C1453.6 173.172 1459.29 171.524 1464.17 168.7L1447.54 139.847Z" fill="#F7F7F7"/>
<path d="M1447.54 173.172L1447.54 206.497C1453.6 206.497 1459.29 204.849 1464.17 202.025L1447.54 173.172Z" fill="#F7F7F7"/>
<path d="M1447.54 239.817L1447.54 273.142C1453.6 273.142 1459.29 271.495 1464.17 268.671L1447.54 239.817Z" fill="#F7F7F7"/>
<path d="M1447.54 306.468L1447.54 339.793C1453.6 339.793 1459.29 338.145 1464.17 335.321L1447.54 306.468Z" fill="#F7F7F7"/>
<path d="M1447.54 439.771L1447.54 473.095C1453.6 473.095 1459.29 471.448 1464.17 468.624L1447.54 439.771Z" fill="#F7F7F7"/>
<path d="M1447.54 573.071L1447.54 606.396C1453.6 606.396 1459.29 604.749 1464.17 601.925L1447.54 573.071Z" fill="#F7F7F7"/>
<path d="M1447.54 706.367L1447.54 739.692C1453.6 739.692 1459.29 738.045 1464.17 735.22L1447.54 706.367Z" fill="#F7F7F7"/>
<path d="M1447.54 839.668L1447.54 872.993C1453.6 872.993 1459.29 871.345 1464.17 868.521L1447.54 839.668Z" fill="#F7F7F7"/>
<path d="M1447.54 972.969L1447.54 1006.29C1453.6 1006.29 1459.29 1004.65 1464.17 1001.82L1447.54 972.969Z" fill="#F7F7F7"/>
<path d="M1414.28 139.847L1414.28 173.172C1420.34 173.172 1426.03 171.524 1430.91 168.7L1414.28 139.847Z" fill="#F7F7F7"/>
<path d="M1414.28 173.172L1414.28 206.497C1420.34 206.497 1426.03 204.849 1430.91 202.025L1414.28 173.172Z" fill="#F7F7F7"/>
<path d="M1414.28 206.493L1414.28 239.818C1420.34 239.818 1426.03 238.171 1430.91 235.347L1414.28 206.493Z" fill="#F7F7F7"/>
<path d="M1414.28 273.144L1414.28 306.468C1420.34 306.468 1426.03 304.821 1430.91 301.997L1414.28 273.144Z" fill="#F7F7F7"/>
<path d="M1414.28 339.794L1414.28 373.119C1420.34 373.119 1426.03 371.471 1430.91 368.647L1414.28 339.794Z" fill="#F7F7F7"/>
<path d="M1414.28 639.717L1414.28 673.042C1420.34 673.042 1426.03 671.394 1430.91 668.57L1414.28 639.717Z" fill="#F7F7F7"/>
<path d="M1414.28 939.645L1414.28 972.969C1420.34 972.969 1426.03 971.322 1430.91 968.498L1414.28 939.645Z" fill="#F7F7F7"/>
<path d="M1381.02 173.172L1381.02 206.497C1387.08 206.497 1392.77 204.849 1397.65 202.025L1381.02 173.172Z" fill="#F7F7F7"/>
<path d="M1381.02 206.493L1381.02 239.818C1387.08 239.818 1392.77 238.171 1397.65 235.347L1381.02 206.493Z" fill="#F7F7F7"/>
<path d="M1381.02 239.817L1381.02 273.142C1387.08 273.142 1392.77 271.495 1397.65 268.671L1381.02 239.817Z" fill="#F7F7F7"/>
<path d="M1381.02 306.468L1381.02 339.793C1387.08 339.793 1392.77 338.145 1397.65 335.321L1381.02 306.468Z" fill="#F7F7F7"/>
<path d="M1381.02 373.12L1381.02 406.445C1387.08 406.445 1392.77 404.798 1397.65 401.973L1381.02 373.12Z" fill="#F7F7F7"/>
<path d="M1381.02 539.746L1381.02 573.071C1387.08 573.071 1392.77 571.424 1397.65 568.599L1381.02 539.746Z" fill="#F7F7F7"/>
<path d="M1381.02 706.367L1381.02 739.692C1387.08 739.692 1392.77 738.045 1397.65 735.22L1381.02 706.367Z" fill="#F7F7F7"/>
<path d="M1381.02 872.993L1381.02 906.318C1387.08 906.318 1392.77 904.671 1397.65 901.847L1381.02 872.993Z" fill="#F7F7F7"/>
<path d="M1381.02 1039.62L1381.02 1072.94C1387.08 1072.94 1392.77 1071.29 1397.65 1068.47L1381.02 1039.62Z" fill="#F7F7F7"/>
<path d="M1331.14 239.817L1331.14 273.142C1337.2 273.142 1342.88 271.495 1347.77 268.671L1331.14 239.817Z" fill="#F7F7F7"/>
<path d="M1331.14 273.144L1331.14 306.468C1337.2 306.468 1342.88 304.821 1347.77 301.997L1331.14 273.144Z" fill="#F7F7F7"/>
<path d="M1331.14 306.468L1331.14 339.793C1337.2 339.793 1342.88 338.145 1347.77 335.321L1331.14 306.468Z" fill="#F7F7F7"/>
<path d="M1331.14 373.12L1331.14 406.445C1337.2 406.445 1342.88 404.798 1347.77 401.973L1331.14 373.12Z" fill="#F7F7F7"/>
<path d="M1331.14 439.771L1331.14 473.095C1337.2 473.095 1342.88 471.448 1347.77 468.624L1331.14 439.771Z" fill="#F7F7F7"/>
<path d="M1331.14 573.071L1331.14 606.396C1337.2 606.396 1342.88 604.749 1347.77 601.925L1331.14 573.071Z" fill="#F7F7F7"/>
<path d="M1331.14 706.367L1331.14 739.692C1337.2 739.692 1342.88 738.045 1347.77 735.22L1331.14 706.367Z" fill="#F7F7F7"/>
<path d="M1331.14 839.668L1331.14 872.993C1337.2 872.993 1342.88 871.345 1347.77 868.521L1331.14 839.668Z" fill="#F7F7F7"/>
<path d="M1331.14 972.97L1331.14 1006.29C1337.2 1006.29 1342.88 1004.65 1347.77 1001.82L1331.14 972.97Z" fill="#F7F7F7"/>
<path d="M1281.25 273.144L1281.25 306.468C1287.31 306.468 1292.99 304.821 1297.88 301.997L1281.25 273.144Z" fill="#F7F7F7"/>
<path d="M1281.25 339.794L1281.25 373.119C1287.31 373.119 1292.99 371.471 1297.88 368.647L1281.25 339.794Z" fill="#F7F7F7"/>
<path d="M1281.25 373.12L1281.25 406.445C1287.31 406.445 1292.99 404.798 1297.88 401.973L1281.25 373.12Z" fill="#F7F7F7"/>
<path d="M1281.25 439.771L1281.25 473.095C1287.31 473.095 1292.99 471.448 1297.88 468.624L1281.25 439.771Z" fill="#F7F7F7"/>
<path d="M1281.25 506.421L1281.25 539.746C1287.31 539.746 1292.99 538.098 1297.88 535.274L1281.25 506.421Z" fill="#F7F7F7"/>
<path d="M1231.36 373.12L1231.36 406.445C1237.42 406.445 1243.1 404.798 1247.99 401.973L1231.36 373.12Z" fill="#F7F7F7"/>
<path d="M1231.36 406.444L1231.36 439.769C1237.42 439.769 1243.1 438.122 1247.99 435.298L1231.36 406.444Z" fill="#F7F7F7"/>
<path d="M1231.36 439.771L1231.36 473.095C1237.42 473.095 1243.1 471.448 1247.99 468.624L1231.36 439.771Z" fill="#F7F7F7"/>
<path d="M1231.36 506.421L1231.36 539.746C1237.42 539.746 1243.1 538.098 1247.99 535.274L1231.36 506.421Z" fill="#F7F7F7"/>
<path d="M1231.36 573.071L1231.36 606.396C1237.42 606.396 1243.1 604.749 1247.99 601.925L1231.36 573.071Z" fill="#F7F7F7"/>
<path d="M1148.21 439.771L1148.21 473.095C1154.27 473.095 1159.96 471.448 1164.84 468.624L1148.21 439.771Z" fill="#F7F7F7"/>
<path d="M1148.21 473.095L1148.21 506.42C1154.27 506.42 1159.96 504.772 1164.84 501.948L1148.21 473.095Z" fill="#F7F7F7"/>
<path d="M1148.21 506.421L1148.21 539.746C1154.27 539.746 1159.96 538.098 1164.84 535.274L1148.21 506.421Z" fill="#F7F7F7"/>
<path d="M1148.21 573.071L1148.21 606.396C1154.27 606.396 1159.96 604.749 1164.84 601.925L1148.21 573.071Z" fill="#F7F7F7"/>
<path d="M1148.21 639.717L1148.21 673.042C1154.27 673.042 1159.96 671.394 1164.84 668.57L1148.21 639.717Z" fill="#F7F7F7"/>
<path d="M1281.25 606.392L1281.25 639.717C1287.31 639.717 1292.99 638.069 1297.88 635.245L1281.25 606.392Z" fill="#F7F7F7"/>
<path d="M1281.25 673.042L1281.25 706.367C1287.31 706.367 1292.99 704.719 1297.88 701.895L1281.25 673.042Z" fill="#F7F7F7"/>
<path d="M1281.25 739.692L1281.25 773.017C1287.31 773.017 1292.99 771.37 1297.88 768.546L1281.25 739.692Z" fill="#F7F7F7"/>
<path d="M1281.25 806.343L1281.25 839.668C1287.31 839.668 1292.99 838.02 1297.88 835.196L1281.25 806.343Z" fill="#F7F7F7"/>
<path d="M1231.36 673.042L1231.36 706.367C1237.42 706.367 1243.1 704.719 1247.99 701.895L1231.36 673.042Z" fill="#F7F7F7"/>
<path d="M1231.36 706.367L1231.36 739.692C1237.42 739.692 1243.1 738.045 1247.99 735.22L1231.36 706.367Z" fill="#F7F7F7"/>
<path d="M1231.36 739.692L1231.36 773.017C1237.42 773.017 1243.1 771.37 1247.99 768.546L1231.36 739.692Z" fill="#F7F7F7"/>
<path d="M1231.36 773.018L1231.36 806.343C1237.42 806.343 1243.1 804.695 1247.99 801.871L1231.36 773.018Z" fill="#F7F7F7"/>
<path d="M1231.36 839.668L1231.36 872.993C1237.42 872.993 1243.1 871.345 1247.99 868.521L1231.36 839.668Z" fill="#F7F7F7"/>
<path d="M1231.36 872.993L1231.36 906.318C1237.42 906.318 1243.1 904.671 1247.99 901.847L1231.36 872.993Z" fill="#F7F7F7"/>
<path d="M1148.21 739.692L1148.21 773.017C1154.27 773.017 1159.96 771.37 1164.84 768.546L1148.21 739.692Z" fill="#F7F7F7"/>
<path d="M1148.21 773.018L1148.21 806.343C1154.27 806.343 1159.96 804.695 1164.84 801.871L1148.21 773.018Z" fill="#F7F7F7"/>
<path d="M1148.21 806.343L1148.21 839.668C1154.27 839.668 1159.96 838.02 1164.84 835.196L1148.21 806.343Z" fill="#F7F7F7"/>
<path d="M1148.21 839.668L1148.21 872.993C1154.27 872.993 1159.96 871.345 1164.84 868.521L1148.21 839.668Z" fill="#F7F7F7"/>
<path d="M1148.21 872.993L1148.21 906.318C1154.27 906.318 1159.96 904.671 1164.84 901.847L1148.21 872.993Z" fill="#F7F7F7"/>
<path d="M1148.21 906.318L1148.21 939.643C1154.27 939.643 1159.96 937.996 1164.84 935.172L1148.21 906.318Z" fill="#F7F7F7"/>
<path d="M1148.21 939.645L1148.21 972.969C1154.27 972.969 1159.96 971.322 1164.84 968.498L1148.21 939.645Z" fill="#F7F7F7"/>
<path d="M1281.25 906.318L1281.25 939.643C1287.31 939.643 1292.99 937.996 1297.88 935.172L1281.25 906.318Z" fill="#F7F7F7"/>
<path d="M1281.25 972.97L1281.25 1006.29C1287.31 1006.29 1292.99 1004.65 1297.88 1001.82L1281.25 972.97Z" fill="#F7F7F7"/>
<path d="M1281.25 1039.62L1281.25 1072.94C1287.31 1072.94 1292.99 1071.29 1297.88 1068.47L1281.25 1039.62Z" fill="#F7F7F7"/>
<path d="M1231.36 1006.29L1231.36 1039.62C1237.42 1039.62 1243.1 1037.97 1247.99 1035.15L1231.36 1006.29Z" fill="#F7F7F7"/>
<path d="M1231.36 1039.62L1231.36 1072.94C1237.42 1072.94 1243.1 1071.29 1247.99 1068.47L1231.36 1039.62Z" fill="#F7F7F7"/>
<path d="M1231.36 1072.94L1231.36 1106.27C1237.42 1106.27 1243.1 1104.62 1247.99 1101.79L1231.36 1072.94Z" fill="#F7F7F7"/>
<path d="M1148.21 1039.62L1148.21 1072.94C1154.27 1072.94 1159.96 1071.29 1164.84 1068.47L1148.21 1039.62Z" fill="#F7F7F7"/>
<path d="M1148.21 1072.94L1148.21 1106.27C1154.27 1106.27 1159.96 1104.62 1164.84 1101.79L1148.21 1072.94Z" fill="#F7F7F7"/>
<path d="M1081.7 539.746L1081.7 573.071C1087.76 573.071 1093.44 571.424 1098.33 568.599L1081.7 539.746Z" fill="#F7F7F7"/>
<path d="M1081.7 573.071L1081.7 606.396C1087.76 606.396 1093.44 604.749 1098.33 601.925L1081.7 573.071Z" fill="#F7F7F7"/>
<path d="M1081.7 606.392L1081.7 639.717C1087.76 639.717 1093.44 638.069 1098.33 635.245L1081.7 606.392Z" fill="#F7F7F7"/>
<path d="M1081.7 673.042L1081.7 706.367C1087.76 706.367 1093.44 704.719 1098.33 701.895L1081.7 673.042Z" fill="#F7F7F7"/>
<path d="M1081.7 739.692L1081.7 773.017C1087.76 773.017 1093.44 771.37 1098.33 768.546L1081.7 739.692Z" fill="#F7F7F7"/>
<path d="M1015.18 639.717L1015.18 673.042C1021.24 673.042 1026.92 671.394 1031.81 668.57L1015.18 639.717Z" fill="#F7F7F7"/>
<path d="M1015.18 673.042L1015.18 706.367C1021.24 706.367 1026.92 704.719 1031.81 701.895L1015.18 673.042Z" fill="#F7F7F7"/>
<path d="M1015.18 706.367L1015.18 739.692C1021.24 739.692 1026.92 738.045 1031.81 735.22L1015.18 706.367Z" fill="#F7F7F7"/>
<path d="M1015.18 739.692L1015.18 773.017C1021.24 773.017 1026.92 771.37 1031.81 768.546L1015.18 739.692Z" fill="#F7F7F7"/>
<path d="M1015.18 773.018L1015.18 806.343C1021.24 806.343 1026.92 804.695 1031.81 801.871L1015.18 773.018Z" fill="#F7F7F7"/>
<path d="M1015.18 806.343L1015.18 839.668C1021.24 839.668 1026.92 838.02 1031.81 835.196L1015.18 806.343Z" fill="#F7F7F7"/>
<path d="M1015.18 839.668L1015.18 872.993C1021.24 872.993 1026.92 871.345 1031.81 868.521L1015.18 839.668Z" fill="#F7F7F7"/>
<path d="M865.515 739.692L865.515 773.017C871.575 773.017 877.259 771.37 882.145 768.546L865.515 739.692Z" fill="#F7F7F7"/>
<path d="M865.515 773.018L865.515 806.343C871.575 806.343 877.259 804.695 882.145 801.871L865.515 773.018Z" fill="#F7F7F7"/>
<path d="M865.515 806.343L865.515 839.668C871.575 839.668 877.259 838.02 882.145 835.196L865.515 806.343Z" fill="#F7F7F7"/>
<path d="M865.515 839.668L865.515 872.993C871.575 872.993 877.259 871.345 882.145 868.521L865.515 839.668Z" fill="#F7F7F7"/>
<path d="M865.515 872.993L865.515 906.318C871.575 906.318 877.259 904.671 882.145 901.847L865.515 872.993Z" fill="#F7F7F7"/>
<path d="M865.515 906.318L865.515 939.643C871.575 939.643 877.259 937.996 882.145 935.172L865.515 906.318Z" fill="#F7F7F7"/>
<path d="M865.515 939.645L865.515 972.969C871.575 972.969 877.259 971.322 882.145 968.498L865.515 939.645Z" fill="#F7F7F7"/>
<path d="M865.515 972.97L865.515 1039.62C877.635 1039.62 889.003 1036.37 898.774 1030.68L865.515 972.97Z" fill="#F7F7F7"/>
<path d="M749.109 839.668L749.109 872.993C755.169 872.993 760.853 871.345 765.738 868.521L749.109 839.668Z" fill="#F7F7F7"/>
<path d="M749.109 872.993L749.109 906.318C755.169 906.318 760.853 904.671 765.738 901.847L749.109 872.993Z" fill="#F7F7F7"/>
<path d="M749.109 906.318L749.109 939.643C755.169 939.643 760.853 937.996 765.738 935.172L749.109 906.318Z" fill="#F7F7F7"/>
<path d="M749.109 939.645L749.109 972.969C755.169 972.969 760.853 971.322 765.738 968.498L749.109 939.645Z" fill="#F7F7F7"/>
<path d="M749.11 972.97L749.11 1006.29C755.169 1006.29 760.853 1004.65 765.739 1001.82L749.11 972.97Z" fill="#F7F7F7"/>
<path d="M749.11 1006.29L749.11 1039.62C755.169 1039.62 760.853 1037.97 765.739 1035.15L749.11 1006.29Z" fill="#F7F7F7"/>
<path d="M749.11 1039.62L749.11 1072.94C755.169 1072.94 760.853 1071.29 765.739 1068.47L749.11 1039.62Z" fill="#F7F7F7"/>
<path d="M665.966 939.645L665.966 972.969C672.026 972.969 677.71 971.322 682.595 968.498L665.966 939.645Z" fill="#F7F7F7"/>
<path d="M665.966 972.97L665.966 1006.29C672.026 1006.29 677.71 1004.65 682.595 1001.82L665.966 972.97Z" fill="#F7F7F7"/>
<path d="M665.966 1006.29L665.966 1039.62C672.026 1039.62 677.71 1037.97 682.595 1035.15L665.966 1006.29Z" fill="#F7F7F7"/>
<path d="M665.966 1039.62L665.966 1072.94C672.026 1072.94 677.71 1071.29 682.595 1068.47L665.966 1039.62Z" fill="#F7F7F7"/>
<path d="M665.966 1072.94L665.966 1106.27C672.026 1106.27 677.71 1104.62 682.595 1101.79L665.966 1072.94Z" fill="#F7F7F7"/>
<path d="M749.11 1072.94L749.11 1106.27C755.169 1106.27 760.853 1104.62 765.739 1101.79L749.11 1072.94Z" fill="#F7F7F7"/>
<path d="M582.819 972.97L582.819 1006.29C588.879 1006.29 594.563 1004.65 599.448 1001.82L582.819 972.97Z" fill="#F7F7F7"/>
<path d="M582.819 1006.29L582.819 1039.62C588.879 1039.62 594.563 1037.97 599.448 1035.15L582.819 1006.29Z" fill="#F7F7F7"/>
<path d="M582.819 1039.62L582.819 1072.94C588.879 1072.94 594.563 1071.29 599.448 1068.47L582.819 1039.62Z" fill="#F7F7F7"/>
<path d="M582.819 1072.94L582.819 1106.27C588.879 1106.27 594.563 1104.62 599.448 1101.79L582.819 1072.94Z" fill="#F7F7F7"/>
<path d="M1389.39 443.957C1389.39 446.245 1391.24 448.1 1393.52 448.1C1395.8 448.1 1397.65 446.245 1397.65 443.957C1397.65 441.67 1395.8 439.815 1393.52 439.815C1391.24 439.815 1389.39 441.67 1389.39 443.957Z" fill="#F7F7F7"/>
<path d="M1389.39 610.584C1389.39 612.872 1391.24 614.727 1393.52 614.727C1395.8 614.727 1397.65 612.872 1397.65 610.584C1397.65 608.297 1395.8 606.442 1393.52 606.442C1391.24 606.442 1389.39 608.297 1389.39 610.584Z" fill="#F7F7F7"/>
<path d="M1389.39 777.206C1389.39 779.493 1391.24 781.348 1393.52 781.348C1395.8 781.348 1397.65 779.493 1397.65 777.206C1397.65 774.918 1395.8 773.063 1393.52 773.063C1391.24 773.063 1389.39 774.918 1389.39 777.206Z" fill="#F7F7F7"/>
<path d="M1389.39 943.833C1389.39 946.12 1391.24 947.975 1393.52 947.975C1395.8 947.975 1397.65 946.12 1397.65 943.833C1397.65 941.545 1395.8 939.69 1393.52 939.69C1391.24 939.69 1389.39 941.545 1389.39 943.833Z" fill="#F7F7F7"/>
<path d="M1223.09 343.982C1223.09 346.27 1224.94 348.124 1227.23 348.124C1229.51 348.124 1231.36 346.27 1231.36 343.982C1231.36 341.694 1229.51 339.84 1227.23 339.84C1224.94 339.84 1223.09 341.694 1223.09 343.982Z" fill="#F7F7F7"/>
<path d="M1256.35 144.035C1256.35 146.322 1258.2 148.177 1260.48 148.177C1262.77 148.177 1264.62 146.322 1264.62 144.035C1264.62 141.747 1262.77 139.893 1260.48 139.893C1258.2 139.893 1256.35 141.747 1256.35 144.035Z" fill="#F7F7F7"/>
<path d="M1223.09 110.709C1223.09 112.997 1224.94 114.852 1227.23 114.852C1229.51 114.852 1231.36 112.997 1231.36 110.709C1231.36 108.422 1229.51 106.567 1227.23 106.567C1224.94 106.567 1223.09 108.422 1223.09 110.709Z" fill="#F7F7F7"/>
<path d="M1223.09 210.685C1223.09 212.973 1224.94 214.827 1227.23 214.827C1229.51 214.827 1231.36 212.973 1231.36 210.685C1231.36 208.397 1229.51 206.543 1227.23 206.543C1224.94 206.543 1223.09 208.397 1223.09 210.685Z" fill="#F7F7F7"/>
<path d="M1090.01 210.685C1090.01 212.973 1091.86 214.827 1094.14 214.827C1096.43 214.827 1098.28 212.973 1098.28 210.685C1098.28 208.397 1096.43 206.543 1094.14 206.543C1091.86 206.543 1090.01 208.397 1090.01 210.685Z" fill="#F7F7F7"/>
<path d="M956.979 210.685C956.979 212.973 958.83 214.827 961.113 214.827C963.396 214.827 965.247 212.973 965.247 210.685C965.247 208.397 963.396 206.543 961.113 206.543C958.83 206.543 956.979 208.397 956.979 210.685Z" fill="#F7F7F7"/>
<path d="M823.942 210.685C823.942 212.973 825.793 214.827 828.076 214.827C830.359 214.827 832.21 212.973 832.21 210.685C832.21 208.397 830.359 206.543 828.076 206.543C825.793 206.543 823.942 208.397 823.942 210.685Z" fill="#F7F7F7"/>
<path d="M823.942 610.584C823.942 612.872 825.793 614.727 828.076 614.727C830.359 614.727 832.21 612.872 832.21 610.584C832.21 608.297 830.359 606.442 828.076 606.442C825.793 606.442 823.942 608.297 823.942 610.584Z" fill="#F7F7F7"/>
<path d="M424.794 610.584C424.794 612.872 426.645 614.727 428.928 614.727C431.211 614.727 433.062 612.872 433.062 610.584C433.062 608.297 431.211 606.442 428.928 606.442C426.645 606.442 424.794 608.297 424.794 610.584Z" fill="#F7F7F7"/>
<path d="M424.794 1077.13C424.794 1079.42 426.645 1081.28 428.928 1081.28C431.211 1081.28 433.062 1079.42 433.062 1077.13C433.062 1074.85 431.211 1072.99 428.928 1072.99C426.645 1072.99 424.794 1074.85 424.794 1077.13Z" fill="#F7F7F7"/>
<path d="M25.6405 610.584C25.6405 612.872 27.4913 614.727 29.7743 614.727C32.0574 614.727 33.9082 612.872 33.9082 610.584C33.9082 608.297 32.0574 606.442 29.7743 606.442C27.4913 606.442 25.6405 608.297 25.6405 610.584Z" fill="#F7F7F7"/>
<path d="M690.861 210.685C690.861 212.973 692.712 214.827 694.995 214.827C697.278 214.827 699.128 212.973 699.128 210.685C699.128 208.397 697.278 206.543 694.995 206.543C692.712 206.543 690.861 208.397 690.861 210.685Z" fill="#F7F7F7"/>
<path d="M557.825 210.685C557.825 212.973 559.675 214.827 561.958 214.827C564.241 214.827 566.092 212.973 566.092 210.685C566.092 208.397 564.241 206.543 561.958 206.543C559.675 206.543 557.825 208.397 557.825 210.685Z" fill="#F7F7F7"/>
<path d="M424.793 210.685C424.793 212.973 426.644 214.827 428.927 214.827C431.21 214.827 433.061 212.973 433.061 210.685C433.061 208.397 431.21 206.543 428.927 206.543C426.644 206.543 424.793 208.397 424.793 210.685Z" fill="#F7F7F7"/>
<path d="M291.758 210.685C291.758 212.973 293.608 214.827 295.892 214.827C298.175 214.827 300.025 212.973 300.025 210.685C300.025 208.397 298.175 206.543 295.892 206.543C293.608 206.543 291.758 208.397 291.758 210.685Z" fill="#F7F7F7"/>
<path d="M158.676 210.685C158.676 212.973 160.526 214.827 162.81 214.827C165.093 214.827 166.943 212.973 166.943 210.685C166.943 208.397 165.093 206.543 162.81 206.543C160.526 206.543 158.676 208.397 158.676 210.685Z" fill="#F7F7F7"/>
<path d="M25.6405 210.685C25.6405 212.973 27.4913 214.827 29.7743 214.827C32.0574 214.827 33.9082 212.973 33.9082 210.685C33.9082 208.397 32.0574 206.543 29.7743 206.543C27.4913 206.543 25.6405 208.397 25.6405 210.685Z" fill="#F7F7F7"/>
<path d="M1322.87 144.035C1322.87 146.322 1324.72 148.177 1327 148.177C1329.28 148.177 1331.14 146.322 1331.14 144.035C1331.14 141.747 1329.28 139.893 1327 139.893C1324.72 139.893 1322.87 141.747 1322.87 144.035Z" fill="#F7F7F7"/>
<path d="M1356.13 110.709C1356.13 112.997 1357.98 114.852 1360.26 114.852C1362.54 114.852 1364.39 112.997 1364.39 110.709C1364.39 108.422 1362.54 106.567 1360.26 106.567C1357.98 106.567 1356.13 108.422 1356.13 110.709Z" fill="#F7F7F7"/>
<path d="M1289.61 110.709C1289.61 112.997 1291.46 114.852 1293.74 114.852C1296.03 114.852 1297.88 112.997 1297.88 110.709C1297.88 108.422 1296.03 106.567 1293.74 106.567C1291.46 106.567 1289.61 108.422 1289.61 110.709Z" fill="#F7F7F7"/>
<path d="M1189.79 144.035C1189.79 146.322 1191.64 148.177 1193.92 148.177C1196.2 148.177 1198.05 146.322 1198.05 144.035C1198.05 141.747 1196.2 139.893 1193.92 139.893C1191.64 139.893 1189.79 141.747 1189.79 144.035Z" fill="#F7F7F7"/>
<path d="M1156.53 110.709C1156.53 112.997 1158.38 114.852 1160.66 114.852C1162.94 114.852 1164.79 112.997 1164.79 110.709C1164.79 108.422 1162.94 106.567 1160.66 106.567C1158.38 106.567 1156.53 108.422 1156.53 110.709Z" fill="#F7F7F7"/>
<path d="M1156.53 343.982C1156.53 346.27 1158.38 348.124 1160.66 348.124C1162.94 348.124 1164.79 346.27 1164.79 343.982C1164.79 341.694 1162.94 339.84 1160.66 339.84C1158.38 339.84 1156.53 341.694 1156.53 343.982Z" fill="#F7F7F7"/>
<path d="M1023.49 343.982C1023.49 346.27 1025.34 348.124 1027.63 348.124C1029.91 348.124 1031.76 346.27 1031.76 343.982C1031.76 341.694 1029.91 339.84 1027.63 339.84C1025.34 339.84 1023.49 341.694 1023.49 343.982Z" fill="#F7F7F7"/>
<path d="M1023.49 1077.13C1023.49 1079.42 1025.34 1081.28 1027.63 1081.28C1029.91 1081.28 1031.76 1079.42 1031.76 1077.13C1031.76 1074.85 1029.91 1072.99 1027.63 1072.99C1025.34 1072.99 1023.49 1074.85 1023.49 1077.13Z" fill="#F7F7F7"/>
<path d="M890.46 343.982C890.46 346.27 892.311 348.124 894.594 348.124C896.877 348.124 898.728 346.27 898.728 343.982C898.728 341.694 896.877 339.84 894.594 339.84C892.311 339.84 890.46 341.694 890.46 343.982Z" fill="#F7F7F7"/>
<path d="M757.425 343.982C757.425 346.27 759.275 348.124 761.559 348.124C763.842 348.124 765.692 346.27 765.692 343.982C765.692 341.694 763.842 339.84 761.559 339.84C759.275 339.84 757.425 341.694 757.425 343.982Z" fill="#F7F7F7"/>
<path d="M624.343 343.982C624.343 346.27 626.193 348.124 628.476 348.124C630.76 348.124 632.61 346.27 632.61 343.982C632.61 341.694 630.76 339.84 628.476 339.84C626.193 339.84 624.343 341.694 624.343 343.982Z" fill="#F7F7F7"/>
<path d="M491.311 343.982C491.311 346.27 493.162 348.124 495.445 348.124C497.728 348.124 499.579 346.27 499.579 343.982C499.579 341.694 497.728 339.84 495.445 339.84C493.162 339.84 491.311 341.694 491.311 343.982Z" fill="#F7F7F7"/>
<path d="M358.276 343.982C358.276 346.27 360.127 348.124 362.41 348.124C364.693 348.124 366.543 346.27 366.543 343.982C366.543 341.694 364.693 339.84 362.41 339.84C360.127 339.84 358.276 341.694 358.276 343.982Z" fill="#F7F7F7"/>
<path d="M225.24 343.982C225.24 346.27 227.091 348.124 229.374 348.124C231.657 348.124 233.508 346.27 233.508 343.982C233.508 341.694 231.657 339.84 229.374 339.84C227.091 339.84 225.24 341.694 225.24 343.982Z" fill="#F7F7F7"/>
<path d="M92.1581 343.982C92.1581 346.27 94.0089 348.124 96.2919 348.124C98.575 348.124 100.426 346.27 100.426 343.982C100.426 341.694 98.575 339.84 96.2919 339.84C94.0089 339.84 92.1581 341.694 92.1581 343.982Z" fill="#F7F7F7"/>
<path d="M1123.27 144.035C1123.27 146.322 1125.12 148.177 1127.4 148.177C1129.69 148.177 1131.54 146.322 1131.54 144.035C1131.54 141.747 1129.69 139.893 1127.4 139.893C1125.12 139.893 1123.27 141.747 1123.27 144.035Z" fill="#F7F7F7"/>
<path d="M1090.01 110.709C1090.01 112.997 1091.86 114.852 1094.14 114.852C1096.43 114.852 1098.28 112.997 1098.28 110.709C1098.28 108.422 1096.43 106.567 1094.14 106.567C1091.86 106.567 1090.01 108.422 1090.01 110.709Z" fill="#F7F7F7"/>
<path d="M1056.75 144.035C1056.75 146.322 1058.6 148.177 1060.88 148.177C1063.17 148.177 1065.02 146.322 1065.02 144.035C1065.02 141.747 1063.17 139.893 1060.88 139.893C1058.6 139.893 1056.75 141.747 1056.75 144.035Z" fill="#F7F7F7"/>
<path d="M1023.49 110.709C1023.49 112.997 1025.34 114.852 1027.63 114.852C1029.91 114.852 1031.76 112.997 1031.76 110.709C1031.76 108.422 1029.91 106.567 1027.63 106.567C1025.34 106.567 1023.49 108.422 1023.49 110.709Z" fill="#F7F7F7"/>
<path d="M990.238 144.035C990.238 146.322 992.088 148.177 994.372 148.177C996.655 148.177 998.505 146.322 998.505 144.035C998.505 141.747 996.655 139.893 994.372 139.893C992.088 139.893 990.238 141.747 990.238 144.035Z" fill="#F7F7F7"/>
<path d="M956.979 110.709C956.979 112.997 958.83 114.852 961.113 114.852C963.396 114.852 965.247 112.997 965.247 110.709C965.247 108.422 963.396 106.567 961.113 106.567C958.83 106.567 956.979 108.422 956.979 110.709Z" fill="#F7F7F7"/>
<path d="M923.719 144.035C923.719 146.322 925.57 148.177 927.853 148.177C930.136 148.177 931.987 146.322 931.987 144.035C931.987 141.747 930.136 139.893 927.853 139.893C925.57 139.893 923.719 141.747 923.719 144.035Z" fill="#F7F7F7"/>
<path d="M890.46 110.709C890.46 112.997 892.311 114.852 894.594 114.852C896.877 114.852 898.728 112.997 898.728 110.709C898.728 108.422 896.877 106.567 894.594 106.567C892.311 106.567 890.46 108.422 890.46 110.709Z" fill="#F7F7F7"/>
<path d="M857.201 144.035C857.201 146.322 859.052 148.177 861.335 148.177C863.618 148.177 865.469 146.322 865.469 144.035C865.469 141.747 863.618 139.893 861.335 139.893C859.052 139.893 857.201 141.747 857.201 144.035Z" fill="#F7F7F7"/>
<path d="M823.942 110.709C823.942 112.997 825.793 114.852 828.076 114.852C830.359 114.852 832.21 112.997 832.21 110.709C832.21 108.422 830.359 106.567 828.076 106.567C825.793 106.567 823.942 108.422 823.942 110.709Z" fill="#F7F7F7"/>
<path d="M790.683 144.035C790.683 146.322 792.534 148.177 794.817 148.177C797.1 148.177 798.951 146.322 798.951 144.035C798.951 141.747 797.1 139.893 794.817 139.893C792.534 139.893 790.683 141.747 790.683 144.035Z" fill="#F7F7F7"/>
<path d="M757.425 110.709C757.425 112.997 759.275 114.852 761.559 114.852C763.842 114.852 765.692 112.997 765.692 110.709C765.692 108.422 763.842 106.567 761.559 106.567C759.275 106.567 757.425 108.422 757.425 110.709Z" fill="#F7F7F7"/>
<path d="M724.166 144.035C724.166 146.322 726.017 148.177 728.3 148.177C730.583 148.177 732.434 146.322 732.434 144.035C732.434 141.747 730.583 139.893 728.3 139.893C726.017 139.893 724.166 141.747 724.166 144.035Z" fill="#F7F7F7"/>
<path d="M690.861 110.709C690.861 112.997 692.712 114.852 694.995 114.852C697.278 114.852 699.128 112.997 699.128 110.709C699.128 108.422 697.278 106.567 694.995 106.567C692.712 106.567 690.861 108.422 690.861 110.709Z" fill="#F7F7F7"/>
<path d="M657.602 144.035C657.602 146.322 659.453 148.177 661.736 148.177C664.019 148.177 665.87 146.322 665.87 144.035C665.87 141.747 664.019 139.893 661.736 139.893C659.453 139.893 657.602 141.747 657.602 144.035Z" fill="#F7F7F7"/>
<path d="M624.343 110.709C624.343 112.997 626.193 114.852 628.476 114.852C630.76 114.852 632.61 112.997 632.61 110.709C632.61 108.422 630.76 106.567 628.476 106.567C626.193 106.567 624.343 108.422 624.343 110.709Z" fill="#F7F7F7"/>
<path d="M591.084 144.035C591.084 146.322 592.935 148.177 595.218 148.177C597.501 148.177 599.352 146.322 599.352 144.035C599.352 141.747 597.501 139.893 595.218 139.893C592.935 139.893 591.084 141.747 591.084 144.035Z" fill="#F7F7F7"/>
<path d="M557.825 110.709C557.825 112.997 559.675 114.852 561.958 114.852C564.241 114.852 566.092 112.997 566.092 110.709C566.092 108.422 564.241 106.567 561.958 106.567C559.675 106.567 557.825 108.422 557.825 110.709Z" fill="#F7F7F7"/>
<path d="M524.566 144.035C524.566 146.322 526.417 148.177 528.7 148.177C530.983 148.177 532.833 146.322 532.833 144.035C532.833 141.747 530.983 139.893 528.7 139.893C526.417 139.893 524.566 141.747 524.566 144.035Z" fill="#F7F7F7"/>
<path d="M491.311 110.709C491.311 112.997 493.162 114.852 495.445 114.852C497.728 114.852 499.579 112.997 499.579 110.709C499.579 108.422 497.728 106.567 495.445 106.567C493.162 106.567 491.311 108.422 491.311 110.709Z" fill="#F7F7F7"/>
<path d="M458.053 144.035C458.053 146.322 459.903 148.177 462.187 148.177C464.47 148.177 466.32 146.322 466.32 144.035C466.32 141.747 464.47 139.893 462.187 139.893C459.903 139.893 458.053 141.747 458.053 144.035Z" fill="#F7F7F7"/>
<path d="M424.793 110.709C424.793 112.997 426.644 114.852 428.927 114.852C431.21 114.852 433.061 112.997 433.061 110.709C433.061 108.422 431.21 106.567 428.927 106.567C426.644 106.567 424.793 108.422 424.793 110.709Z" fill="#F7F7F7"/>
<path d="M391.535 144.035C391.535 146.322 393.385 148.177 395.669 148.177C397.952 148.177 399.802 146.322 399.802 144.035C399.802 141.747 397.952 139.893 395.669 139.893C393.385 139.893 391.535 141.747 391.535 144.035Z" fill="#F7F7F7"/>
<path d="M358.275 110.709C358.275 112.997 360.126 114.852 362.409 114.852C364.692 114.852 366.543 112.997 366.543 110.709C366.543 108.422 364.692 106.567 362.409 106.567C360.126 106.567 358.275 108.422 358.275 110.709Z" fill="#F7F7F7"/>
<path d="M325.017 144.035C325.017 146.322 326.868 148.177 329.151 148.177C331.434 148.177 333.285 146.322 333.285 144.035C333.285 141.747 331.434 139.893 329.151 139.893C326.868 139.893 325.017 141.747 325.017 144.035Z" fill="#F7F7F7"/>
<path d="M291.758 110.709C291.758 112.997 293.608 114.852 295.892 114.852C298.175 114.852 300.025 112.997 300.025 110.709C300.025 108.422 298.175 106.567 295.892 106.567C293.608 106.567 291.758 108.422 291.758 110.709Z" fill="#F7F7F7"/>
<path d="M225.336 110.709C225.336 112.997 227.187 114.852 229.47 114.852C231.753 114.852 233.604 112.997 233.604 110.709C233.604 108.422 231.753 106.567 229.47 106.567C227.187 106.567 225.336 108.422 225.336 110.709Z" fill="#F7F7F7"/>
<path d="M192.077 144.035C192.077 146.322 193.928 148.177 196.211 148.177C198.494 148.177 200.345 146.322 200.345 144.035C200.345 141.747 198.494 139.893 196.211 139.893C193.928 139.893 192.077 141.747 192.077 144.035Z" fill="#F7F7F7"/>
<path d="M258.596 144.035C258.596 146.322 260.446 148.177 262.729 148.177C265.012 148.177 266.863 146.322 266.863 144.035C266.863 141.747 265.012 139.893 262.729 139.893C260.446 139.893 258.596 141.747 258.596 144.035Z" fill="#F7F7F7"/>
<path d="M158.818 110.709C158.818 112.997 160.669 114.852 162.952 114.852C165.235 114.852 167.086 112.997 167.086 110.709C167.086 108.422 165.235 106.567 162.952 106.567C160.669 106.567 158.818 108.422 158.818 110.709Z" fill="#F7F7F7"/>
<path d="M125.56 144.035C125.56 146.322 127.41 148.177 129.693 148.177C131.976 148.177 133.827 146.322 133.827 144.035C133.827 141.747 131.976 139.893 129.693 139.893C127.41 139.893 125.56 141.747 125.56 144.035Z" fill="#F7F7F7"/>
<path d="M92.3006 110.709C92.3006 112.997 94.1514 114.852 96.4345 114.852C98.7176 114.852 100.568 112.997 100.568 110.709C100.568 108.422 98.7176 106.567 96.4345 106.567C94.1514 106.567 92.3006 108.422 92.3006 110.709Z" fill="#F7F7F7"/>
<path d="M59.042 144.035C59.042 146.322 60.8927 148.177 63.1757 148.177C65.4588 148.177 67.3096 146.322 67.3096 144.035C67.3096 141.747 65.4588 139.893 63.1757 139.893C60.8927 139.893 59.042 141.747 59.042 144.035Z" fill="#F7F7F7"/>
<path d="M25.7373 110.709C25.7373 112.997 27.588 114.852 29.871 114.852C32.1541 114.852 34.0049 112.997 34.0049 110.709C34.0049 108.422 32.1541 106.567 29.871 106.567C27.588 106.567 25.7373 108.422 25.7373 110.709Z" fill="#F7F7F7"/>
<path d="M-7.52162 144.035C-7.52162 146.322 -5.67082 148.177 -3.38776 148.177C-1.10471 148.177 0.746093 146.322 0.746094 144.035C0.746094 141.747 -1.10471 139.893 -3.38776 139.893C-5.67082 139.893 -7.52162 141.747 -7.52162 144.035Z" fill="#F7F7F7"/>
<path d="M1223.09 510.609C1223.09 512.896 1224.94 514.751 1227.23 514.751C1229.51 514.751 1231.36 512.896 1231.36 510.609C1231.36 508.321 1229.51 506.467 1227.23 506.467C1224.94 506.467 1223.09 508.321 1223.09 510.609Z" fill="#F7F7F7"/>
<path d="M1223.09 677.235C1223.09 679.522 1224.94 681.377 1227.22 681.377C1229.51 681.377 1231.36 679.522 1231.36 677.235C1231.36 674.947 1229.51 673.093 1227.22 673.093C1224.94 673.093 1223.09 674.947 1223.09 677.235Z" fill="#F7F7F7"/>
<path d="M1223.09 843.856C1223.09 846.144 1224.94 847.998 1227.23 847.998C1229.51 847.998 1231.36 846.144 1231.36 843.856C1231.36 841.568 1229.51 839.714 1227.23 839.714C1224.94 839.714 1223.09 841.568 1223.09 843.856Z" fill="#F7F7F7"/>
<path d="M1223.09 1010.44C1223.09 1012.72 1224.94 1014.58 1227.23 1014.58C1229.51 1014.58 1231.36 1012.72 1231.36 1010.44C1231.36 1008.15 1229.51 1006.29 1227.23 1006.29C1224.94 1006.29 1223.09 1008.15 1223.09 1010.44Z" fill="#F7F7F7"/>
<path d="M-182.832 897.328C-236.008 928.158 -271.804 985.724 -271.804 1051.71C-271.804 1150.18 -192.133 1230.01 -93.8608 1230.01C4.41172 1230.01 84.082 1150.18 84.082 1051.71C84.082 953.246 4.41173 873.417 -93.8608 873.417L-93.8608 1051.71L-182.832 897.328Z" fill="#F7F7F7"/>
<path d="M1218.96 -9.08402C1199 2.49497 1185.61 24.0526 1185.61 48.811C1185.61 85.7602 1215.48 115.696 1252.36 115.696C1289.24 115.696 1319.11 85.7602 1319.11 48.811C1319.11 11.8617 1289.24 -18.0742 1252.36 -18.0742L1252.36 48.811L1219.01 -9.08402L1218.96 -9.08402Z" fill="#F7F7F7"/>
<path d="M1530.36 -9.08402C1510.39 2.49497 1497 24.0526 1497 48.811C1497 85.7602 1526.88 115.696 1563.76 115.696C1600.63 115.696 1630.46 85.7132 1630.46 48.811C1630.46 11.9088 1600.59 -18.0742 1563.71 -18.0742L1563.71 48.811L1530.36 -9.08402Z" fill="#F7F7F7"/>
<path d="M1350.12 122.287C1330.15 133.866 1316.76 155.424 1316.76 180.182C1316.76 217.131 1346.64 247.067 1383.51 247.067C1420.39 247.067 1450.27 217.131 1450.27 180.182C1450.27 143.233 1420.39 113.297 1383.51 113.297L1383.51 180.182L1350.16 122.287L1350.12 122.287Z" fill="#F7F7F7"/>
<path d="M1128.81 122.287C1108.85 133.866 1095.46 155.424 1095.46 180.182C1095.46 217.131 1125.34 247.067 1162.21 247.067C1199.09 247.067 1228.96 217.131 1228.96 180.182C1228.96 143.233 1199.09 113.297 1162.21 113.297L1162.21 180.182L1128.86 122.287L1128.81 122.287Z" fill="#F7F7F7"/>
<path d="M776.406 -9.08402C756.441 2.49497 743.053 24.0526 743.053 48.811C743.053 85.7602 772.929 115.696 809.805 115.696C846.681 115.696 876.557 85.7602 876.557 48.811C876.557 11.8617 846.681 -18.0742 809.805 -18.0742L809.805 48.811L776.453 -9.08402L776.406 -9.08402Z" fill="#F7F7F7"/>
<path d="M907.56 122.287C887.596 133.866 874.208 155.424 874.208 180.182C874.208 217.131 904.084 247.067 940.96 247.067C977.836 247.067 1007.71 217.131 1007.71 180.182C1007.71 143.233 977.836 113.297 940.96 113.297L940.96 180.182L907.607 122.287L907.56 122.287Z" fill="#F7F7F7"/>
<path d="M555.149 -9.08402C535.184 2.49497 521.796 24.0526 521.796 48.811C521.796 85.7602 551.673 115.696 588.548 115.696C625.424 115.696 655.3 85.7602 655.3 48.811C655.3 11.8617 625.424 -18.0742 588.548 -18.0742L588.548 48.811L555.196 -9.08402L555.149 -9.08402Z" fill="#F7F7F7"/>
<path d="M465.005 122.287C445.041 133.866 431.653 155.424 431.653 180.182C431.653 217.131 461.529 247.067 498.405 247.067C535.28 247.067 565.157 217.131 565.157 180.182C565.157 143.233 535.28 113.297 498.405 113.297L498.405 180.182L465.052 122.287L465.005 122.287Z" fill="#F7F7F7"/>
<path d="M112.593 -9.08402C92.628 2.49497 79.24 24.0526 79.24 48.811C79.24 85.7602 109.116 115.696 145.992 115.696C182.868 115.696 212.744 85.7602 212.744 48.811C212.744 11.8617 182.868 -18.0742 145.992 -18.0742L145.992 48.811L112.64 -9.08402L112.593 -9.08402Z" fill="#F7F7F7"/>
<path d="M22.45 122.287C2.48543 133.866 -10.9026 155.424 -10.9026 180.182C-10.9026 217.131 18.9737 247.067 55.8494 247.067C92.7251 247.067 122.602 217.131 122.602 180.182C122.602 143.233 92.7251 113.297 55.8494 113.297L55.8494 180.182L22.497 122.287L22.45 122.287Z" fill="#F7F7F7"/>
<path d="M-96.8692 -9.08402C-116.834 2.49497 -130.222 24.0526 -130.222 48.811C-130.222 85.7602 -100.345 115.696 -63.4698 115.696C-26.5941 115.696 3.28222 85.7602 3.28222 48.811C3.28223 11.8617 -26.5941 -18.0742 -63.4698 -18.0742L-63.4698 48.811L-96.8223 -9.08402L-96.8692 -9.08402Z" fill="#F7F7F7"/>
</g>
</g>
</svg>
