<svg width="421" height="244" viewBox="0 0 421 244" fill="none" xmlns="http://www.w3.org/2000/svg">
<path d="M61.5996 129.263L67.0508 168.511L51.7817 170.648L46.3305 131.4L61.5996 129.263Z" fill="#CFE6C3" stroke="#D3F4C9" stroke-width="8.91838"/>
<path d="M70.4353 117.558L78.7344 177.34L42.9459 182.352L34.6468 122.57L70.4353 117.558Z" fill="#75CFFF" stroke="#D3F4C9" stroke-width="8.91838"/>
<path d="M99.4256 123.977L101.538 139.196L86.2748 141.333L84.1625 126.115L99.4256 123.977Z" fill="#CFE6C3" stroke="#D3F4C9" stroke-width="8.91838"/>
<path d="M108.26 112.273L113.222 148.026L77.4405 153.038L72.4779 117.285L108.26 112.273Z" fill="#75CFFF" stroke="#D3F4C9" stroke-width="8.91838"/>
<path d="M137.262 118.692L142.713 157.941L127.444 160.078L121.993 120.829L137.262 118.692Z" fill="#CFE6C3" stroke="#D3F4C9" stroke-width="8.91838"/>
<path d="M146.097 106.988L154.397 166.77L118.608 171.782L110.309 112L146.097 106.988Z" fill="#75CFFF" stroke="#D3F4C9" stroke-width="8.91838"/>
<path d="M175.07 113.41L177.182 128.628L161.919 130.766L159.807 115.548L175.07 113.41Z" fill="#CFE6C3" stroke="#D3F4C9" stroke-width="8.91838"/>
<path d="M183.904 101.705L188.867 137.458L153.085 142.469L148.122 106.716L183.904 101.705Z" fill="#75CFFF" stroke="#D3F4C9" stroke-width="8.91838"/>
<path d="M212.906 108.124L218.357 147.372L203.088 149.509L197.637 110.261L212.906 108.124Z" fill="#CFE6C3" stroke="#D3F4C9" stroke-width="8.91838"/>
<path d="M221.742 96.4196L230.041 156.202L194.253 161.213L185.953 101.431L221.742 96.4196Z" fill="#75CFFF" stroke="#D3F4C9" stroke-width="8.91838"/>
<path d="M250.732 102.84L252.844 118.058L237.581 120.196L235.469 104.977L250.732 102.84Z" fill="#CFE6C3" stroke="#D3F4C9" stroke-width="8.91838"/>
<path d="M259.566 91.1348L264.528 126.888L228.747 131.899L223.784 96.1462L259.566 91.1348Z" fill="#75CFFF" stroke="#D3F4C9" stroke-width="8.91838"/>
<path d="M288.568 97.5536L294.019 136.802L278.75 138.939L273.299 99.6908L288.568 97.5536Z" fill="#CFE6C3" stroke="#D3F4C9" stroke-width="8.91838"/>
<path d="M297.404 85.8493L305.703 145.632L269.914 150.643L261.615 90.8609L297.404 85.8493Z" fill="#75CFFF" stroke="#D3F4C9" stroke-width="8.91838"/>
<path d="M326.376 92.2712L328.489 107.49L313.226 109.627L311.113 94.4089L326.376 92.2712Z" fill="#CFE6C3" stroke="#D3F4C9" stroke-width="8.91838"/>
<path d="M335.21 80.5664L340.173 116.319L304.391 121.331L299.429 85.5778L335.21 80.5664Z" fill="#75CFFF" stroke="#D3F4C9" stroke-width="8.91838"/>
<path d="M364.212 86.9872L369.664 126.235L354.394 128.373L348.943 89.1243L364.212 86.9872Z" fill="#CFE6C3" stroke="#D3F4C9" stroke-width="8.91838"/>
<path d="M373.048 75.2819L381.347 135.064L345.559 140.076L337.26 80.2935L373.048 75.2819Z" fill="#75CFFF" stroke="#D3F4C9" stroke-width="8.91838"/>
<path d="M402.037 81.7018L404.15 96.9202L388.887 99.0579L386.774 83.8395L402.037 81.7018Z" fill="#CFE6C3" stroke="#D3F4C9" stroke-width="8.91838"/>
<path d="M410.872 69.9971L415.834 105.75L380.053 110.761L375.09 75.0085L410.872 69.9971Z" fill="#75CFFF" stroke="#D3F4C9" stroke-width="8.91838"/>
<path d="M383.731 4.75024C398 2.75683 410.464 11.0917 412.415 25.1141C413.757 34.7582 409.516 40.9304 406.68 44.1305L409.421 63.8245L28.9169 116.983L27.546 113.933L8.94233 72.5359L6.50455 67.112L45.9467 61.6017L44.7072 52.6944L80.0302 47.7596L81.3807 57.4649C82.0987 57.626 82.804 57.8215 83.4952 58.05C86.5102 56.1612 90.1277 54.8337 94.3473 54.2414L93.4465 47.7676L128.244 42.9062L127.987 41.0597L163.31 36.1249L164.475 44.4916C166.727 44.0986 169.678 43.8268 172.724 44.2699C174.751 43.322 176.931 42.6695 179.229 42.3485C182.978 41.8247 186.584 42.1468 189.867 43.2524C192.908 41.2958 196.403 39.9493 200.394 39.3917C202.707 39.0685 204.964 39.0409 207.14 39.2892L205.873 30.1788L241.196 25.244L242.361 33.6232C243.489 33.5561 244.6 33.5549 245.691 33.6196L244.462 24.7877L279.785 19.8529L280.042 21.6994L291.571 20.0886L292.554 27.1495L299.504 26.1785C301.198 25.5154 302.987 25.0589 304.821 24.8026C308.461 24.2942 312.29 24.6087 315.65 25.818C318.777 23.6839 322.66 22.3105 326.624 21.7567C328.563 21.4858 330.829 21.3882 332.83 21.5227L364.702 17.07C368.57 10.4823 375.361 5.91972 383.731 4.75024Z" fill="#75CFFF" stroke="#D3F4C9" stroke-width="8.91838"/>
<path d="M83.7181 180.483C85.6146 180.218 87.4439 180.191 89.2062 180.349L102.105 178.547C105.796 177.119 109.997 176.64 113.947 177.278C115.963 176.34 118.13 175.693 120.414 175.374C122.311 175.109 124.14 175.082 125.902 175.24L138.801 173.438C142.492 172.01 146.693 171.531 150.643 172.17C152.659 171.231 154.826 170.583 157.11 170.264C163.13 169.423 168.793 170.766 173.295 174.022C176.709 176.492 179.298 179.95 180.878 184.067L210.484 179.931L215.46 215.695L50.7889 238.701L43.5543 186.709L65.4104 183.656C69.0917 182.229 73.3022 181.75 77.252 182.388C79.268 181.45 81.4347 180.802 83.7181 180.483Z" fill="#75CFFF" stroke="#D3F4C9" stroke-width="8.91838"/>
<path d="M34.2701 77.8908L34.3638 78.1183L38.5462 88.2301L38.5453 88.2302C38.9162 89.123 39.3187 90.1466 39.6276 90.9463C39.6556 91.0188 39.682 91.0903 39.7084 91.1589C39.7141 91.0812 39.7201 91.001 39.7263 90.9187C39.7911 90.0549 39.8839 88.9459 39.9965 87.974L39.997 87.9709L41.3558 77.1372L41.3863 76.8952L46.9696 76.1141L47.0663 76.3343L51.4639 86.3627L51.468 86.371C51.8418 87.2877 52.2533 88.3219 52.5716 89.1265C52.6127 89.2304 52.6515 89.3311 52.6892 89.4266C52.6983 89.3272 52.7079 89.2227 52.7179 89.1149C52.7971 88.2607 52.905 87.1652 53.0184 86.2044L53.019 86.2014L54.4228 75.308L54.4534 75.0671L60.9265 74.1615L60.8619 74.5837L57.2631 98.1337L57.2277 98.3684L51.2866 99.1996L51.1913 98.9753L46.6503 88.2983L46.6492 88.2975C46.2815 87.4242 45.8914 86.4794 45.5927 85.7533C45.5542 85.6597 45.5175 85.5696 45.4823 85.4838C45.4704 85.5791 45.4581 85.6795 45.4451 85.7838C45.3475 86.5672 45.2205 87.5835 45.1039 88.5147L45.1043 88.5176L43.56 100.046L43.5281 100.285L37.6392 101.109L37.541 100.892L27.7979 79.2075L27.6239 78.8207L34.2701 77.8908Z" fill="#D3F4C9" stroke="white" stroke-width="0.637027"/>
<path d="M67.6766 64.1405L69.2596 75.533C69.8407 74.5086 70.5137 73.6702 71.3571 73.0238C72.3783 72.2411 73.6252 71.754 75.2022 71.5333C77.6219 71.1949 79.7833 71.8248 81.4281 73.1916C83.0703 74.5562 84.1767 76.6379 84.5288 79.1722L86.6232 94.2451L80.0099 95.1704L78.0378 80.9776C77.8782 79.8294 77.4105 78.9222 76.7164 78.3433C76.0264 77.7679 75.0814 77.4904 73.9083 77.6544C71.4774 77.9945 69.9081 80.1985 70.3153 83.1309L72.1412 96.2712L65.5279 97.1964L61.0633 65.0657L67.6766 64.1405Z" fill="#D3F4C9" stroke="white" stroke-width="0.637027"/>
<path d="M101.691 80.7552C101.26 81.0334 100.763 81.2831 100.246 81.5136C99.5408 81.828 98.774 82.1183 98.065 82.4005L98.0603 82.4021C96.5463 82.9753 95.4814 83.4753 94.827 84.0673C94.5063 84.3575 94.2911 84.6633 94.1696 85.0054C94.0479 85.3481 94.0125 85.7477 94.0801 86.2347C94.2156 87.2094 94.6229 87.7755 95.1949 88.0844C95.7873 88.4043 96.6125 88.4797 97.6357 88.3366C100.927 87.876 102.367 85.6202 102.092 83.6357L101.691 80.7552ZM110.271 90.9421L104.041 91.8136L103.929 91.703C103.677 91.4549 103.464 91.0479 103.283 90.6122C103.181 90.3674 103.085 90.101 102.996 89.8269C102.57 90.5683 102.019 91.2545 101.217 91.8291C100.202 92.5562 98.8149 93.0901 96.8408 93.3663C94.4794 93.6967 92.3447 93.3662 90.7101 92.3436C89.0673 91.3158 87.9662 89.6112 87.6417 87.2765C87.2818 84.6858 88.1056 82.7993 89.6696 81.3929C91.212 80.0061 93.4585 79.099 95.9274 78.3914L97.2101 78.0147C98.3915 77.6577 99.2705 77.3502 99.8767 77.0046C100.275 76.7777 100.525 76.5498 100.668 76.3072C100.806 76.0718 100.861 75.7925 100.809 75.4226C100.703 74.6569 100.344 74.1236 99.7468 73.8062C99.1326 73.4796 98.2272 73.3601 97.0022 73.5315C95.6271 73.7239 94.6933 74.1107 94.1184 74.6676C93.5563 75.2122 93.296 75.9606 93.3556 76.9832L93.3729 77.2776L87.4259 78.1096L87.3936 77.7778C87.1968 75.7044 87.7394 73.6454 89.1987 71.9865C90.6562 70.3298 93.0017 69.1027 96.3571 68.6332C99.7007 68.1655 102.272 68.5889 104.11 69.854C105.953 71.1232 106.997 73.197 107.371 75.894L108.969 87.389C109.087 88.2399 109.241 88.8837 109.43 89.3459C109.62 89.8114 109.83 90.0558 110.033 90.1668L110.174 90.2437L110.271 90.9421Z" fill="#D3F4C9" stroke="white" stroke-width="0.637027"/>
<path d="M116.299 59.2471L117.278 66.2898L121.157 65.7471L121.796 70.3474L117.917 70.8901L119.538 82.5544C119.646 83.3335 119.926 83.7648 120.272 83.9949C120.626 84.2304 121.116 84.2989 121.733 84.2126C122.097 84.1616 122.53 84.0885 122.874 84.0273C123.046 83.9967 123.195 83.9696 123.3 83.9499C123.353 83.9401 123.395 83.9321 123.424 83.9267C123.438 83.924 123.449 83.9215 123.457 83.9201C123.46 83.9194 123.464 83.9193 123.465 83.9189L123.467 83.9177L123.797 83.8548L124.496 88.8846L124.203 88.9443L124.198 88.9449C124.196 88.9455 124.191 88.9466 124.186 88.9477C124.175 88.9499 124.159 88.9532 124.138 88.9573C124.096 88.9657 124.033 88.9777 123.951 88.9934C123.785 89.0248 123.54 89.0704 123.221 89.1261C122.583 89.2375 121.646 89.3907 120.453 89.5576C118.972 89.7648 117.327 89.6996 115.964 89.0014C114.579 88.2926 113.53 86.9539 113.22 84.7221L111.421 71.782L108.3 72.2186L107.705 67.9327L108.02 67.8885L107.979 67.5906L110.784 67.1981L109.806 60.1555L116.299 59.2471Z" fill="#D3F4C9" stroke="white" stroke-width="0.637027"/>
<path d="M138.292 56.1738L139.271 63.2165L143.15 62.6738L143.789 67.2742L139.91 67.8168L141.531 79.4811C141.639 80.2603 141.918 80.6916 142.264 80.9217C142.619 81.1572 143.109 81.2256 143.725 81.1394C144.09 81.0884 144.523 81.0153 144.867 80.954C145.038 80.9235 145.187 80.8964 145.293 80.8767C145.346 80.8668 145.388 80.8589 145.417 80.8534C145.431 80.8507 145.442 80.8483 145.449 80.8469C145.453 80.8462 145.456 80.846 145.458 80.8457L145.46 80.8444L145.789 80.7816L146.488 85.8114L146.196 85.871L146.191 85.8717C146.188 85.8723 146.184 85.8733 146.179 85.8744C146.168 85.8766 146.152 85.8799 146.131 85.8841C146.088 85.8924 146.026 85.9045 145.943 85.9202C145.778 85.9516 145.533 85.9971 145.213 86.0528C144.575 86.1642 143.639 86.3174 142.446 86.4844C140.965 86.6915 139.32 86.6263 137.956 85.9282C136.572 85.2194 135.522 83.8807 135.212 81.6489L133.414 68.7088L130.293 69.1454L129.698 64.8594L130.013 64.8153L129.971 64.5174L132.777 64.1249L131.798 57.0822L138.292 56.1738Z" fill="#D3F4C9" stroke="white" stroke-width="0.637027"/>
<path d="M152.197 61.4102L155.428 84.6545L148.812 85.5798L145.581 62.3355L152.197 61.4102ZM150.959 52.5027L151.793 58.5016L145.177 59.4269L144.343 53.428L150.959 52.5027Z" fill="#D3F4C9" stroke="white" stroke-width="0.637027"/>
<path d="M181.233 56.723C183.683 56.3802 185.743 56.905 187.28 58.1854C188.813 59.4622 189.787 61.457 190.137 63.9792L192.294 79.4991L185.681 80.4242L183.666 65.9228C183.496 64.6945 183.066 63.8531 182.462 63.352C181.863 62.8549 181.043 62.6532 180.004 62.7986C178.834 62.9623 177.976 63.5367 177.45 64.4053C176.919 65.2819 176.709 66.49 176.911 67.9408L178.78 81.3897L172.167 82.3148L170.152 67.8135C169.982 66.5852 169.552 65.7439 168.947 65.2428C168.348 64.7458 167.528 64.544 166.489 64.6894C165.374 64.8455 164.514 65.418 163.973 66.2927C163.429 67.1734 163.195 68.3854 163.396 69.8316L165.265 83.2805L158.653 84.2056L155.423 60.967L161.829 60.0708L162.179 62.5934C163.27 60.5862 165.218 58.9638 168.115 58.5583C170.93 58.1644 173.43 59.3188 174.964 61.4004C176.23 58.8618 178.404 57.1189 181.233 56.723Z" fill="#D3F4C9" stroke="white" stroke-width="0.637027"/>
<path d="M202.396 53.7662C206.114 53.2461 209.191 54.2713 211.477 56.4785C213.753 58.677 215.218 62.0207 215.784 66.0966L215.828 66.4119L199.499 68.6963C199.962 70.191 200.686 71.3288 201.639 72.0593C202.658 72.8408 203.972 73.1814 205.59 72.9551C206.705 72.799 207.528 72.4272 208.12 71.899C208.711 71.3713 209.095 70.6673 209.299 69.8082L209.349 69.5962L215.85 68.6866L215.823 69.0789C215.523 73.3598 212.321 77.3716 206.371 78.204C202.553 78.7383 199.352 77.8182 196.986 75.8815C194.623 73.9478 193.119 71.0231 192.643 67.5928L192.64 67.5754C191.689 60.7308 195.594 54.7179 202.396 53.7662ZM203.212 59.0103C201.694 59.2228 200.666 59.8275 199.996 60.7107C199.379 61.5239 199.046 62.6046 198.946 63.9085L208.247 62.6073C207.94 61.4074 207.327 60.4558 206.515 59.8282C205.631 59.1459 204.494 58.8311 203.212 59.0103Z" fill="#D3F4C9" stroke="white" stroke-width="0.637027"/>
<path d="M230.082 50.5293L233.313 73.7736L226.697 74.6989L223.466 51.4546L230.082 50.5293ZM228.844 41.6218L229.678 47.6208L223.062 48.5461L222.228 42.5471L228.844 41.6218Z" fill="#D3F4C9" stroke="white" stroke-width="0.637027"/>
<path d="M242 48.2152C245.024 47.7921 247.515 48.2084 249.398 49.3337C251.285 50.4618 252.527 52.2812 253.083 54.5906L253.165 54.9322L247.121 55.7778L247.051 55.5006C246.771 54.3767 246.25 53.704 245.538 53.3368C244.811 52.9618 243.832 52.8774 242.584 53.052C241.453 53.2102 240.579 53.5514 240.022 54.0189C239.479 54.4748 239.229 55.0536 239.326 55.755C239.38 56.1426 239.566 56.4138 239.871 56.6206C240.189 56.8366 240.643 56.9855 241.227 57.0875C242.112 57.2421 243.196 57.2769 244.393 57.3289L245.624 57.3914L245.625 57.3922C247.568 57.5233 249.686 57.7069 251.41 58.551C253.166 59.4109 254.495 60.9444 254.877 63.6965C255.206 66.0671 254.454 68.119 252.884 69.6718C251.324 71.2165 248.973 72.2514 246.116 72.6511C242.792 73.1161 240.054 72.678 238.004 71.4875C235.947 70.2933 234.617 68.3607 234.085 65.9083L234.012 65.5724L240.174 64.7102L240.252 64.9725C240.611 66.1788 241.253 66.9612 242.097 67.4073C242.95 67.858 244.05 67.986 245.355 67.8036C246.666 67.6201 247.597 67.2356 248.169 66.7403C248.726 66.2567 248.953 65.6601 248.858 64.9783C248.794 64.5182 248.598 64.1989 248.3 63.9609C247.992 63.7147 247.557 63.5427 247.001 63.4229C245.875 63.1804 244.408 63.1777 242.791 63.0811C240.715 62.9678 238.585 62.7734 236.885 61.9598C235.153 61.1309 233.885 59.6679 233.527 57.094C233.17 54.527 233.966 52.4748 235.534 50.9796C237.089 49.4959 239.382 48.5815 242 48.2152Z" fill="#D3F4C9" stroke="white" stroke-width="0.637027"/>
<path d="M268.672 45.1377L271.903 68.382L265.286 69.3073L262.055 46.063L268.672 45.1377ZM267.433 36.2302L268.267 42.2292L261.651 43.1545L260.817 37.1555L267.433 36.2302Z" fill="#D3F4C9" stroke="white" stroke-width="0.637027"/>
<path d="M279.223 36.4854L280.201 43.528L284.08 42.9854L284.72 47.5857L280.841 48.1284L282.461 59.7926C282.57 60.5718 282.849 61.0031 283.195 61.2332C283.549 61.4687 284.039 61.5371 284.656 61.4509C285.02 61.3999 285.454 61.3268 285.797 61.2656C285.969 61.235 286.118 61.2079 286.223 61.1882C286.276 61.1784 286.319 61.1704 286.347 61.165C286.362 61.1623 286.373 61.1598 286.38 61.1584C286.384 61.1577 286.387 61.1576 286.389 61.1572L286.391 61.156L286.72 61.0931L287.419 66.1229L287.127 66.1826L287.122 66.1832C287.119 66.1838 287.115 66.1849 287.109 66.186C287.098 66.1881 287.082 66.1915 287.061 66.1956C287.019 66.204 286.956 66.216 286.874 66.2317C286.709 66.2631 286.463 66.3087 286.144 66.3644C285.506 66.4757 284.57 66.629 283.376 66.7959C281.895 67.0031 280.251 66.9379 278.887 66.2397C277.503 65.5309 276.453 64.1922 276.143 61.9604L274.345 49.0203L271.224 49.4569L270.628 45.1709L270.944 45.1268L270.902 44.8289L273.708 44.4364L272.729 37.3937L279.223 36.4854Z" fill="#D3F4C9" stroke="white" stroke-width="0.637027"/>
<path d="M306.807 39.1784C309.227 38.84 311.388 39.469 313.033 40.8357C314.675 42.2002 315.782 44.2822 316.134 46.8163L318.228 61.8883L311.615 62.8136L309.643 48.6218C309.483 47.4739 309.015 46.5673 308.322 45.9884C307.632 45.413 306.686 45.1345 305.513 45.2986C303.083 45.6387 301.514 47.8434 301.921 50.7759L303.747 63.9143L297.134 64.8396L293.904 41.599L300.397 40.6906L300.754 43.2607C301.313 42.2407 302.001 41.3921 302.861 40.7314C303.921 39.9179 305.219 39.4006 306.807 39.1784Z" fill="#D3F4C9" stroke="white" stroke-width="0.637027"/>
<path d="M328.97 36.0838C336.153 35.0789 341.82 39.7357 342.78 46.6482C343.741 53.5609 339.56 59.5962 332.377 60.6012C325.194 61.606 319.527 56.9484 318.567 50.0358C317.606 43.1233 321.788 37.0888 328.97 36.0838ZM329.706 41.2514C327.976 41.4935 326.737 42.3858 325.994 43.7331C325.244 45.092 324.983 46.9405 325.283 49.0962C325.582 51.2538 326.323 52.948 327.406 54.0362C328.478 55.1143 329.91 55.6226 331.669 55.3765C333.428 55.1303 334.666 54.2485 335.404 52.9172C336.148 51.5734 336.399 49.7404 336.099 47.5829C335.8 45.4272 335.045 43.7207 333.953 42.6195C332.871 41.5277 331.436 41.0094 329.706 41.2514Z" fill="#D3F4C9" stroke="white" stroke-width="0.637027"/>
<path d="M347.396 34.1457L347.49 34.3732L351.672 44.485L351.671 44.4851C352.042 45.3779 352.445 46.4015 352.754 47.2012C352.782 47.2737 352.808 47.3452 352.834 47.4137C352.84 47.3361 352.846 47.2559 352.852 47.1736C352.917 46.3097 353.01 45.2008 353.122 44.2289L353.123 44.2258L354.482 33.392L354.512 33.1501L360.096 32.369L360.192 32.5892L364.59 42.6176L364.594 42.6259C364.968 43.5426 365.379 44.5768 365.698 45.3814C365.739 45.4853 365.778 45.586 365.815 45.6815C365.824 45.5821 365.834 45.4776 365.844 45.3698C365.923 44.5156 366.031 43.4201 366.144 42.4593L366.145 42.4562L367.549 31.5629L367.579 31.322L374.052 30.4164L373.988 30.8386L370.389 54.3886L370.354 54.6233L364.413 55.4545L364.317 55.2301L359.776 44.5532L359.775 44.5524C359.408 43.679 359.017 42.7342 358.719 42.0082C358.68 41.9146 358.644 41.8244 358.608 41.7387C358.596 41.834 358.584 41.9344 358.571 42.0387C358.473 42.8221 358.346 43.8384 358.23 44.7696L358.23 44.7725L356.686 56.3008L356.654 56.5399L350.765 57.3638L350.667 57.1468L340.924 35.4624L340.75 35.0756L347.396 34.1457Z" fill="#D3F4C9" stroke="white" stroke-width="0.637027"/>
<path d="M392.084 44.4189L393.059 51.4365L385.998 52.4243L385.023 45.4068L392.084 44.4189ZM385.752 19.1226C389.184 18.6424 392.079 19.2772 394.215 20.7261C396.354 22.1767 397.707 24.426 398.081 27.1155C398.393 29.3598 398.023 31.0374 397.347 32.3783C396.675 33.7089 395.709 34.6908 394.873 35.5435L394.872 35.5437C394.149 36.276 393.486 36.9083 392.984 37.4121C392.464 37.9351 392.065 38.3714 391.772 38.8035C391.206 39.6379 391.011 40.487 391.22 41.9927L391.264 42.309L385.271 43.1475L385.227 42.8312C384.863 40.2121 385.111 38.4669 385.788 37.0729C386.459 35.6926 387.537 34.6903 388.728 33.5477L388.728 33.5466C389.595 32.7191 390.367 32.0219 390.889 31.2011C391.398 30.401 391.668 29.4819 391.491 28.2129C391.316 26.9494 390.716 26.0233 389.862 25.452C389.004 24.8776 387.861 24.6433 386.579 24.8228C385.017 25.0413 383.805 25.7159 383.033 26.7201C382.261 27.724 381.904 29.091 382.116 30.7423L382.157 31.0551L375.849 31.9376L375.812 31.6134C375.467 28.612 376.103 25.744 377.763 23.4933C379.425 21.2395 382.093 19.6344 385.752 19.1226Z" fill="#D3F4C9" stroke="white" stroke-width="0.637027"/>
<path d="M58.0653 133.938L62.3806 164.984L55.3165 165.972L51.0012 134.926L58.0653 133.938Z" fill="#D3F4C9" stroke="white" stroke-width="0.637027"/>
<path d="M95.8934 128.653L96.8684 135.67L89.8072 136.657L88.8323 129.641L95.8934 128.653Z" fill="#D3F4C9" stroke="white" stroke-width="0.637027"/>
<path d="M133.727 123.368L138.042 154.414L130.978 155.402L126.663 124.356L133.727 123.368Z" fill="#D3F4C9" stroke="white" stroke-width="0.637027"/>
<path d="M171.537 118.085L172.512 125.101L165.451 126.089L164.476 119.073L171.537 118.085Z" fill="#D3F4C9" stroke="white" stroke-width="0.637027"/>
<path d="M209.371 112.799L213.687 143.846L206.623 144.834L202.307 113.787L209.371 112.799Z" fill="#D3F4C9" stroke="white" stroke-width="0.637027"/>
<path d="M247.2 107.514L248.175 114.531L241.113 115.519L240.138 108.502L247.2 107.514Z" fill="#D3F4C9" stroke="white" stroke-width="0.637027"/>
<path d="M285.033 102.229L289.348 133.275L282.284 134.263L277.969 103.217L285.033 102.229Z" fill="#D3F4C9" stroke="white" stroke-width="0.637027"/>
<path d="M322.844 96.946L323.819 103.963L316.758 104.95L315.783 97.9339L322.844 96.946Z" fill="#D3F4C9" stroke="white" stroke-width="0.637027"/>
<path d="M360.678 91.6617L364.993 122.708L357.929 123.696L353.614 92.6497L360.678 91.6617Z" fill="#D3F4C9" stroke="white" stroke-width="0.637027"/>
<path d="M398.506 86.3766L399.481 93.3932L392.42 94.3811L391.445 87.3645L398.506 86.3766Z" fill="#D3F4C9" stroke="white" stroke-width="0.637027"/>
<path d="M85.7246 194.872C88.1744 194.53 90.2342 195.054 91.7715 196.335C93.3044 197.612 94.2778 199.606 94.6283 202.129L96.7848 217.648L90.1725 218.574L88.1575 204.072C87.9868 202.844 87.5576 202.003 86.9534 201.501C86.3538 201.004 85.5342 200.803 84.4954 200.948C83.3252 201.112 82.467 201.686 81.9412 202.555C81.4107 203.431 81.2006 204.639 81.4022 206.09L83.2709 219.539L76.6586 220.464L74.6436 205.963C74.4729 204.735 74.0427 203.893 73.4385 203.392C72.839 202.895 72.0192 202.693 70.9805 202.839C69.8652 202.995 69.0047 203.567 68.4644 204.442C67.9204 205.323 67.6864 206.535 67.8873 207.981L69.7561 221.43L63.1437 222.355L59.9147 199.116L66.3201 198.22L66.6706 200.743C67.7608 198.736 69.7087 197.113 72.6063 196.708C75.4214 196.314 77.9216 197.468 79.4552 199.55C80.7213 197.011 82.8951 195.268 85.7246 194.872Z" fill="#D3F4C9" stroke="white" stroke-width="0.637027"/>
<path d="M122.418 189.746C124.868 189.404 126.928 189.928 128.465 191.209C129.998 192.486 130.971 194.48 131.322 197.003L133.478 212.522L126.866 213.448L124.851 198.946C124.68 197.718 124.251 196.877 123.647 196.375C123.047 195.878 122.228 195.677 121.189 195.822C120.019 195.986 119.16 196.56 118.635 197.429C118.104 198.305 117.894 199.513 118.096 200.964L119.964 214.413L113.352 215.338L111.337 200.837C111.166 199.609 110.736 198.767 110.132 198.266C109.532 197.769 108.713 197.567 107.674 197.713C106.559 197.869 105.698 198.441 105.158 199.316C104.614 200.197 104.38 201.409 104.581 202.855L106.449 216.304L99.8371 217.229L96.608 193.99L103.013 193.094L103.364 195.617C104.454 193.61 106.402 191.987 109.3 191.582C112.115 191.188 114.615 192.342 116.149 194.424C117.415 191.885 119.588 190.142 122.418 189.746Z" fill="#D3F4C9" stroke="white" stroke-width="0.637027"/>
<path d="M159.111 184.62C161.561 184.278 163.621 184.802 165.158 186.083C166.691 187.36 167.665 189.354 168.015 191.877L170.172 207.397L163.559 208.322L161.544 193.82C161.374 192.592 160.944 191.751 160.34 191.249C159.741 190.752 158.921 190.551 157.882 190.696C156.712 190.86 155.854 191.434 155.328 192.303C154.797 193.179 154.587 194.387 154.789 195.838L156.658 209.287L150.045 210.212L148.03 195.711C147.86 194.483 147.429 193.641 146.825 193.14C146.226 192.643 145.406 192.441 144.367 192.587C143.252 192.743 142.39 193.316 141.85 194.19C141.306 195.071 141.073 196.283 141.274 197.729L143.143 211.178L136.53 212.103L133.301 188.864L139.707 187.968L140.057 190.491C141.147 188.484 143.095 186.861 145.993 186.456C148.808 186.062 151.308 187.216 152.842 189.298C154.108 186.759 156.282 185.016 159.111 184.62Z" fill="#D3F4C9" stroke="white" stroke-width="0.637027"/>
<path d="M178.987 199.018L179.962 206.035L172.901 207.023L171.926 200.006L178.987 199.018Z" fill="#D3F4C9" stroke="white" stroke-width="0.637027"/>
<path d="M188.57 197.679L189.545 204.696L182.484 205.684L181.509 198.667L188.57 197.679Z" fill="#D3F4C9" stroke="white" stroke-width="0.637027"/>
<path d="M198.169 196.338L199.144 203.354L192.083 204.342L191.108 197.325L198.169 196.338Z" fill="#D3F4C9" stroke="white" stroke-width="0.637027"/>
</svg>
